SplineFontDB: 3.2
FontName: LucidUrdu
FullName: Lucid Urdu
FamilyName: Lucid Urdu
Weight: Regular
Copyright: Copyright (c) 2026, Shehroz Kaleem and Project Lucid https://lucid.shehroz.pk/ GitHub repo https://github.com/xehroz/lucid 
UComments: "2026-2-1: Created with FontForge (http://fontforge.org)"
Version: 1.0
ItalicAngle: 0
UnderlinePosition: -100
UnderlineWidth: 50
Ascent: 800
Descent: 200
InvalidEm: 0
LayerCount: 2
Layer: 0 0 "Back" 1
Layer: 1 0 "Fore" 0
XUID: [1021 747 -1799370872 2781913]
FSType: 0
OS2Version: 0
OS2_WeightWidthSlopeOnly: 0
OS2_UseTypoMetrics: 1
CreationTime: 1769920702
ModificationTime: 1769957160
PfmFamily: 49
TTFWeight: 400
TTFWidth: 5
LineGap: 90
VLineGap: 0
Panose: 2 0 5 9 0 0 0 0 0 0
OS2TypoAscent: 800
OS2TypoAOffset: 1
OS2TypoDescent: -200
OS2TypoDOffset: 1
OS2TypoLinegap: 0
OS2WinAscent: 800
OS2WinAOffset: 1
OS2WinDescent: -200
OS2WinDOffset: 1
HheadAscent: 0
HheadAOffset: 1
HheadDescent: 0
HheadDOffset: 1
OS2Vendor: 'PfEd'
Lookup: 1 0 0 "calt_lookup" { "latin_to_pua_subtable"  } ['calt' ('DFLT' <'dflt' > ) ]
MarkAttachClasses: 1
DEI: 91125

StartChar: b
Encoding: 98 98 0
Width: 1000
Flags: H
LayerCount: 2
Fore
SplineSet
142.19921875 -84.2001953125 m 1
 183 -84.2001953125 l 1
 183 704.600585938 l 1
 142.19921875 704.600585938 l 1
 142.19921875 -84.2001953125 l 1
182.599609375 -83.7998046875 m 1
 142.599609375 -83.7998046875 l 1
 142.599609375 704.200195312 l 1
 182.599609375 704.200195312 l 1
 182.599609375 -83.7998046875 l 1
142.399414062 -63.599609375 m 1
 182.399414062 -63.599609375 l 1
 182.399414062 684.400390625 l 1
 142.399414062 684.400390625 l 1
 142.399414062 -63.599609375 l 1
119.399414062 -59.400390625 m 1
 846.599609375 -59.400390625 l 1
 846.599609375 -18.599609375 l 1
 119.399414062 -18.599609375 l 1
 119.399414062 -59.400390625 l 1
846.19921875 -59 m 1
 119.799804688 -59 l 1
 119.799804688 -19 l 1
 846.19921875 -19 l 1
 846.19921875 -59 l 1
826 -58.7998046875 m 1
 826 -18.7998046875 l 1
 139.599609375 -18.7998046875 l 1
 139.599609375 -58.7998046875 l 1
 826 -58.7998046875 l 1
118.999023438 639.399414062 m 1
 846.200195312 639.399414062 l 1
 846.200195312 680.200195312 l 1
 118.999023438 680.200195312 l 1
 118.999023438 639.399414062 l 1
845.799804688 639.799804688 m 1
 119.399414062 639.799804688 l 1
 119.399414062 679.799804688 l 1
 845.799804688 679.799804688 l 1
 845.799804688 639.799804688 l 1
825.599609375 640 m 1
 825.599609375 680 l 1
 139.19921875 680 l 1
 139.19921875 640 l 1
 825.599609375 640 l 1
119.399414062 289.400390625 m 1
 846.599609375 289.400390625 l 1
 846.599609375 330.200195312 l 1
 119.399414062 330.200195312 l 1
 119.399414062 289.400390625 l 1
846.19921875 289.80078125 m 1
 119.799804688 289.80078125 l 1
 119.799804688 329.799804688 l 1
 846.19921875 329.799804688 l 1
 846.19921875 289.80078125 l 1
826 290 m 1
 826 330 l 1
 139.599609375 330 l 1
 139.599609375 290 l 1
 826 290 l 1
-20.2001953125 -220.599609375 m 1
 1020.59960938 -220.599609375 l 1
 1020.59960938 820.200195312 l 1
 -20.2001953125 820.200195312 l 1
 -20.2001953125 -220.599609375 l 1
1020.19921875 -220.19921875 m 1
 -19.7998046875 -220.19921875 l 1
 -19.7998046875 819.799804688 l 1
 1020.19921875 819.799804688 l 1
 1020.19921875 -220.19921875 l 1
1000 820 m 0
 -0 820 -0 820 -0 820 c 2
 -11.0380859375 820 -20 811.038085938 -20 800 c 2
 -20 -200 l 2
 -20 -211.038085938 -11.0380859375 -220 -0 -220 c 2
 1000 -220 l 2
 1011.03808594 -220 1020 -211.038085938 1020 -200 c 2
 1020 800 l 2
 1020 811.038085938 1011.03808594 820 1000 820 c 0
20 780 m 1
 980 780 l 1
 980 -180 l 1
 20 -180 l 1
 20 780 l 1
EndSplineSet
EndChar

StartChar: uniE000
Encoding: 57344 57344 1
Width: 1000
Flags: H
LayerCount: 2
Fore
SplineSet
142.19921875 -84.2001953125 m 1
 183 -84.2001953125 l 1
 183 704.600585938 l 1
 142.19921875 704.600585938 l 1
 142.19921875 -84.2001953125 l 1
182.599609375 -83.7998046875 m 1
 142.599609375 -83.7998046875 l 1
 142.599609375 704.200195312 l 1
 182.599609375 704.200195312 l 1
 182.599609375 -83.7998046875 l 1
142.399414062 -63.599609375 m 1
 182.399414062 -63.599609375 l 1
 182.399414062 684.400390625 l 1
 142.399414062 684.400390625 l 1
 142.399414062 -63.599609375 l 1
119.399414062 -59.400390625 m 1
 846.599609375 -59.400390625 l 1
 846.599609375 -18.599609375 l 1
 119.399414062 -18.599609375 l 1
 119.399414062 -59.400390625 l 1
846.19921875 -59 m 1
 119.799804688 -59 l 1
 119.799804688 -19 l 1
 846.19921875 -19 l 1
 846.19921875 -59 l 1
826 -58.7998046875 m 1
 826 -18.7998046875 l 1
 139.599609375 -18.7998046875 l 1
 139.599609375 -58.7998046875 l 1
 826 -58.7998046875 l 1
118.999023438 639.399414062 m 1
 846.200195312 639.399414062 l 1
 846.200195312 680.200195312 l 1
 118.999023438 680.200195312 l 1
 118.999023438 639.399414062 l 1
845.799804688 639.799804688 m 1
 119.399414062 639.799804688 l 1
 119.399414062 679.799804688 l 1
 845.799804688 679.799804688 l 1
 845.799804688 639.799804688 l 1
825.599609375 640 m 1
 825.599609375 680 l 1
 139.19921875 680 l 1
 139.19921875 640 l 1
 825.599609375 640 l 1
119.399414062 289.400390625 m 1
 846.599609375 289.400390625 l 1
 846.599609375 330.200195312 l 1
 119.399414062 330.200195312 l 1
 119.399414062 289.400390625 l 1
846.19921875 289.80078125 m 1
 119.799804688 289.80078125 l 1
 119.799804688 329.799804688 l 1
 846.19921875 329.799804688 l 1
 846.19921875 289.80078125 l 1
826 290 m 1
 826 330 l 1
 139.599609375 330 l 1
 139.599609375 290 l 1
 826 290 l 1
-20.2001953125 -220.599609375 m 1
 1020.59960938 -220.599609375 l 1
 1020.59960938 820.200195312 l 1
 -20.2001953125 820.200195312 l 1
 -20.2001953125 -220.599609375 l 1
1020.19921875 -220.19921875 m 1
 -19.7998046875 -220.19921875 l 1
 -19.7998046875 819.799804688 l 1
 1020.19921875 819.799804688 l 1
 1020.19921875 -220.19921875 l 1
1000 820 m 0
 -0 820 -0 820 -0 820 c 2
 -11.0380859375 820 -20 811.038085938 -20 800 c 2
 -20 -200 l 2
 -20 -211.038085938 -11.0380859375 -220 -0 -220 c 2
 1000 -220 l 2
 1011.03808594 -220 1020 -211.038085938 1020 -200 c 2
 1020 800 l 2
 1020 811.038085938 1011.03808594 820 1000 820 c 0
20 780 m 1
 980 780 l 1
 980 -180 l 1
 20 -180 l 1
 20 780 l 1
EndSplineSet
EndChar

StartChar: p
Encoding: 112 112 2
Width: 1000
Flags: H
LayerCount: 2
Fore
SplineSet
79.0009765625 600.200195312 m 1
 921.000976562 600.200195312 l 1
 921.000976562 641 l 1
 79.0009765625 641 l 1
 79.0009765625 600.200195312 l 1
920.600585938 600.600585938 m 1
 79.4013671875 600.600585938 l 1
 79.4013671875 640.599609375 l 1
 920.600585938 640.599609375 l 1
 920.600585938 600.600585938 l 1
99.201171875 640.799804688 m 1
 99.201171875 600.799804688 l 1
 900.401367188 600.799804688 l 1
 900.401367188 640.799804688 l 1
 99.201171875 640.799804688 l 1
79.0009765625 -48.2001953125 m 1
 921.000976562 -48.2001953125 l 1
 921.000976562 -7.3994140625 l 1
 79.0009765625 -7.3994140625 l 1
 79.0009765625 -48.2001953125 l 1
920.600585938 -47.7998046875 m 1
 79.4013671875 -47.7998046875 l 1
 79.4013671875 -7.7998046875 l 1
 920.600585938 -7.7998046875 l 1
 920.600585938 -47.7998046875 l 1
99.201171875 -7.599609375 m 1
 99.201171875 -47.599609375 l 1
 900.401367188 -47.599609375 l 1
 900.401367188 -7.599609375 l 1
 99.201171875 -7.599609375 l 1
79.0009765625 -48.599609375 m 1
 921.000976562 -48.599609375 l 1
 921.000976562 641 l 1
 79.0009765625 641 l 1
 79.0009765625 -48.599609375 l 1
920.600585938 -48.19921875 m 1
 79.4013671875 -48.19921875 l 1
 79.4013671875 640.599609375 l 1
 920.600585938 640.599609375 l 1
 920.600585938 -48.19921875 l 1
86.6279296875 -12.4501953125 m 1
 111.774414062 -43.5498046875 l 1
 912.974609375 605.25 l 1
 887.829101562 636.349609375 l 1
 86.6279296875 -12.4501953125 l 1
-20.19921875 -220.599609375 m 1
 1020.6015625 -220.599609375 l 1
 1020.6015625 820.200195312 l 1
 -20.19921875 820.200195312 l 1
 -20.19921875 -220.599609375 l 1
1020.20117188 -220.19921875 m 1
 -19.798828125 -220.19921875 l 1
 -19.798828125 819.799804688 l 1
 1020.20117188 819.799804688 l 1
 1020.20117188 -220.19921875 l 1
1000.00097656 820 m 0
 0.0009765625 820 0.0009765625 820 0.0009765625 820 c 2
 -11.037109375 820 -19.9990234375 811.038085938 -19.9990234375 800 c 2
 -19.9990234375 -200 l 2
 -19.9990234375 -211.038085938 -11.037109375 -220 0.0009765625 -220 c 2
 1000.00097656 -220 l 2
 1011.0390625 -220 1020.00097656 -211.038085938 1020.00097656 -200 c 2
 1020.00097656 800 l 2
 1020.00097656 811.038085938 1011.0390625 820 1000.00097656 820 c 0
20.0009765625 780 m 1
 980.000976562 780 l 1
 980.000976562 -180 l 1
 20.0009765625 -180 l 1
 20.0009765625 780 l 1
EndSplineSet
EndChar

StartChar: uniE001
Encoding: 57345 57345 3
Width: 1000
Flags: H
LayerCount: 2
Fore
SplineSet
79.0009765625 600.200195312 m 1
 921.000976562 600.200195312 l 1
 921.000976562 641 l 1
 79.0009765625 641 l 1
 79.0009765625 600.200195312 l 1
920.600585938 600.600585938 m 1
 79.4013671875 600.600585938 l 1
 79.4013671875 640.599609375 l 1
 920.600585938 640.599609375 l 1
 920.600585938 600.600585938 l 1
99.201171875 640.799804688 m 1
 99.201171875 600.799804688 l 1
 900.401367188 600.799804688 l 1
 900.401367188 640.799804688 l 1
 99.201171875 640.799804688 l 1
79.0009765625 -48.2001953125 m 1
 921.000976562 -48.2001953125 l 1
 921.000976562 -7.3994140625 l 1
 79.0009765625 -7.3994140625 l 1
 79.0009765625 -48.2001953125 l 1
920.600585938 -47.7998046875 m 1
 79.4013671875 -47.7998046875 l 1
 79.4013671875 -7.7998046875 l 1
 920.600585938 -7.7998046875 l 1
 920.600585938 -47.7998046875 l 1
99.201171875 -7.599609375 m 1
 99.201171875 -47.599609375 l 1
 900.401367188 -47.599609375 l 1
 900.401367188 -7.599609375 l 1
 99.201171875 -7.599609375 l 1
79.0009765625 -48.599609375 m 1
 921.000976562 -48.599609375 l 1
 921.000976562 641 l 1
 79.0009765625 641 l 1
 79.0009765625 -48.599609375 l 1
920.600585938 -48.19921875 m 1
 79.4013671875 -48.19921875 l 1
 79.4013671875 640.599609375 l 1
 920.600585938 640.599609375 l 1
 920.600585938 -48.19921875 l 1
86.6279296875 -12.4501953125 m 1
 111.774414062 -43.5498046875 l 1
 912.974609375 605.25 l 1
 887.829101562 636.349609375 l 1
 86.6279296875 -12.4501953125 l 1
-20.19921875 -220.599609375 m 1
 1020.6015625 -220.599609375 l 1
 1020.6015625 820.200195312 l 1
 -20.19921875 820.200195312 l 1
 -20.19921875 -220.599609375 l 1
1020.20117188 -220.19921875 m 1
 -19.798828125 -220.19921875 l 1
 -19.798828125 819.799804688 l 1
 1020.20117188 819.799804688 l 1
 1020.20117188 -220.19921875 l 1
1000.00097656 820 m 0
 0.0009765625 820 0.0009765625 820 0.0009765625 820 c 2
 -11.037109375 820 -19.9990234375 811.038085938 -19.9990234375 800 c 2
 -19.9990234375 -200 l 2
 -19.9990234375 -211.038085938 -11.037109375 -220 0.0009765625 -220 c 2
 1000.00097656 -220 l 2
 1011.0390625 -220 1020.00097656 -211.038085938 1020.00097656 -200 c 2
 1020.00097656 800 l 2
 1020.00097656 811.038085938 1011.0390625 820 1000.00097656 820 c 0
20.0009765625 780 m 1
 980.000976562 780 l 1
 980.000976562 -180 l 1
 20.0009765625 -180 l 1
 20.0009765625 780 l 1
EndSplineSet
EndChar

StartChar: t
Encoding: 116 116 4
Width: 1000
Flags: H
LayerCount: 2
Fore
SplineSet
131.401367188 -140.599609375 m 1
 172.202148438 -140.599609375 l 1
 172.202148438 773.400390625 l 1
 131.401367188 773.400390625 l 1
 131.401367188 -140.599609375 l 1
171.801757812 -140.19921875 m 1
 131.801757812 -140.19921875 l 1
 131.801757812 773 l 1
 171.801757812 773 l 1
 171.801757812 -140.19921875 l 1
131.6015625 -120 m 1
 171.6015625 -120 l 1
 171.6015625 753.200195312 l 1
 131.6015625 753.200195312 l 1
 131.6015625 -120 l 1
817.001953125 -140.599609375 m 1
 857.801757812 -140.599609375 l 1
 857.801757812 773.400390625 l 1
 817.001953125 773.400390625 l 1
 817.001953125 -140.599609375 l 1
857.401367188 -140.19921875 m 1
 817.40234375 -140.19921875 l 1
 817.40234375 773 l 1
 857.401367188 773 l 1
 857.401367188 -140.19921875 l 1
817.202148438 -120 m 1
 857.202148438 -120 l 1
 857.202148438 753.200195312 l 1
 817.202148438 753.200195312 l 1
 817.202148438 -120 l 1
131.001953125 -140.599609375 m 1
 857.40234375 -140.599609375 l 1
 857.40234375 773.400390625 l 1
 131.001953125 773.400390625 l 1
 131.001953125 -140.599609375 l 1
857.001953125 -140.19921875 m 1
 131.40234375 -140.19921875 l 1
 131.40234375 773 l 1
 857.001953125 773 l 1
 857.001953125 -140.19921875 l 1
821.059570312 -132.331054688 m 1
 852.543945312 -107.66796875 l 1
 167.34375 765.53125 l 1
 135.859375 740.868164062 l 1
 821.059570312 -132.331054688 l 1
131.401367188 -140.599609375 m 1
 857.40234375 -140.599609375 l 1
 857.40234375 773.799804688 l 1
 131.401367188 773.799804688 l 1
 131.401367188 -140.599609375 l 1
857.001953125 -140.19921875 m 1
 131.801757812 -140.19921875 l 1
 131.801757812 773.399414062 l 1
 857.001953125 773.399414062 l 1
 857.001953125 -140.19921875 l 1
135.859375 -107.66796875 m 1
 167.323242188 -132.357421875 l 1
 852.543945312 740.868164062 l 1
 821.080078125 765.557617188 l 1
 135.859375 -107.66796875 l 1
-20.1982421875 -220.599609375 m 1
 1020.60253906 -220.599609375 l 1
 1020.60253906 820.200195312 l 1
 -20.1982421875 820.200195312 l 1
 -20.1982421875 -220.599609375 l 1
1020.20214844 -220.19921875 m 1
 -19.7978515625 -220.19921875 l 1
 -19.7978515625 819.799804688 l 1
 1020.20214844 819.799804688 l 1
 1020.20214844 -220.19921875 l 1
1000.00195312 820 m 0
 0.001953125 820 0.001953125 820 0.001953125 820 c 2
 -11.0361328125 820 -19.998046875 811.038085938 -19.998046875 800 c 2
 -19.998046875 -200 l 2
 -19.998046875 -211.038085938 -11.0361328125 -220 0.001953125 -220 c 2
 1000.00195312 -220 l 2
 1011.04003906 -220 1020.00195312 -211.038085938 1020.00195312 -200 c 2
 1020.00195312 800 l 2
 1020.00195312 811.038085938 1011.04003906 820 1000.00195312 820 c 0
20.001953125 780 m 1
 980.001953125 780 l 1
 980.001953125 -180 l 1
 20.001953125 -180 l 1
 20.001953125 780 l 1
EndSplineSet
EndChar

StartChar: uniE002
Encoding: 57346 57346 5
Width: 1000
Flags: H
LayerCount: 2
Fore
SplineSet
131.401367188 -140.599609375 m 1
 172.202148438 -140.599609375 l 1
 172.202148438 773.400390625 l 1
 131.401367188 773.400390625 l 1
 131.401367188 -140.599609375 l 1
171.801757812 -140.19921875 m 1
 131.801757812 -140.19921875 l 1
 131.801757812 773 l 1
 171.801757812 773 l 1
 171.801757812 -140.19921875 l 1
131.6015625 -120 m 1
 171.6015625 -120 l 1
 171.6015625 753.200195312 l 1
 131.6015625 753.200195312 l 1
 131.6015625 -120 l 1
817.001953125 -140.599609375 m 1
 857.801757812 -140.599609375 l 1
 857.801757812 773.400390625 l 1
 817.001953125 773.400390625 l 1
 817.001953125 -140.599609375 l 1
857.401367188 -140.19921875 m 1
 817.40234375 -140.19921875 l 1
 817.40234375 773 l 1
 857.401367188 773 l 1
 857.401367188 -140.19921875 l 1
817.202148438 -120 m 1
 857.202148438 -120 l 1
 857.202148438 753.200195312 l 1
 817.202148438 753.200195312 l 1
 817.202148438 -120 l 1
131.001953125 -140.599609375 m 1
 857.40234375 -140.599609375 l 1
 857.40234375 773.400390625 l 1
 131.001953125 773.400390625 l 1
 131.001953125 -140.599609375 l 1
857.001953125 -140.19921875 m 1
 131.40234375 -140.19921875 l 1
 131.40234375 773 l 1
 857.001953125 773 l 1
 857.001953125 -140.19921875 l 1
821.059570312 -132.331054688 m 1
 852.543945312 -107.66796875 l 1
 167.34375 765.53125 l 1
 135.859375 740.868164062 l 1
 821.059570312 -132.331054688 l 1
131.401367188 -140.599609375 m 1
 857.40234375 -140.599609375 l 1
 857.40234375 773.799804688 l 1
 131.401367188 773.799804688 l 1
 131.401367188 -140.599609375 l 1
857.001953125 -140.19921875 m 1
 131.801757812 -140.19921875 l 1
 131.801757812 773.399414062 l 1
 857.001953125 773.399414062 l 1
 857.001953125 -140.19921875 l 1
135.859375 -107.66796875 m 1
 167.323242188 -132.357421875 l 1
 852.543945312 740.868164062 l 1
 821.080078125 765.557617188 l 1
 135.859375 -107.66796875 l 1
-20.1982421875 -220.599609375 m 1
 1020.60253906 -220.599609375 l 1
 1020.60253906 820.200195312 l 1
 -20.1982421875 820.200195312 l 1
 -20.1982421875 -220.599609375 l 1
1020.20214844 -220.19921875 m 1
 -19.7978515625 -220.19921875 l 1
 -19.7978515625 819.799804688 l 1
 1020.20214844 819.799804688 l 1
 1020.20214844 -220.19921875 l 1
1000.00195312 820 m 0
 0.001953125 820 0.001953125 820 0.001953125 820 c 2
 -11.0361328125 820 -19.998046875 811.038085938 -19.998046875 800 c 2
 -19.998046875 -200 l 2
 -19.998046875 -211.038085938 -11.0361328125 -220 0.001953125 -220 c 2
 1000.00195312 -220 l 2
 1011.04003906 -220 1020.00195312 -211.038085938 1020.00195312 -200 c 2
 1020.00195312 800 l 2
 1020.00195312 811.038085938 1011.04003906 820 1000.00195312 820 c 0
20.001953125 780 m 1
 980.001953125 780 l 1
 980.001953125 -180 l 1
 20.001953125 -180 l 1
 20.001953125 780 l 1
EndSplineSet
EndChar

StartChar: v
Encoding: 118 118 6
Width: 1000
Flags: H
LayerCount: 2
Fore
SplineSet
74.2021484375 619.399414062 m 1
 916.602539062 619.399414062 l 1
 916.602539062 660.200195312 l 1
 74.2021484375 660.200195312 l 1
 74.2021484375 619.399414062 l 1
916.202148438 619.799804688 m 1
 74.6025390625 619.799804688 l 1
 74.6025390625 659.799804688 l 1
 916.202148438 659.799804688 l 1
 916.202148438 619.799804688 l 1
94.40234375 660 m 1
 94.40234375 620 l 1
 896.001953125 620 l 1
 896.001953125 660 l 1
 94.40234375 660 l 1
74.2021484375 -29 m 1
 916.602539062 -29 l 1
 916.602539062 11.80078125 l 1
 74.2021484375 11.80078125 l 1
 74.2021484375 -29 l 1
916.202148438 -28.599609375 m 1
 74.6025390625 -28.599609375 l 1
 74.6025390625 11.400390625 l 1
 916.202148438 11.400390625 l 1
 916.202148438 -28.599609375 l 1
94.40234375 11.6005859375 m 1
 94.40234375 -28.3994140625 l 1
 896.001953125 -28.3994140625 l 1
 896.001953125 11.6005859375 l 1
 94.40234375 11.6005859375 l 1
74.2021484375 -29.400390625 m 1
 916.602539062 -29.400390625 l 1
 916.602539062 660.200195312 l 1
 74.2021484375 660.200195312 l 1
 74.2021484375 -29.400390625 l 1
916.202148438 -29 m 1
 74.6025390625 -29 l 1
 74.6025390625 659.799804688 l 1
 916.202148438 659.799804688 l 1
 916.202148438 -29 l 1
81.8330078125 6.7529296875 m 1
 106.971679688 -24.3525390625 l 1
 908.571289062 624.447265625 l 1
 883.432617188 655.552734375 l 1
 81.8330078125 6.7529296875 l 1
234.6015625 19.400390625 m 1
 757.001953125 19.400390625 l 1
 757.001953125 609.400390625 l 1
 234.6015625 609.400390625 l 1
 234.6015625 19.400390625 l 1
756.6015625 19.80078125 m 1
 235.001953125 19.80078125 l 1
 235.001953125 609 l 1
 756.6015625 609 l 1
 756.6015625 19.80078125 l 1
274.801757812 314.400390625 m 0
 274.801757812 454.680664062 373.576171875 569.200195312 495.6015625 569.200195312 c 0
 533.885742188 569.200195312 571.307617188 557.672851562 605.09765625 535.635742188 c 0
 638.692382812 513.7265625 666.780273438 481.719726562 686.1015625 443.075195312 c 0
 749.854492188 316.774414062 708.235351562 160.828125 605.09765625 93.564453125 c 0
 571.307617188 71.52734375 533.885742188 60 495.6015625 60 c 0
 457.318359375 60 419.896484375 71.52734375 386.106445312 93.564453125 c 0
 352.51171875 115.473632812 324.423828125 147.481445312 305.102539062 186.125 c 0
 285.334960938 225.286132812 274.801757812 269.555664062 274.801757812 314.400390625 c 0
721.868164062 168.20703125 m 0
 794.520507812 312.138671875 747.635742188 490.428710938 626.90625 569.165039062 c 0
 497.861328125 653.325195312 338.243164062 598.809570312 269.3359375 460.993164062 c 0
 196.80078125 317.291992188 243.381835938 138.893554688 364.296875 60.03515625 c 0
 493.342773438 -24.125 652.959960938 30.390625 721.868164062 168.20703125 c 0
-20.1982421875 -220.599609375 m 1
 1020.60253906 -220.599609375 l 1
 1020.60253906 820.200195312 l 1
 -20.1982421875 820.200195312 l 1
 -20.1982421875 -220.599609375 l 1
1020.20214844 -220.19921875 m 1
 -19.7978515625 -220.19921875 l 1
 -19.7978515625 819.799804688 l 1
 1020.20214844 819.799804688 l 1
 1020.20214844 -220.19921875 l 1
1000.00195312 820 m 0
 0.001953125 820 0.001953125 820 0.001953125 820 c 2
 -11.0361328125 820 -19.998046875 811.038085938 -19.998046875 800 c 2
 -19.998046875 -200 l 2
 -19.998046875 -211.038085938 -11.0361328125 -220 0.001953125 -220 c 2
 1000.00195312 -220 l 2
 1011.04003906 -220 1020.00195312 -211.038085938 1020.00195312 -200 c 2
 1020.00195312 800 l 2
 1020.00195312 811.038085938 1011.04003906 820 1000.00195312 820 c 0
20.001953125 780 m 1
 980.001953125 780 l 1
 980.001953125 -180 l 1
 20.001953125 -180 l 1
 20.001953125 780 l 1
EndSplineSet
EndChar

StartChar: uniE003
Encoding: 57347 57347 7
Width: 1000
Flags: H
LayerCount: 2
Fore
SplineSet
74.2021484375 619.399414062 m 1
 916.602539062 619.399414062 l 1
 916.602539062 660.200195312 l 1
 74.2021484375 660.200195312 l 1
 74.2021484375 619.399414062 l 1
916.202148438 619.799804688 m 1
 74.6025390625 619.799804688 l 1
 74.6025390625 659.799804688 l 1
 916.202148438 659.799804688 l 1
 916.202148438 619.799804688 l 1
94.40234375 660 m 1
 94.40234375 620 l 1
 896.001953125 620 l 1
 896.001953125 660 l 1
 94.40234375 660 l 1
74.2021484375 -29 m 1
 916.602539062 -29 l 1
 916.602539062 11.80078125 l 1
 74.2021484375 11.80078125 l 1
 74.2021484375 -29 l 1
916.202148438 -28.599609375 m 1
 74.6025390625 -28.599609375 l 1
 74.6025390625 11.400390625 l 1
 916.202148438 11.400390625 l 1
 916.202148438 -28.599609375 l 1
94.40234375 11.6005859375 m 1
 94.40234375 -28.3994140625 l 1
 896.001953125 -28.3994140625 l 1
 896.001953125 11.6005859375 l 1
 94.40234375 11.6005859375 l 1
74.2021484375 -29.400390625 m 1
 916.602539062 -29.400390625 l 1
 916.602539062 660.200195312 l 1
 74.2021484375 660.200195312 l 1
 74.2021484375 -29.400390625 l 1
916.202148438 -29 m 1
 74.6025390625 -29 l 1
 74.6025390625 659.799804688 l 1
 916.202148438 659.799804688 l 1
 916.202148438 -29 l 1
81.8330078125 6.7529296875 m 1
 106.971679688 -24.3525390625 l 1
 908.571289062 624.447265625 l 1
 883.432617188 655.552734375 l 1
 81.8330078125 6.7529296875 l 1
234.6015625 19.400390625 m 1
 757.001953125 19.400390625 l 1
 757.001953125 609.400390625 l 1
 234.6015625 609.400390625 l 1
 234.6015625 19.400390625 l 1
756.6015625 19.80078125 m 1
 235.001953125 19.80078125 l 1
 235.001953125 609 l 1
 756.6015625 609 l 1
 756.6015625 19.80078125 l 1
274.801757812 314.400390625 m 0
 274.801757812 454.680664062 373.576171875 569.200195312 495.6015625 569.200195312 c 0
 533.885742188 569.200195312 571.307617188 557.672851562 605.09765625 535.635742188 c 0
 638.692382812 513.7265625 666.780273438 481.719726562 686.1015625 443.075195312 c 0
 749.854492188 316.774414062 708.235351562 160.828125 605.09765625 93.564453125 c 0
 571.307617188 71.52734375 533.885742188 60 495.6015625 60 c 0
 457.318359375 60 419.896484375 71.52734375 386.106445312 93.564453125 c 0
 352.51171875 115.473632812 324.423828125 147.481445312 305.102539062 186.125 c 0
 285.334960938 225.286132812 274.801757812 269.555664062 274.801757812 314.400390625 c 0
721.868164062 168.20703125 m 0
 794.520507812 312.138671875 747.635742188 490.428710938 626.90625 569.165039062 c 0
 497.861328125 653.325195312 338.243164062 598.809570312 269.3359375 460.993164062 c 0
 196.80078125 317.291992188 243.381835938 138.893554688 364.296875 60.03515625 c 0
 493.342773438 -24.125 652.959960938 30.390625 721.868164062 168.20703125 c 0
-20.1982421875 -220.599609375 m 1
 1020.60253906 -220.599609375 l 1
 1020.60253906 820.200195312 l 1
 -20.1982421875 820.200195312 l 1
 -20.1982421875 -220.599609375 l 1
1020.20214844 -220.19921875 m 1
 -19.7978515625 -220.19921875 l 1
 -19.7978515625 819.799804688 l 1
 1020.20214844 819.799804688 l 1
 1020.20214844 -220.19921875 l 1
1000.00195312 820 m 0
 0.001953125 820 0.001953125 820 0.001953125 820 c 2
 -11.0361328125 820 -19.998046875 811.038085938 -19.998046875 800 c 2
 -19.998046875 -200 l 2
 -19.998046875 -211.038085938 -11.0361328125 -220 0.001953125 -220 c 2
 1000.00195312 -220 l 2
 1011.04003906 -220 1020.00195312 -211.038085938 1020.00195312 -200 c 2
 1020.00195312 800 l 2
 1020.00195312 811.038085938 1011.04003906 820 1000.00195312 820 c 0
20.001953125 780 m 1
 980.001953125 780 l 1
 980.001953125 -180 l 1
 20.001953125 -180 l 1
 20.001953125 780 l 1
EndSplineSet
EndChar

StartChar: T
Encoding: 84 84 8
Width: 1000
Flags: H
LayerCount: 2
Fore
SplineSet
56.9990234375 662.200195312 m 1
 888.599609375 662.200195312 l 1
 888.599609375 703 l 1
 56.9990234375 703 l 1
 56.9990234375 662.200195312 l 1
888.19921875 662.600585938 m 1
 57.3994140625 662.600585938 l 1
 57.3994140625 702.599609375 l 1
 888.19921875 702.599609375 l 1
 888.19921875 662.600585938 l 1
77.19921875 702.799804688 m 1
 77.19921875 662.799804688 l 1
 868 662.799804688 l 1
 868 702.799804688 l 1
 77.19921875 702.799804688 l 1
83.3994140625 -132.599609375 m 1
 124.200195312 -132.599609375 l 1
 124.200195312 729.400390625 l 1
 83.3994140625 729.400390625 l 1
 83.3994140625 -132.599609375 l 1
123.799804688 -132.19921875 m 1
 83.7998046875 -132.19921875 l 1
 83.7998046875 729 l 1
 123.799804688 729 l 1
 123.799804688 -132.19921875 l 1
83.599609375 -112 m 1
 123.599609375 -112 l 1
 123.599609375 709.200195312 l 1
 83.599609375 709.200195312 l 1
 83.599609375 -112 l 1
109.799804688 -159.400390625 m 1
 941.799804688 -159.400390625 l 1
 941.799804688 703 l 1
 109.799804688 703 l 1
 109.799804688 -159.400390625 l 1
941.399414062 -159 m 1
 110.200195312 -159 l 1
 110.200195312 702.599609375 l 1
 941.399414062 702.599609375 l 1
 941.399414062 -159 l 1
144.405273438 696.66796875 m 1
 115.594726562 668.931640625 l 1
 906.793945312 -152.66796875 l 1
 935.604492188 -124.931640625 l 1
 144.405273438 696.66796875 l 1
-20.2001953125 -220.599609375 m 1
 1020.59960938 -220.599609375 l 1
 1020.59960938 820.200195312 l 1
 -20.2001953125 820.200195312 l 1
 -20.2001953125 -220.599609375 l 1
1020.19921875 -220.19921875 m 1
 -19.7998046875 -220.19921875 l 1
 -19.7998046875 819.799804688 l 1
 1020.19921875 819.799804688 l 1
 1020.19921875 -220.19921875 l 1
-0 -220 m 0
 1000 -220 1000 -220 1000 -220 c 2
 1011.03808594 -220 1020 -211.038085938 1020 -200 c 2
 1020 800 l 2
 1020 811.038085938 1011.03808594 820 1000 820 c 2
 -0 820 l 2
 -11.0380859375 820 -20 811.038085938 -20 800 c 2
 -20 -200 l 2
 -20 -211.038085938 -11.0380859375 -220 -0 -220 c 0
980 -180 m 1
 20 -180 l 1
 20 780 l 1
 980 780 l 1
 980 -180 l 1
EndSplineSet
EndChar

StartChar: uniE004
Encoding: 57348 57348 9
Width: 1000
Flags: H
LayerCount: 2
Fore
SplineSet
56.9990234375 662.200195312 m 1
 888.599609375 662.200195312 l 1
 888.599609375 703 l 1
 56.9990234375 703 l 1
 56.9990234375 662.200195312 l 1
888.19921875 662.600585938 m 1
 57.3994140625 662.600585938 l 1
 57.3994140625 702.599609375 l 1
 888.19921875 702.599609375 l 1
 888.19921875 662.600585938 l 1
77.19921875 702.799804688 m 1
 77.19921875 662.799804688 l 1
 868 662.799804688 l 1
 868 702.799804688 l 1
 77.19921875 702.799804688 l 1
83.3994140625 -132.599609375 m 1
 124.200195312 -132.599609375 l 1
 124.200195312 729.400390625 l 1
 83.3994140625 729.400390625 l 1
 83.3994140625 -132.599609375 l 1
123.799804688 -132.19921875 m 1
 83.7998046875 -132.19921875 l 1
 83.7998046875 729 l 1
 123.799804688 729 l 1
 123.799804688 -132.19921875 l 1
83.599609375 -112 m 1
 123.599609375 -112 l 1
 123.599609375 709.200195312 l 1
 83.599609375 709.200195312 l 1
 83.599609375 -112 l 1
109.799804688 -159.400390625 m 1
 941.799804688 -159.400390625 l 1
 941.799804688 703 l 1
 109.799804688 703 l 1
 109.799804688 -159.400390625 l 1
941.399414062 -159 m 1
 110.200195312 -159 l 1
 110.200195312 702.599609375 l 1
 941.399414062 702.599609375 l 1
 941.399414062 -159 l 1
144.405273438 696.66796875 m 1
 115.594726562 668.931640625 l 1
 906.793945312 -152.66796875 l 1
 935.604492188 -124.931640625 l 1
 144.405273438 696.66796875 l 1
-20.2001953125 -220.599609375 m 1
 1020.59960938 -220.599609375 l 1
 1020.59960938 820.200195312 l 1
 -20.2001953125 820.200195312 l 1
 -20.2001953125 -220.599609375 l 1
1020.19921875 -220.19921875 m 1
 -19.7998046875 -220.19921875 l 1
 -19.7998046875 819.799804688 l 1
 1020.19921875 819.799804688 l 1
 1020.19921875 -220.19921875 l 1
-0 -220 m 0
 1000 -220 1000 -220 1000 -220 c 2
 1011.03808594 -220 1020 -211.038085938 1020 -200 c 2
 1020 800 l 2
 1020 811.038085938 1011.03808594 820 1000 820 c 2
 -0 820 l 2
 -11.0380859375 820 -20 811.038085938 -20 800 c 2
 -20 -200 l 2
 -20 -211.038085938 -11.0380859375 -220 -0 -220 c 0
980 -180 m 1
 20 -180 l 1
 20 780 l 1
 980 780 l 1
 980 -180 l 1
EndSplineSet
EndChar

StartChar: d
Encoding: 100 100 10
Width: 1000
Flags: H
LayerCount: 2
Fore
SplineSet
84.9990234375 -171.799804688 m 1
 125.799804688 -171.799804688 l 1
 125.799804688 690.200195312 l 1
 84.9990234375 690.200195312 l 1
 84.9990234375 -171.799804688 l 1
125.399414062 -171.399414062 m 1
 85.3994140625 -171.399414062 l 1
 85.3994140625 689.799804688 l 1
 125.399414062 689.799804688 l 1
 125.399414062 -171.399414062 l 1
85.19921875 -151.200195312 m 1
 125.19921875 -151.200195312 l 1
 125.19921875 670 l 1
 85.19921875 670 l 1
 85.19921875 -151.200195312 l 1
59.7998046875 -145 m 1
 891.399414062 -145 l 1
 891.399414062 -104.19921875 l 1
 59.7998046875 -104.19921875 l 1
 59.7998046875 -145 l 1
890.999023438 -144.599609375 m 1
 60.2001953125 -144.599609375 l 1
 60.2001953125 -104.599609375 l 1
 890.999023438 -104.599609375 l 1
 890.999023438 -144.599609375 l 1
870.799804688 -144.399414062 m 1
 870.799804688 -104.399414062 l 1
 80 -104.399414062 l 1
 80 -144.399414062 l 1
 870.799804688 -144.399414062 l 1
56.9990234375 -148.599609375 m 1
 889 -148.599609375 l 1
 889 713.799804688 l 1
 56.9990234375 713.799804688 l 1
 56.9990234375 -148.599609375 l 1
888.599609375 -148.19921875 m 1
 57.3994140625 -148.19921875 l 1
 57.3994140625 713.399414062 l 1
 888.599609375 713.399414062 l 1
 888.599609375 -148.19921875 l 1
882.8046875 679.731445312 m 1
 853.998046875 707.47265625 l 1
 62.7939453125 -114.131835938 l 1
 91.6005859375 -141.872070312 l 1
 882.8046875 679.731445312 l 1
-20.2001953125 -220.599609375 m 1
 1020.59960938 -220.599609375 l 1
 1020.59960938 820.200195312 l 1
 -20.2001953125 820.200195312 l 1
 -20.2001953125 -220.599609375 l 1
1020.19921875 -220.19921875 m 1
 -19.7998046875 -220.19921875 l 1
 -19.7998046875 819.799804688 l 1
 1020.19921875 819.799804688 l 1
 1020.19921875 -220.19921875 l 1
-0 -220 m 0
 1000 -220 1000 -220 1000 -220 c 2
 1011.03808594 -220 1020 -211.038085938 1020 -200 c 2
 1020 800 l 2
 1020 811.038085938 1011.03808594 820 1000 820 c 2
 -0 820 l 2
 -11.0380859375 820 -20 811.038085938 -20 800 c 2
 -20 -200 l 2
 -20 -211.038085938 -11.0380859375 -220 -0 -220 c 0
980 -180 m 1
 20 -180 l 1
 20 780 l 1
 980 780 l 1
 980 -180 l 1
EndSplineSet
EndChar

StartChar: uniE005
Encoding: 57349 57349 11
Width: 1000
Flags: H
LayerCount: 2
Fore
SplineSet
84.9990234375 -171.799804688 m 1
 125.799804688 -171.799804688 l 1
 125.799804688 690.200195312 l 1
 84.9990234375 690.200195312 l 1
 84.9990234375 -171.799804688 l 1
125.399414062 -171.399414062 m 1
 85.3994140625 -171.399414062 l 1
 85.3994140625 689.799804688 l 1
 125.399414062 689.799804688 l 1
 125.399414062 -171.399414062 l 1
85.19921875 -151.200195312 m 1
 125.19921875 -151.200195312 l 1
 125.19921875 670 l 1
 85.19921875 670 l 1
 85.19921875 -151.200195312 l 1
59.7998046875 -145 m 1
 891.399414062 -145 l 1
 891.399414062 -104.19921875 l 1
 59.7998046875 -104.19921875 l 1
 59.7998046875 -145 l 1
890.999023438 -144.599609375 m 1
 60.2001953125 -144.599609375 l 1
 60.2001953125 -104.599609375 l 1
 890.999023438 -104.599609375 l 1
 890.999023438 -144.599609375 l 1
870.799804688 -144.399414062 m 1
 870.799804688 -104.399414062 l 1
 80 -104.399414062 l 1
 80 -144.399414062 l 1
 870.799804688 -144.399414062 l 1
56.9990234375 -148.599609375 m 1
 889 -148.599609375 l 1
 889 713.799804688 l 1
 56.9990234375 713.799804688 l 1
 56.9990234375 -148.599609375 l 1
888.599609375 -148.19921875 m 1
 57.3994140625 -148.19921875 l 1
 57.3994140625 713.399414062 l 1
 888.599609375 713.399414062 l 1
 888.599609375 -148.19921875 l 1
882.8046875 679.731445312 m 1
 853.998046875 707.47265625 l 1
 62.7939453125 -114.131835938 l 1
 91.6005859375 -141.872070312 l 1
 882.8046875 679.731445312 l 1
-20.2001953125 -220.599609375 m 1
 1020.59960938 -220.599609375 l 1
 1020.59960938 820.200195312 l 1
 -20.2001953125 820.200195312 l 1
 -20.2001953125 -220.599609375 l 1
1020.19921875 -220.19921875 m 1
 -19.7998046875 -220.19921875 l 1
 -19.7998046875 819.799804688 l 1
 1020.19921875 819.799804688 l 1
 1020.19921875 -220.19921875 l 1
-0 -220 m 0
 1000 -220 1000 -220 1000 -220 c 2
 1011.03808594 -220 1020 -211.038085938 1020 -200 c 2
 1020 800 l 2
 1020 811.038085938 1011.03808594 820 1000 820 c 2
 -0 820 l 2
 -11.0380859375 820 -20 811.038085938 -20 800 c 2
 -20 -200 l 2
 -20 -211.038085938 -11.0380859375 -220 -0 -220 c 0
980 -180 m 1
 20 -180 l 1
 20 780 l 1
 980 780 l 1
 980 -180 l 1
EndSplineSet
EndChar

StartChar: D
Encoding: 68 68 12
Width: 1000
Flags: H
LayerCount: 2
Fore
SplineSet
102.19921875 -132.599609375 m 1
 143 -132.599609375 l 1
 143 729.400390625 l 1
 102.19921875 729.400390625 l 1
 102.19921875 -132.599609375 l 1
142.599609375 -132.19921875 m 1
 102.599609375 -132.19921875 l 1
 102.599609375 729 l 1
 142.599609375 729 l 1
 142.599609375 -132.19921875 l 1
102.399414062 -112 m 1
 142.399414062 -112 l 1
 142.399414062 709.200195312 l 1
 102.399414062 709.200195312 l 1
 102.399414062 -112 l 1
76.19921875 -105.400390625 m 1
 907.799804688 -105.400390625 l 1
 907.799804688 -64.599609375 l 1
 76.19921875 -64.599609375 l 1
 76.19921875 -105.400390625 l 1
907.399414062 -105 m 1
 76.599609375 -105 l 1
 76.599609375 -65 l 1
 907.399414062 -65 l 1
 907.399414062 -105 l 1
887.19921875 -104.799804688 m 1
 887.19921875 -64.7998046875 l 1
 96.3994140625 -64.7998046875 l 1
 96.3994140625 -104.799804688 l 1
 887.19921875 -104.799804688 l 1
-20.2001953125 -220.599609375 m 1
 1020.59960938 -220.599609375 l 1
 1020.59960938 820.200195312 l 1
 -20.2001953125 820.200195312 l 1
 -20.2001953125 -220.599609375 l 1
1020.19921875 -220.19921875 m 1
 -19.7998046875 -220.19921875 l 1
 -19.7998046875 819.799804688 l 1
 1020.19921875 819.799804688 l 1
 1020.19921875 -220.19921875 l 1
-0 -220 m 0
 1000 -220 1000 -220 1000 -220 c 2
 1011.03808594 -220 1020 -211.038085938 1020 -200 c 2
 1020 800 l 2
 1020 811.038085938 1011.03808594 820 1000 820 c 2
 -0 820 l 2
 -11.0380859375 820 -20 811.038085938 -20 800 c 2
 -20 -200 l 2
 -20 -211.038085938 -11.0380859375 -220 -0 -220 c 0
980 -180 m 1
 20 -180 l 1
 20 780 l 1
 980 780 l 1
 980 -180 l 1
EndSplineSet
EndChar

StartChar: uniE006
Encoding: 57350 57350 13
Width: 1000
Flags: H
LayerCount: 2
Fore
SplineSet
102.19921875 -132.599609375 m 1
 143 -132.599609375 l 1
 143 729.400390625 l 1
 102.19921875 729.400390625 l 1
 102.19921875 -132.599609375 l 1
142.599609375 -132.19921875 m 1
 102.599609375 -132.19921875 l 1
 102.599609375 729 l 1
 142.599609375 729 l 1
 142.599609375 -132.19921875 l 1
102.399414062 -112 m 1
 142.399414062 -112 l 1
 142.399414062 709.200195312 l 1
 102.399414062 709.200195312 l 1
 102.399414062 -112 l 1
76.19921875 -105.400390625 m 1
 907.799804688 -105.400390625 l 1
 907.799804688 -64.599609375 l 1
 76.19921875 -64.599609375 l 1
 76.19921875 -105.400390625 l 1
907.399414062 -105 m 1
 76.599609375 -105 l 1
 76.599609375 -65 l 1
 907.399414062 -65 l 1
 907.399414062 -105 l 1
887.19921875 -104.799804688 m 1
 887.19921875 -64.7998046875 l 1
 96.3994140625 -64.7998046875 l 1
 96.3994140625 -104.799804688 l 1
 887.19921875 -104.799804688 l 1
-20.2001953125 -220.599609375 m 1
 1020.59960938 -220.599609375 l 1
 1020.59960938 820.200195312 l 1
 -20.2001953125 820.200195312 l 1
 -20.2001953125 -220.599609375 l 1
1020.19921875 -220.19921875 m 1
 -19.7998046875 -220.19921875 l 1
 -19.7998046875 819.799804688 l 1
 1020.19921875 819.799804688 l 1
 1020.19921875 -220.19921875 l 1
-0 -220 m 0
 1000 -220 1000 -220 1000 -220 c 2
 1011.03808594 -220 1020 -211.038085938 1020 -200 c 2
 1020 800 l 2
 1020 811.038085938 1011.03808594 820 1000 820 c 2
 -0 820 l 2
 -11.0380859375 820 -20 811.038085938 -20 800 c 2
 -20 -200 l 2
 -20 -211.038085938 -11.0380859375 -220 -0 -220 c 0
980 -180 m 1
 20 -180 l 1
 20 780 l 1
 980 780 l 1
 980 -180 l 1
EndSplineSet
EndChar

StartChar: r
Encoding: 114 114 14
Width: 1000
Flags: H
LayerCount: 2
Fore
SplineSet
815.799804688 -114.599609375 m 1
 856.600585938 -114.599609375 l 1
 856.600585938 674.200195312 l 1
 815.799804688 674.200195312 l 1
 815.799804688 -114.599609375 l 1
856.200195312 -114.19921875 m 1
 816.200195312 -114.19921875 l 1
 816.200195312 673.799804688 l 1
 856.200195312 673.799804688 l 1
 856.200195312 -114.19921875 l 1
816 -94 m 1
 856 -94 l 1
 856 654 l 1
 816 654 l 1
 816 -94 l 1
151.799804688 -89.7998046875 m 1
 879 -89.7998046875 l 1
 879 -48.9990234375 l 1
 151.799804688 -48.9990234375 l 1
 151.799804688 -89.7998046875 l 1
878.599609375 -89.3994140625 m 1
 152.200195312 -89.3994140625 l 1
 152.200195312 -49.3994140625 l 1
 878.599609375 -49.3994140625 l 1
 878.599609375 -89.3994140625 l 1
172 -49.19921875 m 1
 172 -89.19921875 l 1
 858.400390625 -89.19921875 l 1
 858.400390625 -49.19921875 l 1
 172 -49.19921875 l 1
152.200195312 608.599609375 m 1
 879.400390625 608.599609375 l 1
 879.400390625 649.400390625 l 1
 152.200195312 649.400390625 l 1
 152.200195312 608.599609375 l 1
879 609 m 1
 152.600585938 609 l 1
 152.600585938 649 l 1
 879 649 l 1
 879 609 l 1
172.400390625 649.200195312 m 1
 172.400390625 609.200195312 l 1
 858.799804688 609.200195312 l 1
 858.799804688 649.200195312 l 1
 172.400390625 649.200195312 l 1
151.799804688 259 m 1
 879 259 l 1
 879 299.80078125 l 1
 151.799804688 299.80078125 l 1
 151.799804688 259 l 1
878.599609375 259.400390625 m 1
 152.200195312 259.400390625 l 1
 152.200195312 299.400390625 l 1
 878.599609375 299.400390625 l 1
 878.599609375 259.400390625 l 1
172 299.600585938 m 1
 172 259.600585938 l 1
 858.400390625 259.600585938 l 1
 858.400390625 299.600585938 l 1
 172 299.600585938 l 1
-20.2001953125 -220.599609375 m 1
 1020.60058594 -220.599609375 l 1
 1020.60058594 820.200195312 l 1
 -20.2001953125 820.200195312 l 1
 -20.2001953125 -220.599609375 l 1
1020.20019531 -220.19921875 m 1
 -19.7998046875 -220.19921875 l 1
 -19.7998046875 819.799804688 l 1
 1020.20019531 819.799804688 l 1
 1020.20019531 -220.19921875 l 1
0 820 m 2
 -11.0380859375 820 -20 811.038085938 -20 800 c 2
 -20 -200 l 2
 -20 -211.038085938 -11.0380859375 -220 0 -220 c 2
 1000 -220 l 2
 1011.03808594 -220 1020 -211.038085938 1020 -200 c 2
 1020 800 l 2
 1020 811.038085938 1011.03808594 820 1000 820 c 2
 0 820 l 2
20 780 m 1
 980 780 l 1
 980 -180 l 1
 20 -180 l 1
 20 780 l 1
EndSplineSet
EndChar

StartChar: uniE007
Encoding: 57351 57351 15
Width: 1000
Flags: H
LayerCount: 2
Fore
SplineSet
815.799804688 -114.599609375 m 1
 856.600585938 -114.599609375 l 1
 856.600585938 674.200195312 l 1
 815.799804688 674.200195312 l 1
 815.799804688 -114.599609375 l 1
856.200195312 -114.19921875 m 1
 816.200195312 -114.19921875 l 1
 816.200195312 673.799804688 l 1
 856.200195312 673.799804688 l 1
 856.200195312 -114.19921875 l 1
816 -94 m 1
 856 -94 l 1
 856 654 l 1
 816 654 l 1
 816 -94 l 1
151.799804688 -89.7998046875 m 1
 879 -89.7998046875 l 1
 879 -48.9990234375 l 1
 151.799804688 -48.9990234375 l 1
 151.799804688 -89.7998046875 l 1
878.599609375 -89.3994140625 m 1
 152.200195312 -89.3994140625 l 1
 152.200195312 -49.3994140625 l 1
 878.599609375 -49.3994140625 l 1
 878.599609375 -89.3994140625 l 1
172 -49.19921875 m 1
 172 -89.19921875 l 1
 858.400390625 -89.19921875 l 1
 858.400390625 -49.19921875 l 1
 172 -49.19921875 l 1
152.200195312 608.599609375 m 1
 879.400390625 608.599609375 l 1
 879.400390625 649.400390625 l 1
 152.200195312 649.400390625 l 1
 152.200195312 608.599609375 l 1
879 609 m 1
 152.600585938 609 l 1
 152.600585938 649 l 1
 879 649 l 1
 879 609 l 1
172.400390625 649.200195312 m 1
 172.400390625 609.200195312 l 1
 858.799804688 609.200195312 l 1
 858.799804688 649.200195312 l 1
 172.400390625 649.200195312 l 1
151.799804688 259 m 1
 879 259 l 1
 879 299.80078125 l 1
 151.799804688 299.80078125 l 1
 151.799804688 259 l 1
878.599609375 259.400390625 m 1
 152.200195312 259.400390625 l 1
 152.200195312 299.400390625 l 1
 878.599609375 299.400390625 l 1
 878.599609375 259.400390625 l 1
172 299.600585938 m 1
 172 259.600585938 l 1
 858.400390625 259.600585938 l 1
 858.400390625 299.600585938 l 1
 172 299.600585938 l 1
-20.2001953125 -220.599609375 m 1
 1020.60058594 -220.599609375 l 1
 1020.60058594 820.200195312 l 1
 -20.2001953125 820.200195312 l 1
 -20.2001953125 -220.599609375 l 1
1020.20019531 -220.19921875 m 1
 -19.7998046875 -220.19921875 l 1
 -19.7998046875 819.799804688 l 1
 1020.20019531 819.799804688 l 1
 1020.20019531 -220.19921875 l 1
0 820 m 2
 -11.0380859375 820 -20 811.038085938 -20 800 c 2
 -20 -200 l 2
 -20 -211.038085938 -11.0380859375 -220 0 -220 c 2
 1000 -220 l 2
 1011.03808594 -220 1020 -211.038085938 1020 -200 c 2
 1020 800 l 2
 1020 811.038085938 1011.03808594 820 1000 820 c 2
 0 820 l 2
20 780 m 1
 980 780 l 1
 980 -180 l 1
 20 -180 l 1
 20 780 l 1
EndSplineSet
EndChar

StartChar: R
Encoding: 82 82 16
Width: 1000
Flags: H
LayerCount: 2
Fore
SplineSet
155.000976562 -131.799804688 m 1
 195.80078125 -131.799804688 l 1
 195.80078125 710.600585938 l 1
 155.000976562 710.600585938 l 1
 155.000976562 -131.799804688 l 1
195.400390625 -131.399414062 m 1
 155.401367188 -131.399414062 l 1
 155.401367188 710.200195312 l 1
 195.400390625 710.200195312 l 1
 195.400390625 -131.399414062 l 1
155.201171875 -111.200195312 m 1
 195.201171875 -111.200195312 l 1
 195.201171875 690.400390625 l 1
 155.201171875 690.400390625 l 1
 155.201171875 -111.200195312 l 1
803.000976562 -131.799804688 m 1
 843.80078125 -131.799804688 l 1
 843.80078125 710.600585938 l 1
 803.000976562 710.600585938 l 1
 803.000976562 -131.799804688 l 1
843.400390625 -131.399414062 m 1
 803.401367188 -131.399414062 l 1
 803.401367188 710.200195312 l 1
 843.400390625 710.200195312 l 1
 843.400390625 -131.399414062 l 1
803.201171875 -111.200195312 m 1
 843.201171875 -111.200195312 l 1
 843.201171875 690.400390625 l 1
 803.201171875 690.400390625 l 1
 803.201171875 -111.200195312 l 1
154.600585938 -131.799804688 m 1
 844.600585938 -131.799804688 l 1
 844.600585938 710.600585938 l 1
 154.600585938 710.600585938 l 1
 154.600585938 -131.799804688 l 1
844.200195312 -131.399414062 m 1
 155.000976562 -131.399414062 l 1
 155.000976562 710.200195312 l 1
 844.200195312 710.200195312 l 1
 844.200195312 -131.399414062 l 1
808.448242188 -123.76953125 m 1
 839.553710938 -98.630859375 l 1
 190.75390625 702.969726562 l 1
 159.6484375 677.831054688 l 1
 808.448242188 -123.76953125 l 1
-20.19921875 -220.599609375 m 1
 1020.60058594 -220.599609375 l 1
 1020.60058594 820.200195312 l 1
 -20.19921875 820.200195312 l 1
 -20.19921875 -220.599609375 l 1
1020.20019531 -220.19921875 m 1
 -19.798828125 -220.19921875 l 1
 -19.798828125 819.799804688 l 1
 1020.20019531 819.799804688 l 1
 1020.20019531 -220.19921875 l 1
1020.00097656 -200 m 0
 1020.00097656 800 1020.00097656 800 1020.00097656 800 c 2
 1020.00097656 811.038085938 1011.0390625 820 1000.00097656 820 c 2
 0.0009765625 820 l 2
 -11.037109375 820 -19.9990234375 811.038085938 -19.9990234375 800 c 2
 -19.9990234375 -200 l 2
 -19.9990234375 -211.038085938 -11.037109375 -220 0.0009765625 -220 c 2
 1000.00097656 -220 l 2
 1011.0390625 -220 1020.00097656 -211.038085938 1020.00097656 -200 c 0
980.000976562 780 m 1
 980.000976562 -180 l 1
 20.0009765625 -180 l 1
 20.0009765625 780 l 1
 980.000976562 780 l 1
EndSplineSet
EndChar

StartChar: uniE008
Encoding: 57352 57352 17
Width: 1000
Flags: H
LayerCount: 2
Fore
SplineSet
155.000976562 -131.799804688 m 1
 195.80078125 -131.799804688 l 1
 195.80078125 710.600585938 l 1
 155.000976562 710.600585938 l 1
 155.000976562 -131.799804688 l 1
195.400390625 -131.399414062 m 1
 155.401367188 -131.399414062 l 1
 155.401367188 710.200195312 l 1
 195.400390625 710.200195312 l 1
 195.400390625 -131.399414062 l 1
155.201171875 -111.200195312 m 1
 195.201171875 -111.200195312 l 1
 195.201171875 690.400390625 l 1
 155.201171875 690.400390625 l 1
 155.201171875 -111.200195312 l 1
803.000976562 -131.799804688 m 1
 843.80078125 -131.799804688 l 1
 843.80078125 710.600585938 l 1
 803.000976562 710.600585938 l 1
 803.000976562 -131.799804688 l 1
843.400390625 -131.399414062 m 1
 803.401367188 -131.399414062 l 1
 803.401367188 710.200195312 l 1
 843.400390625 710.200195312 l 1
 843.400390625 -131.399414062 l 1
803.201171875 -111.200195312 m 1
 843.201171875 -111.200195312 l 1
 843.201171875 690.400390625 l 1
 803.201171875 690.400390625 l 1
 803.201171875 -111.200195312 l 1
154.600585938 -131.799804688 m 1
 844.600585938 -131.799804688 l 1
 844.600585938 710.600585938 l 1
 154.600585938 710.600585938 l 1
 154.600585938 -131.799804688 l 1
844.200195312 -131.399414062 m 1
 155.000976562 -131.399414062 l 1
 155.000976562 710.200195312 l 1
 844.200195312 710.200195312 l 1
 844.200195312 -131.399414062 l 1
808.448242188 -123.76953125 m 1
 839.553710938 -98.630859375 l 1
 190.75390625 702.969726562 l 1
 159.6484375 677.831054688 l 1
 808.448242188 -123.76953125 l 1
-20.19921875 -220.599609375 m 1
 1020.60058594 -220.599609375 l 1
 1020.60058594 820.200195312 l 1
 -20.19921875 820.200195312 l 1
 -20.19921875 -220.599609375 l 1
1020.20019531 -220.19921875 m 1
 -19.798828125 -220.19921875 l 1
 -19.798828125 819.799804688 l 1
 1020.20019531 819.799804688 l 1
 1020.20019531 -220.19921875 l 1
1020.00097656 -200 m 0
 1020.00097656 800 1020.00097656 800 1020.00097656 800 c 2
 1020.00097656 811.038085938 1011.0390625 820 1000.00097656 820 c 2
 0.0009765625 820 l 2
 -11.037109375 820 -19.9990234375 811.038085938 -19.9990234375 800 c 2
 -19.9990234375 -200 l 2
 -19.9990234375 -211.038085938 -11.037109375 -220 0.0009765625 -220 c 2
 1000.00097656 -220 l 2
 1011.0390625 -220 1020.00097656 -211.038085938 1020.00097656 -200 c 0
980.000976562 780 m 1
 980.000976562 -180 l 1
 20.0009765625 -180 l 1
 20.0009765625 780 l 1
 980.000976562 780 l 1
EndSplineSet
EndChar

StartChar: j
Encoding: 106 106 18
Width: 1000
Flags: H
LayerCount: 2
Fore
SplineSet
820.999023438 -101.400390625 m 1
 861.799804688 -101.400390625 l 1
 861.799804688 687.400390625 l 1
 820.999023438 687.400390625 l 1
 820.999023438 -101.400390625 l 1
861.399414062 -101 m 1
 821.399414062 -101 l 1
 821.399414062 687 l 1
 861.399414062 687 l 1
 861.399414062 -101 l 1
861.19921875 667.200195312 m 1
 821.19921875 667.200195312 l 1
 821.19921875 -80.7998046875 l 1
 861.19921875 -80.7998046875 l 1
 861.19921875 667.200195312 l 1
156.599609375 622.599609375 m 1
 884.200195312 622.599609375 l 1
 884.200195312 663.400390625 l 1
 156.599609375 663.400390625 l 1
 156.599609375 622.599609375 l 1
883.799804688 623 m 1
 157 623 l 1
 157 663 l 1
 883.799804688 663 l 1
 883.799804688 623 l 1
176.799804688 663.200195312 m 1
 176.799804688 623.200195312 l 1
 863.599609375 623.200195312 l 1
 863.599609375 663.200195312 l 1
 176.799804688 663.200195312 l 1
156.999023438 -76.2001953125 m 1
 884.599609375 -76.2001953125 l 1
 884.599609375 -35.3994140625 l 1
 156.999023438 -35.3994140625 l 1
 156.999023438 -76.2001953125 l 1
884.19921875 -75.7998046875 m 1
 157.399414062 -75.7998046875 l 1
 157.399414062 -35.7998046875 l 1
 884.19921875 -35.7998046875 l 1
 884.19921875 -75.7998046875 l 1
177.19921875 -35.599609375 m 1
 177.19921875 -75.599609375 l 1
 864 -75.599609375 l 1
 864 -35.599609375 l 1
 177.19921875 -35.599609375 l 1
-20.2001953125 -220.599609375 m 1
 1020.59960938 -220.599609375 l 1
 1020.59960938 820.200195312 l 1
 -20.2001953125 820.200195312 l 1
 -20.2001953125 -220.599609375 l 1
1020.19921875 -220.19921875 m 1
 -19.7998046875 -220.19921875 l 1
 -19.7998046875 819.799804688 l 1
 1020.19921875 819.799804688 l 1
 1020.19921875 -220.19921875 l 1
1000 820 m 0
 -0 820 -0 820 -0 820 c 2
 -11.0380859375 820 -20 811.038085938 -20 800 c 2
 -20 -200 l 2
 -20 -211.038085938 -11.0380859375 -220 -0 -220 c 2
 1000 -220 l 2
 1011.03808594 -220 1020 -211.038085938 1020 -200 c 2
 1020 800 l 2
 1020 811.038085938 1011.03808594 820 1000 820 c 0
20 780 m 1
 980 780 l 1
 980 -180 l 1
 20 -180 l 1
 20 780 l 1
EndSplineSet
EndChar

StartChar: uniE009
Encoding: 57353 57353 19
Width: 1000
Flags: H
LayerCount: 2
Fore
SplineSet
820.999023438 -101.400390625 m 1
 861.799804688 -101.400390625 l 1
 861.799804688 687.400390625 l 1
 820.999023438 687.400390625 l 1
 820.999023438 -101.400390625 l 1
861.399414062 -101 m 1
 821.399414062 -101 l 1
 821.399414062 687 l 1
 861.399414062 687 l 1
 861.399414062 -101 l 1
861.19921875 667.200195312 m 1
 821.19921875 667.200195312 l 1
 821.19921875 -80.7998046875 l 1
 861.19921875 -80.7998046875 l 1
 861.19921875 667.200195312 l 1
156.599609375 622.599609375 m 1
 884.200195312 622.599609375 l 1
 884.200195312 663.400390625 l 1
 156.599609375 663.400390625 l 1
 156.599609375 622.599609375 l 1
883.799804688 623 m 1
 157 623 l 1
 157 663 l 1
 883.799804688 663 l 1
 883.799804688 623 l 1
176.799804688 663.200195312 m 1
 176.799804688 623.200195312 l 1
 863.599609375 623.200195312 l 1
 863.599609375 663.200195312 l 1
 176.799804688 663.200195312 l 1
156.999023438 -76.2001953125 m 1
 884.599609375 -76.2001953125 l 1
 884.599609375 -35.3994140625 l 1
 156.999023438 -35.3994140625 l 1
 156.999023438 -76.2001953125 l 1
884.19921875 -75.7998046875 m 1
 157.399414062 -75.7998046875 l 1
 157.399414062 -35.7998046875 l 1
 884.19921875 -35.7998046875 l 1
 884.19921875 -75.7998046875 l 1
177.19921875 -35.599609375 m 1
 177.19921875 -75.599609375 l 1
 864 -75.599609375 l 1
 864 -35.599609375 l 1
 177.19921875 -35.599609375 l 1
-20.2001953125 -220.599609375 m 1
 1020.59960938 -220.599609375 l 1
 1020.59960938 820.200195312 l 1
 -20.2001953125 820.200195312 l 1
 -20.2001953125 -220.599609375 l 1
1020.19921875 -220.19921875 m 1
 -19.7998046875 -220.19921875 l 1
 -19.7998046875 819.799804688 l 1
 1020.19921875 819.799804688 l 1
 1020.19921875 -220.19921875 l 1
1000 820 m 0
 -0 820 -0 820 -0 820 c 2
 -11.0380859375 820 -20 811.038085938 -20 800 c 2
 -20 -200 l 2
 -20 -211.038085938 -11.0380859375 -220 -0 -220 c 2
 1000 -220 l 2
 1011.03808594 -220 1020 -211.038085938 1020 -200 c 2
 1020 800 l 2
 1020 811.038085938 1011.03808594 820 1000 820 c 0
20 780 m 1
 980 780 l 1
 980 -180 l 1
 20 -180 l 1
 20 780 l 1
EndSplineSet
EndChar

StartChar: c
Encoding: 99 99 20
Width: 1000
Flags: H
LayerCount: 2
Fore
SplineSet
119.399414062 -112.599609375 m 1
 846.599609375 -112.599609375 l 1
 846.599609375 -71.7998046875 l 1
 119.399414062 -71.7998046875 l 1
 119.399414062 -112.599609375 l 1
846.19921875 -112.19921875 m 1
 119.799804688 -112.19921875 l 1
 119.799804688 -72.2001953125 l 1
 846.19921875 -72.2001953125 l 1
 846.19921875 -112.19921875 l 1
826 -112 m 1
 826 -72 l 1
 139.599609375 -72 l 1
 139.599609375 -112 l 1
 826 -112 l 1
783.799804688 -137.400390625 m 1
 824.599609375 -137.400390625 l 1
 824.599609375 651.400390625 l 1
 783.799804688 651.400390625 l 1
 783.799804688 -137.400390625 l 1
824.19921875 -137 m 1
 784.200195312 -137 l 1
 784.200195312 651 l 1
 824.19921875 651 l 1
 824.19921875 -137 l 1
824 631.200195312 m 1
 784 631.200195312 l 1
 784 -116.799804688 l 1
 824 -116.799804688 l 1
 824 631.200195312 l 1
142.599609375 -138.200195312 m 1
 183.399414062 -138.200195312 l 1
 183.399414062 650.600585938 l 1
 142.599609375 650.600585938 l 1
 142.599609375 -138.200195312 l 1
182.999023438 -137.799804688 m 1
 143 -137.799804688 l 1
 143 650.200195312 l 1
 182.999023438 650.200195312 l 1
 182.999023438 -137.799804688 l 1
182.799804688 630.400390625 m 1
 142.799804688 630.400390625 l 1
 142.799804688 -117.599609375 l 1
 182.799804688 -117.599609375 l 1
 182.799804688 630.400390625 l 1
463.399414062 -137.400390625 m 1
 504.200195312 -137.400390625 l 1
 504.200195312 651.400390625 l 1
 463.399414062 651.400390625 l 1
 463.399414062 -137.400390625 l 1
503.799804688 -137 m 1
 463.799804688 -137 l 1
 463.799804688 651 l 1
 503.799804688 651 l 1
 503.799804688 -137 l 1
503.599609375 631.200195312 m 1
 463.599609375 631.200195312 l 1
 463.599609375 -116.799804688 l 1
 503.599609375 -116.799804688 l 1
 503.599609375 631.200195312 l 1
-20.2001953125 -220.599609375 m 1
 1020.59960938 -220.599609375 l 1
 1020.59960938 820.200195312 l 1
 -20.2001953125 820.200195312 l 1
 -20.2001953125 -220.599609375 l 1
1020.19921875 -220.19921875 m 1
 -19.7998046875 -220.19921875 l 1
 -19.7998046875 819.799804688 l 1
 1020.19921875 819.799804688 l 1
 1020.19921875 -220.19921875 l 1
1000 820 m 0
 -0 820 -0 820 -0 820 c 2
 -11.0380859375 820 -20 811.038085938 -20 800 c 2
 -20 -200 l 2
 -20 -211.038085938 -11.0380859375 -220 -0 -220 c 2
 1000 -220 l 2
 1011.03808594 -220 1020 -211.038085938 1020 -200 c 2
 1020 800 l 2
 1020 811.038085938 1011.03808594 820 1000 820 c 0
20 780 m 1
 980 780 l 1
 980 -180 l 1
 20 -180 l 1
 20 780 l 1
EndSplineSet
EndChar

StartChar: uniE00A
Encoding: 57354 57354 21
Width: 1000
Flags: H
LayerCount: 2
Fore
SplineSet
119.399414062 -112.599609375 m 1
 846.599609375 -112.599609375 l 1
 846.599609375 -71.7998046875 l 1
 119.399414062 -71.7998046875 l 1
 119.399414062 -112.599609375 l 1
846.19921875 -112.19921875 m 1
 119.799804688 -112.19921875 l 1
 119.799804688 -72.2001953125 l 1
 846.19921875 -72.2001953125 l 1
 846.19921875 -112.19921875 l 1
826 -112 m 1
 826 -72 l 1
 139.599609375 -72 l 1
 139.599609375 -112 l 1
 826 -112 l 1
783.799804688 -137.400390625 m 1
 824.599609375 -137.400390625 l 1
 824.599609375 651.400390625 l 1
 783.799804688 651.400390625 l 1
 783.799804688 -137.400390625 l 1
824.19921875 -137 m 1
 784.200195312 -137 l 1
 784.200195312 651 l 1
 824.19921875 651 l 1
 824.19921875 -137 l 1
824 631.200195312 m 1
 784 631.200195312 l 1
 784 -116.799804688 l 1
 824 -116.799804688 l 1
 824 631.200195312 l 1
142.599609375 -138.200195312 m 1
 183.399414062 -138.200195312 l 1
 183.399414062 650.600585938 l 1
 142.599609375 650.600585938 l 1
 142.599609375 -138.200195312 l 1
182.999023438 -137.799804688 m 1
 143 -137.799804688 l 1
 143 650.200195312 l 1
 182.999023438 650.200195312 l 1
 182.999023438 -137.799804688 l 1
182.799804688 630.400390625 m 1
 142.799804688 630.400390625 l 1
 142.799804688 -117.599609375 l 1
 182.799804688 -117.599609375 l 1
 182.799804688 630.400390625 l 1
463.399414062 -137.400390625 m 1
 504.200195312 -137.400390625 l 1
 504.200195312 651.400390625 l 1
 463.399414062 651.400390625 l 1
 463.399414062 -137.400390625 l 1
503.799804688 -137 m 1
 463.799804688 -137 l 1
 463.799804688 651 l 1
 503.799804688 651 l 1
 503.799804688 -137 l 1
503.599609375 631.200195312 m 1
 463.599609375 631.200195312 l 1
 463.599609375 -116.799804688 l 1
 503.599609375 -116.799804688 l 1
 503.599609375 631.200195312 l 1
-20.2001953125 -220.599609375 m 1
 1020.59960938 -220.599609375 l 1
 1020.59960938 820.200195312 l 1
 -20.2001953125 820.200195312 l 1
 -20.2001953125 -220.599609375 l 1
1020.19921875 -220.19921875 m 1
 -19.7998046875 -220.19921875 l 1
 -19.7998046875 819.799804688 l 1
 1020.19921875 819.799804688 l 1
 1020.19921875 -220.19921875 l 1
1000 820 m 0
 -0 820 -0 820 -0 820 c 2
 -11.0380859375 820 -20 811.038085938 -20 800 c 2
 -20 -200 l 2
 -20 -211.038085938 -11.0380859375 -220 -0 -220 c 2
 1000 -220 l 2
 1011.03808594 -220 1020 -211.038085938 1020 -200 c 2
 1020 800 l 2
 1020 811.038085938 1011.03808594 820 1000 820 c 0
20 780 m 1
 980 780 l 1
 980 -180 l 1
 20 -180 l 1
 20 780 l 1
EndSplineSet
EndChar

StartChar: A
Encoding: 65 65 22
Width: 1000
Flags: H
LayerCount: 2
Fore
SplineSet
125 307.1875 m 1
 851.014648438 307.1875 l 1
 851.014648438 266.329101562 l 1
 125 266.329101562 l 1
 125 307.1875 l 1
125.390625 306.795898438 m 1
 125.390625 266.795898438 l 1
 850.624023438 266.795898438 l 1
 850.624023438 306.795898438 l 1
 125.390625 306.795898438 l 1
145.234375 306.953125 m 1
 830.389648438 306.953125 l 1
 830.389648438 266.954101562 l 1
 145.234375 266.954101562 l 1
 145.234375 306.953125 l 1
788.202148438 691.40625 m 1
 828.983398438 691.40625 l 1
 828.983398438 -97.0302734375 l 1
 788.202148438 -97.0302734375 l 1
 788.202148438 691.40625 l 1
788.594726562 691.015625 m 1
 788.594726562 -96.5615234375 l 1
 828.594726562 -96.5615234375 l 1
 828.594726562 691.015625 l 1
 788.594726562 691.015625 l 1
788.436523438 671.171875 m 1
 828.436523438 671.171875 l 1
 828.436523438 -76.4052734375 l 1
 788.436523438 -76.4052734375 l 1
 788.436523438 671.171875 l 1
147.421875 691.40625 m 1
 188.203125 691.40625 l 1
 188.203125 -97.0302734375 l 1
 147.421875 -97.0302734375 l 1
 147.421875 691.40625 l 1
147.8125 691.015625 m 1
 147.8125 -96.5615234375 l 1
 187.8125 -96.5615234375 l 1
 187.8125 691.015625 l 1
 147.8125 691.015625 l 1
147.578125 671.171875 m 1
 187.578125 671.171875 l 1
 187.578125 -76.4052734375 l 1
 147.578125 -76.4052734375 l 1
 147.578125 671.171875 l 1
-20.234375 820.234375 m 1
 1020.62402344 820.234375 l 1
 1020.62402344 -220.624023438 l 1
 -20.234375 -220.624023438 l 1
 -20.234375 820.234375 l 1
-19.765625 819.765625 m 1
 -19.765625 -220.233398438 l 1
 1020.23339844 -220.233398438 l 1
 1020.23339844 819.765625 l 1
 -19.765625 819.765625 l 1
0 820 m 2
 499.999023438 820 l 1
 999.999023438 820 l 1
 1011.03710938 819.999023438 1019.99804688 811.038085938 1019.99902344 800 c 2
 1019.99902344 -199.999023438 l 1
 1019.99804688 -211.037109375 1011.03710938 -219.998046875 999.999023438 -219.999023438 c 2
 0 -219.999023438 l 1
 -11.0380859375 -219.998046875 -19.9990234375 -211.037109375 -20 -199.999023438 c 2
 -20 800 l 1
 -19.9990234375 811.038085938 -11.0380859375 819.999023438 0 820 c 2
20 780 m 1
 20 -179.999023438 l 1
 979.999023438 -179.999023438 l 1
 979.999023438 780 l 1
 499.999023438 780 l 1
 20 780 l 1
EndSplineSet
EndChar

StartChar: k
Encoding: 107 107 23
Width: 1000
Flags: H
LayerCount: 2
Fore
SplineSet
177 -160.599609375 m 1
 217.799804688 -160.599609375 l 1
 217.799804688 753.400390625 l 1
 177 753.400390625 l 1
 177 -160.599609375 l 1
217.399414062 -160.19921875 m 1
 177.400390625 -160.19921875 l 1
 177.400390625 753 l 1
 217.399414062 753 l 1
 217.399414062 -160.19921875 l 1
177.200195312 -140 m 1
 217.200195312 -140 l 1
 217.200195312 733.200195312 l 1
 177.200195312 733.200195312 l 1
 177.200195312 -140 l 1
772.599609375 -160.599609375 m 1
 813.400390625 -160.599609375 l 1
 813.400390625 753.400390625 l 1
 772.599609375 753.400390625 l 1
 772.599609375 -160.599609375 l 1
813 -160.19921875 m 1
 773 -160.19921875 l 1
 773 753 l 1
 813 753 l 1
 813 -160.19921875 l 1
772.799804688 -140 m 1
 812.799804688 -140 l 1
 812.799804688 733.200195312 l 1
 772.799804688 733.200195312 l 1
 772.799804688 -140 l 1
177 -160.599609375 m 1
 813.400390625 -160.599609375 l 1
 813.400390625 753.400390625 l 1
 177 753.400390625 l 1
 177 -160.599609375 l 1
813 -160.19921875 m 1
 177.400390625 -160.19921875 l 1
 177.400390625 753 l 1
 813 753 l 1
 813 -160.19921875 l 1
776.291015625 -151.288085938 m 1
 809.333984375 -128.75 l 1
 213.708984375 744.48828125 l 1
 180.666015625 721.950195312 l 1
 776.291015625 -151.288085938 l 1
236.19921875 -0.2001953125 m 1
 757.799804688 -0.2001953125 l 1
 757.799804688 589.400390625 l 1
 236.19921875 589.400390625 l 1
 236.19921875 -0.2001953125 l 1
757.399414062 0.2001953125 m 1
 236.599609375 0.2001953125 l 1
 236.599609375 589 l 1
 757.399414062 589 l 1
 757.399414062 0.2001953125 l 1
496.799804688 549.200195312 m 0
 618.211914062 549.200195312 717.200195312 434.649414062 717.200195312 294.799804688 c 0
 717.200195312 156.256835938 619.607421875 40.400390625 496.799804688 40.400390625 c 0
 375.388671875 40.400390625 276.399414062 154.951171875 276.399414062 294.799804688 c 0
 276.399414062 433.344726562 373.9921875 549.200195312 496.799804688 549.200195312 c 0
496.799804688 0.400390625 m 0
 641.270507812 0.400390625 757.200195312 133.32421875 757.200195312 294.799804688 c 0
 757.200195312 345.91796875 745.342773438 396.46875 722.666015625 440.993164062 c 0
 700.388671875 485.51953125 667.772460938 523.033203125 627.788085938 549.110351562 c 0
 588.263671875 575.169921875 542.927734375 589.200195312 496.799804688 589.200195312 c 0
 352.328125 589.200195312 236.399414062 456.276367188 236.399414062 294.799804688 c 0
 236.399414062 243.681640625 248.256835938 193.130859375 270.93359375 148.607421875 c 0
 293.2109375 104.081054688 325.827148438 66.5673828125 365.811523438 40.4912109375 c 0
 405.3359375 14.4306640625 450.671875 0.400390625 496.799804688 0.400390625 c 0
-20.2001953125 -220.599609375 m 1
 1020.59960938 -220.599609375 l 1
 1020.59960938 820.200195312 l 1
 -20.2001953125 820.200195312 l 1
 -20.2001953125 -220.599609375 l 1
1020.19921875 -220.19921875 m 1
 -19.7998046875 -220.19921875 l 1
 -19.7998046875 819.799804688 l 1
 1020.19921875 819.799804688 l 1
 1020.19921875 -220.19921875 l 1
1000 820 m 0
 -0 820 -0 820 -0 820 c 2
 -11.0380859375 820 -20 811.038085938 -20 800 c 2
 -20 -200 l 2
 -20 -211.038085938 -11.0380859375 -220 -0 -220 c 2
 1000 -220 l 2
 1011.03808594 -220 1020 -211.038085938 1020 -200 c 2
 1020 800 l 2
 1020 811.038085938 1011.03808594 820 1000 820 c 0
20 780 m 1
 980 780 l 1
 980 -180 l 1
 20 -180 l 1
 20 780 l 1
EndSplineSet
EndChar

StartChar: uniE00B
Encoding: 57355 57355 24
Width: 1000
Flags: H
LayerCount: 2
Fore
SplineSet
177 -160.599609375 m 1
 217.799804688 -160.599609375 l 1
 217.799804688 753.400390625 l 1
 177 753.400390625 l 1
 177 -160.599609375 l 1
217.399414062 -160.19921875 m 1
 177.400390625 -160.19921875 l 1
 177.400390625 753 l 1
 217.399414062 753 l 1
 217.399414062 -160.19921875 l 1
177.200195312 -140 m 1
 217.200195312 -140 l 1
 217.200195312 733.200195312 l 1
 177.200195312 733.200195312 l 1
 177.200195312 -140 l 1
772.599609375 -160.599609375 m 1
 813.400390625 -160.599609375 l 1
 813.400390625 753.400390625 l 1
 772.599609375 753.400390625 l 1
 772.599609375 -160.599609375 l 1
813 -160.19921875 m 1
 773 -160.19921875 l 1
 773 753 l 1
 813 753 l 1
 813 -160.19921875 l 1
772.799804688 -140 m 1
 812.799804688 -140 l 1
 812.799804688 733.200195312 l 1
 772.799804688 733.200195312 l 1
 772.799804688 -140 l 1
177 -160.599609375 m 1
 813.400390625 -160.599609375 l 1
 813.400390625 753.400390625 l 1
 177 753.400390625 l 1
 177 -160.599609375 l 1
813 -160.19921875 m 1
 177.400390625 -160.19921875 l 1
 177.400390625 753 l 1
 813 753 l 1
 813 -160.19921875 l 1
776.291015625 -151.288085938 m 1
 809.333984375 -128.75 l 1
 213.708984375 744.48828125 l 1
 180.666015625 721.950195312 l 1
 776.291015625 -151.288085938 l 1
236.19921875 -0.2001953125 m 1
 757.799804688 -0.2001953125 l 1
 757.799804688 589.400390625 l 1
 236.19921875 589.400390625 l 1
 236.19921875 -0.2001953125 l 1
757.399414062 0.2001953125 m 1
 236.599609375 0.2001953125 l 1
 236.599609375 589 l 1
 757.399414062 589 l 1
 757.399414062 0.2001953125 l 1
496.799804688 549.200195312 m 0
 618.211914062 549.200195312 717.200195312 434.649414062 717.200195312 294.799804688 c 0
 717.200195312 156.256835938 619.607421875 40.400390625 496.799804688 40.400390625 c 0
 375.388671875 40.400390625 276.399414062 154.951171875 276.399414062 294.799804688 c 0
 276.399414062 433.344726562 373.9921875 549.200195312 496.799804688 549.200195312 c 0
496.799804688 0.400390625 m 0
 641.270507812 0.400390625 757.200195312 133.32421875 757.200195312 294.799804688 c 0
 757.200195312 345.91796875 745.342773438 396.46875 722.666015625 440.993164062 c 0
 700.388671875 485.51953125 667.772460938 523.033203125 627.788085938 549.110351562 c 0
 588.263671875 575.169921875 542.927734375 589.200195312 496.799804688 589.200195312 c 0
 352.328125 589.200195312 236.399414062 456.276367188 236.399414062 294.799804688 c 0
 236.399414062 243.681640625 248.256835938 193.130859375 270.93359375 148.607421875 c 0
 293.2109375 104.081054688 325.827148438 66.5673828125 365.811523438 40.4912109375 c 0
 405.3359375 14.4306640625 450.671875 0.400390625 496.799804688 0.400390625 c 0
-20.2001953125 -220.599609375 m 1
 1020.59960938 -220.599609375 l 1
 1020.59960938 820.200195312 l 1
 -20.2001953125 820.200195312 l 1
 -20.2001953125 -220.599609375 l 1
1020.19921875 -220.19921875 m 1
 -19.7998046875 -220.19921875 l 1
 -19.7998046875 819.799804688 l 1
 1020.19921875 819.799804688 l 1
 1020.19921875 -220.19921875 l 1
1000 820 m 0
 -0 820 -0 820 -0 820 c 2
 -11.0380859375 820 -20 811.038085938 -20 800 c 2
 -20 -200 l 2
 -20 -211.038085938 -11.0380859375 -220 -0 -220 c 2
 1000 -220 l 2
 1011.03808594 -220 1020 -211.038085938 1020 -200 c 2
 1020 800 l 2
 1020 811.038085938 1011.03808594 820 1000 820 c 0
20 780 m 1
 980 780 l 1
 980 -180 l 1
 20 -180 l 1
 20 780 l 1
EndSplineSet
EndChar

StartChar: g
Encoding: 103 103 25
Width: 1000
Flags: H
LayerCount: 2
Fore
SplineSet
98.9990234375 -136.200195312 m 1
 139.799804688 -136.200195312 l 1
 139.799804688 725.799804688 l 1
 98.9990234375 725.799804688 l 1
 98.9990234375 -136.200195312 l 1
139.399414062 -135.799804688 m 1
 99.3994140625 -135.799804688 l 1
 99.3994140625 725.399414062 l 1
 139.399414062 725.399414062 l 1
 139.399414062 -135.799804688 l 1
99.19921875 -115.599609375 m 1
 139.19921875 -115.599609375 l 1
 139.19921875 705.599609375 l 1
 99.19921875 705.599609375 l 1
 99.19921875 -115.599609375 l 1
72.9990234375 -109.400390625 m 1
 904.599609375 -109.400390625 l 1
 904.599609375 -68.599609375 l 1
 72.9990234375 -68.599609375 l 1
 72.9990234375 -109.400390625 l 1
904.19921875 -109 m 1
 73.3994140625 -109 l 1
 73.3994140625 -69 l 1
 904.19921875 -69 l 1
 904.19921875 -109 l 1
884 -108.799804688 m 1
 884 -68.7998046875 l 1
 93.19921875 -68.7998046875 l 1
 93.19921875 -108.799804688 l 1
 884 -108.799804688 l 1
72.9990234375 657.799804688 m 1
 904.599609375 657.799804688 l 1
 904.599609375 698.600585938 l 1
 72.9990234375 698.600585938 l 1
 72.9990234375 657.799804688 l 1
904.19921875 658.200195312 m 1
 73.3994140625 658.200195312 l 1
 73.3994140625 698.200195312 l 1
 904.19921875 698.200195312 l 1
 904.19921875 658.200195312 l 1
884 658.400390625 m 1
 884 698.400390625 l 1
 93.19921875 698.400390625 l 1
 93.19921875 658.400390625 l 1
 884 658.400390625 l 1
215.399414062 -4.2001953125 m 1
 809.799804688 -4.2001953125 l 1
 809.799804688 640.200195312 l 1
 215.399414062 640.200195312 l 1
 215.399414062 -4.2001953125 l 1
809.399414062 -3.7998046875 m 1
 215.799804688 -3.7998046875 l 1
 215.799804688 639.799804688 l 1
 809.399414062 639.799804688 l 1
 809.399414062 -3.7998046875 l 1
512.399414062 600 m 0
 653.802734375 600 769.19921875 473.967773438 769.19921875 318 c 0
 769.19921875 163.590820312 654.662109375 36.400390625 512.399414062 36.400390625 c 0
 370.030273438 36.400390625 255.599609375 163.7109375 255.599609375 318 c 0
 255.599609375 473.784179688 370.852539062 600 512.399414062 600 c 0
512.399414062 -3.599609375 m 0
 675.837890625 -3.599609375 809.19921875 140.099609375 809.19921875 318.400390625 c 0
 809.19921875 495.161132812 676.688476562 640 512.399414062 640 c 0
 348.69921875 640 215.599609375 495.985351562 215.599609375 318 c 0
 215.599609375 141.2421875 348.109375 -3.599609375 512.399414062 -3.599609375 c 0
-20.2001953125 -220.599609375 m 1
 1020.59960938 -220.599609375 l 1
 1020.59960938 820.200195312 l 1
 -20.2001953125 820.200195312 l 1
 -20.2001953125 -220.599609375 l 1
1020.19921875 -220.19921875 m 1
 -19.7998046875 -220.19921875 l 1
 -19.7998046875 819.799804688 l 1
 1020.19921875 819.799804688 l 1
 1020.19921875 -220.19921875 l 1
-0 -220 m 0
 1000 -220 1000 -220 1000 -220 c 2
 1011.03808594 -220 1020 -211.038085938 1020 -200 c 2
 1020 800 l 2
 1020 811.038085938 1011.03808594 820 1000 820 c 2
 -0 820 l 2
 -11.0380859375 820 -20 811.038085938 -20 800 c 2
 -20 -200 l 2
 -20 -211.038085938 -11.0380859375 -220 -0 -220 c 0
980 -180 m 1
 20 -180 l 1
 20 780 l 1
 980 780 l 1
 980 -180 l 1
EndSplineSet
EndChar

StartChar: uniE00C
Encoding: 57356 57356 26
Width: 1000
Flags: H
LayerCount: 2
Fore
SplineSet
98.9990234375 -136.200195312 m 1
 139.799804688 -136.200195312 l 1
 139.799804688 725.799804688 l 1
 98.9990234375 725.799804688 l 1
 98.9990234375 -136.200195312 l 1
139.399414062 -135.799804688 m 1
 99.3994140625 -135.799804688 l 1
 99.3994140625 725.399414062 l 1
 139.399414062 725.399414062 l 1
 139.399414062 -135.799804688 l 1
99.19921875 -115.599609375 m 1
 139.19921875 -115.599609375 l 1
 139.19921875 705.599609375 l 1
 99.19921875 705.599609375 l 1
 99.19921875 -115.599609375 l 1
72.9990234375 -109.400390625 m 1
 904.599609375 -109.400390625 l 1
 904.599609375 -68.599609375 l 1
 72.9990234375 -68.599609375 l 1
 72.9990234375 -109.400390625 l 1
904.19921875 -109 m 1
 73.3994140625 -109 l 1
 73.3994140625 -69 l 1
 904.19921875 -69 l 1
 904.19921875 -109 l 1
884 -108.799804688 m 1
 884 -68.7998046875 l 1
 93.19921875 -68.7998046875 l 1
 93.19921875 -108.799804688 l 1
 884 -108.799804688 l 1
72.9990234375 657.799804688 m 1
 904.599609375 657.799804688 l 1
 904.599609375 698.600585938 l 1
 72.9990234375 698.600585938 l 1
 72.9990234375 657.799804688 l 1
904.19921875 658.200195312 m 1
 73.3994140625 658.200195312 l 1
 73.3994140625 698.200195312 l 1
 904.19921875 698.200195312 l 1
 904.19921875 658.200195312 l 1
884 658.400390625 m 1
 884 698.400390625 l 1
 93.19921875 698.400390625 l 1
 93.19921875 658.400390625 l 1
 884 658.400390625 l 1
215.399414062 -4.2001953125 m 1
 809.799804688 -4.2001953125 l 1
 809.799804688 640.200195312 l 1
 215.399414062 640.200195312 l 1
 215.399414062 -4.2001953125 l 1
809.399414062 -3.7998046875 m 1
 215.799804688 -3.7998046875 l 1
 215.799804688 639.799804688 l 1
 809.399414062 639.799804688 l 1
 809.399414062 -3.7998046875 l 1
512.399414062 600 m 0
 653.802734375 600 769.19921875 473.967773438 769.19921875 318 c 0
 769.19921875 163.590820312 654.662109375 36.400390625 512.399414062 36.400390625 c 0
 370.030273438 36.400390625 255.599609375 163.7109375 255.599609375 318 c 0
 255.599609375 473.784179688 370.852539062 600 512.399414062 600 c 0
512.399414062 -3.599609375 m 0
 675.837890625 -3.599609375 809.19921875 140.099609375 809.19921875 318.400390625 c 0
 809.19921875 495.161132812 676.688476562 640 512.399414062 640 c 0
 348.69921875 640 215.599609375 495.985351562 215.599609375 318 c 0
 215.599609375 141.2421875 348.109375 -3.599609375 512.399414062 -3.599609375 c 0
-20.2001953125 -220.599609375 m 1
 1020.59960938 -220.599609375 l 1
 1020.59960938 820.200195312 l 1
 -20.2001953125 820.200195312 l 1
 -20.2001953125 -220.599609375 l 1
1020.19921875 -220.19921875 m 1
 -19.7998046875 -220.19921875 l 1
 -19.7998046875 819.799804688 l 1
 1020.19921875 819.799804688 l 1
 1020.19921875 -220.19921875 l 1
-0 -220 m 0
 1000 -220 1000 -220 1000 -220 c 2
 1011.03808594 -220 1020 -211.038085938 1020 -200 c 2
 1020 800 l 2
 1020 811.038085938 1011.03808594 820 1000 820 c 2
 -0 820 l 2
 -11.0380859375 820 -20 811.038085938 -20 800 c 2
 -20 -200 l 2
 -20 -211.038085938 -11.0380859375 -220 -0 -220 c 0
980 -180 m 1
 20 -180 l 1
 20 780 l 1
 980 780 l 1
 980 -180 l 1
EndSplineSet
EndChar

StartChar: f
Encoding: 102 102 27
Width: 1000
Flags: H
LayerCount: 2
Fore
SplineSet
793.799804688 -132.200195312 m 1
 834.599609375 -132.200195312 l 1
 834.599609375 710.200195312 l 1
 793.799804688 710.200195312 l 1
 793.799804688 -132.200195312 l 1
834.19921875 -131.799804688 m 1
 794.200195312 -131.799804688 l 1
 794.200195312 709.799804688 l 1
 834.19921875 709.799804688 l 1
 834.19921875 -131.799804688 l 1
794 -111.599609375 m 1
 834 -111.599609375 l 1
 834 690 l 1
 794 690 l 1
 794 -111.599609375 l 1
145.799804688 -132.200195312 m 1
 186.599609375 -132.200195312 l 1
 186.599609375 710.200195312 l 1
 145.799804688 710.200195312 l 1
 145.799804688 -132.200195312 l 1
186.19921875 -131.799804688 m 1
 146.200195312 -131.799804688 l 1
 146.200195312 709.799804688 l 1
 186.19921875 709.799804688 l 1
 186.19921875 -131.799804688 l 1
146 -111.599609375 m 1
 186 -111.599609375 l 1
 186 690 l 1
 146 690 l 1
 146 -111.599609375 l 1
210.19921875 14.599609375 m 1
 775.399414062 14.599609375 l 1
 775.399414062 559.400390625 l 1
 210.19921875 559.400390625 l 1
 210.19921875 14.599609375 l 1
774.999023438 15 m 1
 210.599609375 15 l 1
 210.599609375 559 l 1
 774.999023438 559 l 1
 774.999023438 15 l 1
492.399414062 519.200195312 m 0
 627.66796875 519.200195312 734.799804688 414.1640625 734.799804688 287.200195312 c 0
 734.799804688 159.5859375 626.798828125 55.2001953125 492.799804688 55.2001953125 c 0
 357.53125 55.2001953125 250.399414062 160.236328125 250.399414062 287.200195312 c 0
 250.399414062 414.814453125 358.400390625 519.200195312 492.399414062 519.200195312 c 0
774.799804688 287.200195312 m 0
 774.799804688 436.057617188 649.927734375 559.200195312 492.399414062 559.200195312 c 0
 336.3203125 559.200195312 210.399414062 436.891601562 210.399414062 287.200195312 c 0
 210.399414062 138.341796875 335.272460938 15.2001953125 492.799804688 15.2001953125 c 0
 648.877929688 15.2001953125 774.799804688 137.508789062 774.799804688 287.200195312 c 0
-20.2001953125 -220.599609375 m 1
 1020.59960938 -220.599609375 l 1
 1020.59960938 820.200195312 l 1
 -20.2001953125 820.200195312 l 1
 -20.2001953125 -220.599609375 l 1
1020.19921875 -220.19921875 m 1
 -19.7998046875 -220.19921875 l 1
 -19.7998046875 819.799804688 l 1
 1020.19921875 819.799804688 l 1
 1020.19921875 -220.19921875 l 1
1020 -200 m 0
 1020 800 1020 800 1020 800 c 2
 1020 811.038085938 1011.03808594 820 1000 820 c 2
 -0 820 l 2
 -11.0380859375 820 -20 811.038085938 -20 800 c 2
 -20 -200 l 2
 -20 -211.038085938 -11.0380859375 -220 -0 -220 c 2
 1000 -220 l 2
 1011.03808594 -220 1020 -211.038085938 1020 -200 c 0
980 780 m 1
 980 -180 l 1
 20 -180 l 1
 20 780 l 1
 980 780 l 1
EndSplineSet
EndChar

StartChar: uniE00D
Encoding: 57357 57357 28
Width: 1000
Flags: H
LayerCount: 2
Fore
SplineSet
793.799804688 -132.200195312 m 1
 834.599609375 -132.200195312 l 1
 834.599609375 710.200195312 l 1
 793.799804688 710.200195312 l 1
 793.799804688 -132.200195312 l 1
834.19921875 -131.799804688 m 1
 794.200195312 -131.799804688 l 1
 794.200195312 709.799804688 l 1
 834.19921875 709.799804688 l 1
 834.19921875 -131.799804688 l 1
794 -111.599609375 m 1
 834 -111.599609375 l 1
 834 690 l 1
 794 690 l 1
 794 -111.599609375 l 1
145.799804688 -132.200195312 m 1
 186.599609375 -132.200195312 l 1
 186.599609375 710.200195312 l 1
 145.799804688 710.200195312 l 1
 145.799804688 -132.200195312 l 1
186.19921875 -131.799804688 m 1
 146.200195312 -131.799804688 l 1
 146.200195312 709.799804688 l 1
 186.19921875 709.799804688 l 1
 186.19921875 -131.799804688 l 1
146 -111.599609375 m 1
 186 -111.599609375 l 1
 186 690 l 1
 146 690 l 1
 146 -111.599609375 l 1
210.19921875 14.599609375 m 1
 775.399414062 14.599609375 l 1
 775.399414062 559.400390625 l 1
 210.19921875 559.400390625 l 1
 210.19921875 14.599609375 l 1
774.999023438 15 m 1
 210.599609375 15 l 1
 210.599609375 559 l 1
 774.999023438 559 l 1
 774.999023438 15 l 1
492.399414062 519.200195312 m 0
 627.66796875 519.200195312 734.799804688 414.1640625 734.799804688 287.200195312 c 0
 734.799804688 159.5859375 626.798828125 55.2001953125 492.799804688 55.2001953125 c 0
 357.53125 55.2001953125 250.399414062 160.236328125 250.399414062 287.200195312 c 0
 250.399414062 414.814453125 358.400390625 519.200195312 492.399414062 519.200195312 c 0
774.799804688 287.200195312 m 0
 774.799804688 436.057617188 649.927734375 559.200195312 492.399414062 559.200195312 c 0
 336.3203125 559.200195312 210.399414062 436.891601562 210.399414062 287.200195312 c 0
 210.399414062 138.341796875 335.272460938 15.2001953125 492.799804688 15.2001953125 c 0
 648.877929688 15.2001953125 774.799804688 137.508789062 774.799804688 287.200195312 c 0
-20.2001953125 -220.599609375 m 1
 1020.59960938 -220.599609375 l 1
 1020.59960938 820.200195312 l 1
 -20.2001953125 820.200195312 l 1
 -20.2001953125 -220.599609375 l 1
1020.19921875 -220.19921875 m 1
 -19.7998046875 -220.19921875 l 1
 -19.7998046875 819.799804688 l 1
 1020.19921875 819.799804688 l 1
 1020.19921875 -220.19921875 l 1
1020 -200 m 0
 1020 800 1020 800 1020 800 c 2
 1020 811.038085938 1011.03808594 820 1000 820 c 2
 -0 820 l 2
 -11.0380859375 820 -20 811.038085938 -20 800 c 2
 -20 -200 l 2
 -20 -211.038085938 -11.0380859375 -220 -0 -220 c 2
 1000 -220 l 2
 1011.03808594 -220 1020 -211.038085938 1020 -200 c 0
980 780 m 1
 980 -180 l 1
 20 -180 l 1
 20 780 l 1
 980 780 l 1
EndSplineSet
EndChar

StartChar: q
Encoding: 113 113 29
Width: 1000
Flags: H
LayerCount: 2
Fore
SplineSet
91.3994140625 -93 m 1
 933.799804688 -93 l 1
 933.799804688 695.400390625 l 1
 91.3994140625 695.400390625 l 1
 91.3994140625 -93 l 1
933.399414062 -92.599609375 m 1
 91.7998046875 -92.599609375 l 1
 91.7998046875 695 l 1
 933.399414062 695 l 1
 933.399414062 -92.599609375 l 1
913.19921875 -92.3994140625 m 2
 924.237304688 -92.3994140625 933.19921875 -83.4375 933.19921875 -72.3994140625 c 2
 933.19921875 675.200195312 l 2
 933.19921875 686.23828125 924.237304688 695.200195312 913.19921875 695.200195312 c 2
 111.599609375 695.200195312 l 2
 100.561523438 695.200195312 91.599609375 686.23828125 91.599609375 675.200195312 c 2
 91.599609375 -72.3994140625 l 2
 91.599609375 -83.4375 100.561523438 -92.3994140625 111.599609375 -92.3994140625 c 2
 913.19921875 -92.3994140625 l 2
893.19921875 -52.3994140625 m 1
 131.599609375 -52.3994140625 l 1
 131.599609375 655.200195312 l 1
 893.19921875 655.200195312 l 1
 893.19921875 -52.3994140625 l 1
91.3994140625 -68.599609375 m 1
 933.399414062 -68.599609375 l 1
 933.399414062 720.600585938 l 1
 91.3994140625 720.600585938 l 1
 91.3994140625 -68.599609375 l 1
932.999023438 -68.19921875 m 1
 91.7998046875 -68.19921875 l 1
 91.7998046875 720.200195312 l 1
 932.999023438 720.200195312 l 1
 932.999023438 -68.19921875 l 1
125.245117188 715.016601562 m 1
 97.9462890625 685.791015625 l 1
 899.154296875 -62.6162109375 l 1
 926.453125 -33.390625 l 1
 125.245117188 715.016601562 l 1
91.3994140625 -69 m 1
 933.399414062 -69 l 1
 933.399414062 720.600585938 l 1
 91.3994140625 720.600585938 l 1
 91.3994140625 -69 l 1
932.999023438 -68.599609375 m 1
 91.7998046875 -68.599609375 l 1
 91.7998046875 720.200195312 l 1
 932.999023438 720.200195312 l 1
 932.999023438 -68.599609375 l 1
926.446289062 685.784179688 m 1
 899.154296875 715.016601562 l 1
 97.9541015625 -33.3837890625 l 1
 125.245117188 -62.6162109375 l 1
 926.446289062 685.784179688 l 1
-20.2001953125 -220.599609375 m 1
 1020.59960938 -220.599609375 l 1
 1020.59960938 820.200195312 l 1
 -20.2001953125 820.200195312 l 1
 -20.2001953125 -220.599609375 l 1
1020.19921875 -220.19921875 m 1
 -19.7998046875 -220.19921875 l 1
 -19.7998046875 819.799804688 l 1
 1020.19921875 819.799804688 l 1
 1020.19921875 -220.19921875 l 1
1000 820 m 0
 -0 820 -0 820 -0 820 c 2
 -11.0380859375 820 -20 811.038085938 -20 800 c 2
 -20 -200 l 2
 -20 -211.038085938 -11.0380859375 -220 -0 -220 c 2
 1000 -220 l 2
 1011.03808594 -220 1020 -211.038085938 1020 -200 c 2
 1020 800 l 2
 1020 811.038085938 1011.03808594 820 1000 820 c 0
20 780 m 1
 980 780 l 1
 980 -180 l 1
 20 -180 l 1
 20 780 l 1
EndSplineSet
EndChar

StartChar: uniE00E
Encoding: 57358 57358 30
Width: 1000
Flags: H
LayerCount: 2
Fore
SplineSet
91.3994140625 -93 m 1
 933.799804688 -93 l 1
 933.799804688 695.400390625 l 1
 91.3994140625 695.400390625 l 1
 91.3994140625 -93 l 1
933.399414062 -92.599609375 m 1
 91.7998046875 -92.599609375 l 1
 91.7998046875 695 l 1
 933.399414062 695 l 1
 933.399414062 -92.599609375 l 1
913.19921875 -92.3994140625 m 2
 924.237304688 -92.3994140625 933.19921875 -83.4375 933.19921875 -72.3994140625 c 2
 933.19921875 675.200195312 l 2
 933.19921875 686.23828125 924.237304688 695.200195312 913.19921875 695.200195312 c 2
 111.599609375 695.200195312 l 2
 100.561523438 695.200195312 91.599609375 686.23828125 91.599609375 675.200195312 c 2
 91.599609375 -72.3994140625 l 2
 91.599609375 -83.4375 100.561523438 -92.3994140625 111.599609375 -92.3994140625 c 2
 913.19921875 -92.3994140625 l 2
893.19921875 -52.3994140625 m 1
 131.599609375 -52.3994140625 l 1
 131.599609375 655.200195312 l 1
 893.19921875 655.200195312 l 1
 893.19921875 -52.3994140625 l 1
91.3994140625 -68.599609375 m 1
 933.399414062 -68.599609375 l 1
 933.399414062 720.600585938 l 1
 91.3994140625 720.600585938 l 1
 91.3994140625 -68.599609375 l 1
932.999023438 -68.19921875 m 1
 91.7998046875 -68.19921875 l 1
 91.7998046875 720.200195312 l 1
 932.999023438 720.200195312 l 1
 932.999023438 -68.19921875 l 1
125.245117188 715.016601562 m 1
 97.9462890625 685.791015625 l 1
 899.154296875 -62.6162109375 l 1
 926.453125 -33.390625 l 1
 125.245117188 715.016601562 l 1
91.3994140625 -69 m 1
 933.399414062 -69 l 1
 933.399414062 720.600585938 l 1
 91.3994140625 720.600585938 l 1
 91.3994140625 -69 l 1
932.999023438 -68.599609375 m 1
 91.7998046875 -68.599609375 l 1
 91.7998046875 720.200195312 l 1
 932.999023438 720.200195312 l 1
 932.999023438 -68.599609375 l 1
926.446289062 685.784179688 m 1
 899.154296875 715.016601562 l 1
 97.9541015625 -33.3837890625 l 1
 125.245117188 -62.6162109375 l 1
 926.446289062 685.784179688 l 1
-20.2001953125 -220.599609375 m 1
 1020.59960938 -220.599609375 l 1
 1020.59960938 820.200195312 l 1
 -20.2001953125 820.200195312 l 1
 -20.2001953125 -220.599609375 l 1
1020.19921875 -220.19921875 m 1
 -19.7998046875 -220.19921875 l 1
 -19.7998046875 819.799804688 l 1
 1020.19921875 819.799804688 l 1
 1020.19921875 -220.19921875 l 1
1000 820 m 0
 -0 820 -0 820 -0 820 c 2
 -11.0380859375 820 -20 811.038085938 -20 800 c 2
 -20 -200 l 2
 -20 -211.038085938 -11.0380859375 -220 -0 -220 c 2
 1000 -220 l 2
 1011.03808594 -220 1020 -211.038085938 1020 -200 c 2
 1020 800 l 2
 1020 811.038085938 1011.03808594 820 1000 820 c 0
20 780 m 1
 980 780 l 1
 980 -180 l 1
 20 -180 l 1
 20 780 l 1
EndSplineSet
EndChar

StartChar: s
Encoding: 115 115 31
Width: 1000
Flags: H
LayerCount: 2
Fore
SplineSet
840.59765625 -130.200195312 m 1
 881.3984375 -130.200195312 l 1
 881.3984375 731.799804688 l 1
 840.59765625 731.799804688 l 1
 840.59765625 -130.200195312 l 1
880.998046875 -129.799804688 m 1
 840.998046875 -129.799804688 l 1
 840.998046875 731.399414062 l 1
 880.998046875 731.399414062 l 1
 880.998046875 -129.799804688 l 1
880.797851562 711.599609375 m 1
 840.797851562 711.599609375 l 1
 840.797851562 -109.599609375 l 1
 880.797851562 -109.599609375 l 1
 880.797851562 711.599609375 l 1
76.1982421875 664.200195312 m 1
 907.798828125 664.200195312 l 1
 907.798828125 705 l 1
 76.1982421875 705 l 1
 76.1982421875 664.200195312 l 1
907.3984375 664.600585938 m 1
 76.5986328125 664.600585938 l 1
 76.5986328125 704.599609375 l 1
 907.3984375 704.599609375 l 1
 907.3984375 664.600585938 l 1
96.3984375 704.799804688 m 1
 96.3984375 664.799804688 l 1
 887.198242188 664.799804688 l 1
 887.198242188 704.799804688 l 1
 96.3984375 704.799804688 l 1
-20.2021484375 -220.599609375 m 1
 1020.59863281 -220.599609375 l 1
 1020.59863281 820.200195312 l 1
 -20.2021484375 820.200195312 l 1
 -20.2021484375 -220.599609375 l 1
1020.19824219 -220.19921875 m 1
 -19.8017578125 -220.19921875 l 1
 -19.8017578125 819.799804688 l 1
 1020.19824219 819.799804688 l 1
 1020.19824219 -220.19921875 l 1
-0.001953125 -220 m 0
 999.998046875 -220 999.998046875 -220 999.998046875 -220 c 2
 1011.03613281 -220 1019.99804688 -211.038085938 1019.99804688 -200 c 2
 1019.99804688 800 l 2
 1019.99804688 811.038085938 1011.03613281 820 999.998046875 820 c 2
 -0.001953125 820 l 2
 -11.0400390625 820 -20.001953125 811.038085938 -20.001953125 800 c 2
 -20.001953125 -200 l 2
 -20.001953125 -211.038085938 -11.0400390625 -220 -0.001953125 -220 c 0
979.998046875 -180 m 1
 19.998046875 -180 l 1
 19.998046875 780 l 1
 979.998046875 780 l 1
 979.998046875 -180 l 1
EndSplineSet
EndChar

StartChar: uniE00F
Encoding: 57359 57359 32
Width: 1000
Flags: H
LayerCount: 2
Fore
SplineSet
840.59765625 -130.200195312 m 1
 881.3984375 -130.200195312 l 1
 881.3984375 731.799804688 l 1
 840.59765625 731.799804688 l 1
 840.59765625 -130.200195312 l 1
880.998046875 -129.799804688 m 1
 840.998046875 -129.799804688 l 1
 840.998046875 731.399414062 l 1
 880.998046875 731.399414062 l 1
 880.998046875 -129.799804688 l 1
880.797851562 711.599609375 m 1
 840.797851562 711.599609375 l 1
 840.797851562 -109.599609375 l 1
 880.797851562 -109.599609375 l 1
 880.797851562 711.599609375 l 1
76.1982421875 664.200195312 m 1
 907.798828125 664.200195312 l 1
 907.798828125 705 l 1
 76.1982421875 705 l 1
 76.1982421875 664.200195312 l 1
907.3984375 664.600585938 m 1
 76.5986328125 664.600585938 l 1
 76.5986328125 704.599609375 l 1
 907.3984375 704.599609375 l 1
 907.3984375 664.600585938 l 1
96.3984375 704.799804688 m 1
 96.3984375 664.799804688 l 1
 887.198242188 664.799804688 l 1
 887.198242188 704.799804688 l 1
 96.3984375 704.799804688 l 1
-20.2021484375 -220.599609375 m 1
 1020.59863281 -220.599609375 l 1
 1020.59863281 820.200195312 l 1
 -20.2021484375 820.200195312 l 1
 -20.2021484375 -220.599609375 l 1
1020.19824219 -220.19921875 m 1
 -19.8017578125 -220.19921875 l 1
 -19.8017578125 819.799804688 l 1
 1020.19824219 819.799804688 l 1
 1020.19824219 -220.19921875 l 1
-0.001953125 -220 m 0
 999.998046875 -220 999.998046875 -220 999.998046875 -220 c 2
 1011.03613281 -220 1019.99804688 -211.038085938 1019.99804688 -200 c 2
 1019.99804688 800 l 2
 1019.99804688 811.038085938 1011.03613281 820 999.998046875 820 c 2
 -0.001953125 820 l 2
 -11.0400390625 820 -20.001953125 811.038085938 -20.001953125 800 c 2
 -20.001953125 -200 l 2
 -20.001953125 -211.038085938 -11.0400390625 -220 -0.001953125 -220 c 0
979.998046875 -180 m 1
 19.998046875 -180 l 1
 19.998046875 780 l 1
 979.998046875 780 l 1
 979.998046875 -180 l 1
EndSplineSet
EndChar

StartChar: S
Encoding: 83 83 33
Width: 1000
Flags: H
LayerCount: 2
Fore
SplineSet
151.399414062 641 m 1
 878.599609375 641 l 1
 878.599609375 681.799804688 l 1
 151.399414062 681.799804688 l 1
 151.399414062 641 l 1
878.19921875 641.400390625 m 1
 151.799804688 641.400390625 l 1
 151.799804688 681.399414062 l 1
 878.19921875 681.399414062 l 1
 878.19921875 641.400390625 l 1
171.599609375 681.599609375 m 1
 171.599609375 641.599609375 l 1
 858 641.599609375 l 1
 858 681.599609375 l 1
 171.599609375 681.599609375 l 1
173.399414062 -82.2001953125 m 1
 214.200195312 -82.2001953125 l 1
 214.200195312 706.200195312 l 1
 173.399414062 706.200195312 l 1
 173.399414062 -82.2001953125 l 1
213.799804688 -81.7998046875 m 1
 173.799804688 -81.7998046875 l 1
 173.799804688 705.799804688 l 1
 213.799804688 705.799804688 l 1
 213.799804688 -81.7998046875 l 1
173.599609375 -61.599609375 m 1
 213.599609375 -61.599609375 l 1
 213.599609375 686 l 1
 173.599609375 686 l 1
 173.599609375 -61.599609375 l 1
814.999023438 -81.7998046875 m 1
 855.799804688 -81.7998046875 l 1
 855.799804688 706.600585938 l 1
 814.999023438 706.600585938 l 1
 814.999023438 -81.7998046875 l 1
855.399414062 -81.3994140625 m 1
 815.399414062 -81.3994140625 l 1
 815.399414062 706.200195312 l 1
 855.399414062 706.200195312 l 1
 855.399414062 -81.3994140625 l 1
815.19921875 -61.2001953125 m 1
 855.19921875 -61.2001953125 l 1
 855.19921875 686.400390625 l 1
 815.19921875 686.400390625 l 1
 815.19921875 -61.2001953125 l 1
494.19921875 -82.2001953125 m 1
 535 -82.2001953125 l 1
 535 706.200195312 l 1
 494.19921875 706.200195312 l 1
 494.19921875 -82.2001953125 l 1
534.599609375 -81.7998046875 m 1
 494.599609375 -81.7998046875 l 1
 494.599609375 705.799804688 l 1
 534.599609375 705.799804688 l 1
 534.599609375 -81.7998046875 l 1
494.399414062 -61.599609375 m 1
 534.399414062 -61.599609375 l 1
 534.399414062 686 l 1
 494.399414062 686 l 1
 494.399414062 -61.599609375 l 1
-20.2001953125 -220.599609375 m 1
 1020.59960938 -220.599609375 l 1
 1020.59960938 820.200195312 l 1
 -20.2001953125 820.200195312 l 1
 -20.2001953125 -220.599609375 l 1
1020.19921875 -220.19921875 m 1
 -19.7998046875 -220.19921875 l 1
 -19.7998046875 819.799804688 l 1
 1020.19921875 819.799804688 l 1
 1020.19921875 -220.19921875 l 1
1000 820 m 0
 -0 820 -0 820 -0 820 c 2
 -11.0380859375 820 -20 811.038085938 -20 800 c 2
 -20 -200 l 2
 -20 -211.038085938 -11.0380859375 -220 -0 -220 c 2
 1000 -220 l 2
 1011.03808594 -220 1020 -211.038085938 1020 -200 c 2
 1020 800 l 2
 1020 811.038085938 1011.03808594 820 1000 820 c 0
20 780 m 1
 980 780 l 1
 980 -180 l 1
 20 -180 l 1
 20 780 l 1
EndSplineSet
EndChar

StartChar: uniE010
Encoding: 57360 57360 34
Width: 1000
Flags: H
LayerCount: 2
Fore
SplineSet
151.399414062 641 m 1
 878.599609375 641 l 1
 878.599609375 681.799804688 l 1
 151.399414062 681.799804688 l 1
 151.399414062 641 l 1
878.19921875 641.400390625 m 1
 151.799804688 641.400390625 l 1
 151.799804688 681.399414062 l 1
 878.19921875 681.399414062 l 1
 878.19921875 641.400390625 l 1
171.599609375 681.599609375 m 1
 171.599609375 641.599609375 l 1
 858 641.599609375 l 1
 858 681.599609375 l 1
 171.599609375 681.599609375 l 1
173.399414062 -82.2001953125 m 1
 214.200195312 -82.2001953125 l 1
 214.200195312 706.200195312 l 1
 173.399414062 706.200195312 l 1
 173.399414062 -82.2001953125 l 1
213.799804688 -81.7998046875 m 1
 173.799804688 -81.7998046875 l 1
 173.799804688 705.799804688 l 1
 213.799804688 705.799804688 l 1
 213.799804688 -81.7998046875 l 1
173.599609375 -61.599609375 m 1
 213.599609375 -61.599609375 l 1
 213.599609375 686 l 1
 173.599609375 686 l 1
 173.599609375 -61.599609375 l 1
814.999023438 -81.7998046875 m 1
 855.799804688 -81.7998046875 l 1
 855.799804688 706.600585938 l 1
 814.999023438 706.600585938 l 1
 814.999023438 -81.7998046875 l 1
855.399414062 -81.3994140625 m 1
 815.399414062 -81.3994140625 l 1
 815.399414062 706.200195312 l 1
 855.399414062 706.200195312 l 1
 855.399414062 -81.3994140625 l 1
815.19921875 -61.2001953125 m 1
 855.19921875 -61.2001953125 l 1
 855.19921875 686.400390625 l 1
 815.19921875 686.400390625 l 1
 815.19921875 -61.2001953125 l 1
494.19921875 -82.2001953125 m 1
 535 -82.2001953125 l 1
 535 706.200195312 l 1
 494.19921875 706.200195312 l 1
 494.19921875 -82.2001953125 l 1
534.599609375 -81.7998046875 m 1
 494.599609375 -81.7998046875 l 1
 494.599609375 705.799804688 l 1
 534.599609375 705.799804688 l 1
 534.599609375 -81.7998046875 l 1
494.399414062 -61.599609375 m 1
 534.399414062 -61.599609375 l 1
 534.399414062 686 l 1
 494.399414062 686 l 1
 494.399414062 -61.599609375 l 1
-20.2001953125 -220.599609375 m 1
 1020.59960938 -220.599609375 l 1
 1020.59960938 820.200195312 l 1
 -20.2001953125 820.200195312 l 1
 -20.2001953125 -220.599609375 l 1
1020.19921875 -220.19921875 m 1
 -19.7998046875 -220.19921875 l 1
 -19.7998046875 819.799804688 l 1
 1020.19921875 819.799804688 l 1
 1020.19921875 -220.19921875 l 1
1000 820 m 0
 -0 820 -0 820 -0 820 c 2
 -11.0380859375 820 -20 811.038085938 -20 800 c 2
 -20 -200 l 2
 -20 -211.038085938 -11.0380859375 -220 -0 -220 c 2
 1000 -220 l 2
 1011.03808594 -220 1020 -211.038085938 1020 -200 c 2
 1020 800 l 2
 1020 811.038085938 1011.03808594 820 1000 820 c 0
20 780 m 1
 980 780 l 1
 980 -180 l 1
 20 -180 l 1
 20 780 l 1
EndSplineSet
EndChar

StartChar: C
Encoding: 67 67 35
Width: 1000
Flags: H
LayerCount: 2
Fore
SplineSet
74.1982421875 662.200195312 m 1
 905.798828125 662.200195312 l 1
 905.798828125 703 l 1
 74.1982421875 703 l 1
 74.1982421875 662.200195312 l 1
905.3984375 662.600585938 m 1
 74.5986328125 662.600585938 l 1
 74.5986328125 702.599609375 l 1
 905.3984375 702.599609375 l 1
 905.3984375 662.600585938 l 1
94.3984375 702.799804688 m 1
 94.3984375 662.799804688 l 1
 885.198242188 662.799804688 l 1
 885.198242188 702.799804688 l 1
 94.3984375 702.799804688 l 1
99.7978515625 -132.599609375 m 1
 140.598632812 -132.599609375 l 1
 140.598632812 729.400390625 l 1
 99.7978515625 729.400390625 l 1
 99.7978515625 -132.599609375 l 1
140.198242188 -132.19921875 m 1
 100.198242188 -132.19921875 l 1
 100.198242188 729 l 1
 140.198242188 729 l 1
 140.198242188 -132.19921875 l 1
99.998046875 -112 m 1
 139.998046875 -112 l 1
 139.998046875 709.200195312 l 1
 99.998046875 709.200195312 l 1
 99.998046875 -112 l 1
-20.2021484375 -220.599609375 m 1
 1020.59863281 -220.599609375 l 1
 1020.59863281 820.200195312 l 1
 -20.2021484375 820.200195312 l 1
 -20.2021484375 -220.599609375 l 1
1020.19824219 -220.19921875 m 1
 -19.8017578125 -220.19921875 l 1
 -19.8017578125 819.799804688 l 1
 1020.19824219 819.799804688 l 1
 1020.19824219 -220.19921875 l 1
-0.001953125 -220 m 0
 999.998046875 -220 999.998046875 -220 999.998046875 -220 c 2
 1011.03613281 -220 1019.99804688 -211.038085938 1019.99804688 -200 c 2
 1019.99804688 800 l 2
 1019.99804688 811.038085938 1011.03613281 820 999.998046875 820 c 2
 -0.001953125 820 l 2
 -11.0400390625 820 -20.001953125 811.038085938 -20.001953125 800 c 2
 -20.001953125 -200 l 2
 -20.001953125 -211.038085938 -11.0400390625 -220 -0.001953125 -220 c 0
979.998046875 -180 m 1
 19.998046875 -180 l 1
 19.998046875 780 l 1
 979.998046875 780 l 1
 979.998046875 -180 l 1
EndSplineSet
EndChar

StartChar: uniE011
Encoding: 57361 57361 36
Width: 1000
Flags: H
LayerCount: 2
Fore
SplineSet
74.1982421875 662.200195312 m 1
 905.798828125 662.200195312 l 1
 905.798828125 703 l 1
 74.1982421875 703 l 1
 74.1982421875 662.200195312 l 1
905.3984375 662.600585938 m 1
 74.5986328125 662.600585938 l 1
 74.5986328125 702.599609375 l 1
 905.3984375 702.599609375 l 1
 905.3984375 662.600585938 l 1
94.3984375 702.799804688 m 1
 94.3984375 662.799804688 l 1
 885.198242188 662.799804688 l 1
 885.198242188 702.799804688 l 1
 94.3984375 702.799804688 l 1
99.7978515625 -132.599609375 m 1
 140.598632812 -132.599609375 l 1
 140.598632812 729.400390625 l 1
 99.7978515625 729.400390625 l 1
 99.7978515625 -132.599609375 l 1
140.198242188 -132.19921875 m 1
 100.198242188 -132.19921875 l 1
 100.198242188 729 l 1
 140.198242188 729 l 1
 140.198242188 -132.19921875 l 1
99.998046875 -112 m 1
 139.998046875 -112 l 1
 139.998046875 709.200195312 l 1
 99.998046875 709.200195312 l 1
 99.998046875 -112 l 1
-20.2021484375 -220.599609375 m 1
 1020.59863281 -220.599609375 l 1
 1020.59863281 820.200195312 l 1
 -20.2021484375 820.200195312 l 1
 -20.2021484375 -220.599609375 l 1
1020.19824219 -220.19921875 m 1
 -19.8017578125 -220.19921875 l 1
 -19.8017578125 819.799804688 l 1
 1020.19824219 819.799804688 l 1
 1020.19824219 -220.19921875 l 1
-0.001953125 -220 m 0
 999.998046875 -220 999.998046875 -220 999.998046875 -220 c 2
 1011.03613281 -220 1019.99804688 -211.038085938 1019.99804688 -200 c 2
 1019.99804688 800 l 2
 1019.99804688 811.038085938 1011.03613281 820 999.998046875 820 c 2
 -0.001953125 820 l 2
 -11.0400390625 820 -20.001953125 811.038085938 -20.001953125 800 c 2
 -20.001953125 -200 l 2
 -20.001953125 -211.038085938 -11.0400390625 -220 -0.001953125 -220 c 0
979.998046875 -180 m 1
 19.998046875 -180 l 1
 19.998046875 780 l 1
 979.998046875 780 l 1
 979.998046875 -180 l 1
EndSplineSet
EndChar

StartChar: z
Encoding: 122 122 37
Width: 1000
Flags: H
LayerCount: 2
Fore
SplineSet
73.802734375 -110.19921875 m 1
 915.801757812 -110.19921875 l 1
 915.801757812 679 l 1
 73.802734375 679 l 1
 73.802734375 -110.19921875 l 1
915.401367188 -109.798828125 m 1
 74.203125 -109.798828125 l 1
 74.203125 678.599609375 l 1
 915.401367188 678.599609375 l 1
 915.401367188 -109.798828125 l 1
895.202148438 -109.598632812 m 2
 906.240234375 -109.598632812 915.202148438 -100.63671875 915.202148438 -89.5986328125 c 2
 915.202148438 658.799804688 l 2
 915.202148438 669.837890625 906.240234375 678.799804688 895.202148438 678.799804688 c 2
 94.0029296875 678.799804688 l 2
 82.96484375 678.799804688 74.0029296875 669.837890625 74.0029296875 658.799804688 c 2
 74.0029296875 -89.5986328125 l 2
 74.0029296875 -100.63671875 82.96484375 -109.598632812 94.0029296875 -109.598632812 c 2
 895.202148438 -109.598632812 l 2
875.202148438 -69.5986328125 m 1
 114.002929688 -69.5986328125 l 1
 114.002929688 638.799804688 l 1
 875.202148438 638.799804688 l 1
 875.202148438 -69.5986328125 l 1
235.001953125 -12.19921875 m 1
 757.001953125 -12.19921875 l 1
 757.001953125 577.80078125 l 1
 235.001953125 577.80078125 l 1
 235.001953125 -12.19921875 l 1
756.6015625 -11.798828125 m 1
 235.40234375 -11.798828125 l 1
 235.40234375 577.400390625 l 1
 756.6015625 577.400390625 l 1
 756.6015625 -11.798828125 l 1
495.602539062 537.600585938 m 0
 618.044921875 537.600585938 716.40234375 422.67578125 716.40234375 282.80078125 c 0
 716.40234375 195.361328125 676.038085938 108.231445312 605.096679688 61.9658203125 c 0
 571.822265625 40.025390625 533.873046875 28.400390625 496.001953125 28.400390625 c 0
 372.665039062 28.400390625 275.202148438 144.580078125 275.202148438 282.80078125 c 0
 275.202148438 328.068359375 285.703125 372.25 305.46875 411.408203125 c 0
 324.791015625 450.051757812 352.912109375 482.126953125 386.506835938 504.036132812 c 0
 419.782226562 525.9765625 457.73046875 537.600585938 495.602539062 537.600585938 c 0
721.868164062 136.608398438 m 0
 794.552734375 280.606445312 747.548828125 458.884765625 626.990234375 537.509765625 c 0
 587.461914062 563.573242188 542.09765625 577.600585938 495.602539062 577.600585938 c 0
 449.474609375 577.600585938 404.221679688 563.625 364.697265625 537.565429688 c 0
 324.693359375 511.474609375 292.014648438 473.948242188 269.736328125 429.392578125 c 0
 197.169921875 285.62890625 243.8671875 107.240234375 364.61328125 28.4921875 c 0
 404.142578125 2.4287109375 449.506835938 -11.599609375 496.001953125 -11.599609375 c 0
 542.129882812 -11.599609375 587.3828125 2.376953125 626.90625 28.4365234375 c 0
 666.911132812 54.5263671875 699.58984375 92.052734375 721.868164062 136.608398438 c 0
-20.197265625 -220.598632812 m 1
 1020.6015625 -220.598632812 l 1
 1020.6015625 820.200195312 l 1
 -20.197265625 820.200195312 l 1
 -20.197265625 -220.598632812 l 1
1020.20117188 -220.198242188 m 1
 -19.796875 -220.198242188 l 1
 -19.796875 819.799804688 l 1
 1020.20117188 819.799804688 l 1
 1020.20117188 -220.198242188 l 1
0.0029296875 820 m 2
 -11.03515625 820 -19.9970703125 811.038085938 -19.9970703125 800 c 2
 -19.9970703125 -199.999023438 l 2
 -19.9970703125 -211.037109375 -11.03515625 -219.999023438 0.0029296875 -219.999023438 c 2
 1000.00195312 -219.999023438 l 2
 1011.04003906 -219.999023438 1020.00195312 -211.037109375 1020.00195312 -199.999023438 c 2
 1020.00195312 800 l 2
 1020.00195312 811.038085938 1011.04003906 820 1000.00195312 820 c 2
 0.0029296875 820 l 2
20.0029296875 780 m 1
 980.001953125 780 l 1
 980.001953125 -179.999023438 l 1
 20.0029296875 -179.999023438 l 1
 20.0029296875 780 l 1
EndSplineSet
EndChar

StartChar: uniE012
Encoding: 57362 57362 38
Width: 1000
Flags: H
LayerCount: 2
Fore
SplineSet
73.802734375 -110.19921875 m 1
 915.801757812 -110.19921875 l 1
 915.801757812 679 l 1
 73.802734375 679 l 1
 73.802734375 -110.19921875 l 1
915.401367188 -109.798828125 m 1
 74.203125 -109.798828125 l 1
 74.203125 678.599609375 l 1
 915.401367188 678.599609375 l 1
 915.401367188 -109.798828125 l 1
895.202148438 -109.598632812 m 2
 906.240234375 -109.598632812 915.202148438 -100.63671875 915.202148438 -89.5986328125 c 2
 915.202148438 658.799804688 l 2
 915.202148438 669.837890625 906.240234375 678.799804688 895.202148438 678.799804688 c 2
 94.0029296875 678.799804688 l 2
 82.96484375 678.799804688 74.0029296875 669.837890625 74.0029296875 658.799804688 c 2
 74.0029296875 -89.5986328125 l 2
 74.0029296875 -100.63671875 82.96484375 -109.598632812 94.0029296875 -109.598632812 c 2
 895.202148438 -109.598632812 l 2
875.202148438 -69.5986328125 m 1
 114.002929688 -69.5986328125 l 1
 114.002929688 638.799804688 l 1
 875.202148438 638.799804688 l 1
 875.202148438 -69.5986328125 l 1
235.001953125 -12.19921875 m 1
 757.001953125 -12.19921875 l 1
 757.001953125 577.80078125 l 1
 235.001953125 577.80078125 l 1
 235.001953125 -12.19921875 l 1
756.6015625 -11.798828125 m 1
 235.40234375 -11.798828125 l 1
 235.40234375 577.400390625 l 1
 756.6015625 577.400390625 l 1
 756.6015625 -11.798828125 l 1
495.602539062 537.600585938 m 0
 618.044921875 537.600585938 716.40234375 422.67578125 716.40234375 282.80078125 c 0
 716.40234375 195.361328125 676.038085938 108.231445312 605.096679688 61.9658203125 c 0
 571.822265625 40.025390625 533.873046875 28.400390625 496.001953125 28.400390625 c 0
 372.665039062 28.400390625 275.202148438 144.580078125 275.202148438 282.80078125 c 0
 275.202148438 328.068359375 285.703125 372.25 305.46875 411.408203125 c 0
 324.791015625 450.051757812 352.912109375 482.126953125 386.506835938 504.036132812 c 0
 419.782226562 525.9765625 457.73046875 537.600585938 495.602539062 537.600585938 c 0
721.868164062 136.608398438 m 0
 794.552734375 280.606445312 747.548828125 458.884765625 626.990234375 537.509765625 c 0
 587.461914062 563.573242188 542.09765625 577.600585938 495.602539062 577.600585938 c 0
 449.474609375 577.600585938 404.221679688 563.625 364.697265625 537.565429688 c 0
 324.693359375 511.474609375 292.014648438 473.948242188 269.736328125 429.392578125 c 0
 197.169921875 285.62890625 243.8671875 107.240234375 364.61328125 28.4921875 c 0
 404.142578125 2.4287109375 449.506835938 -11.599609375 496.001953125 -11.599609375 c 0
 542.129882812 -11.599609375 587.3828125 2.376953125 626.90625 28.4365234375 c 0
 666.911132812 54.5263671875 699.58984375 92.052734375 721.868164062 136.608398438 c 0
-20.197265625 -220.598632812 m 1
 1020.6015625 -220.598632812 l 1
 1020.6015625 820.200195312 l 1
 -20.197265625 820.200195312 l 1
 -20.197265625 -220.598632812 l 1
1020.20117188 -220.198242188 m 1
 -19.796875 -220.198242188 l 1
 -19.796875 819.799804688 l 1
 1020.20117188 819.799804688 l 1
 1020.20117188 -220.198242188 l 1
0.0029296875 820 m 2
 -11.03515625 820 -19.9970703125 811.038085938 -19.9970703125 800 c 2
 -19.9970703125 -199.999023438 l 2
 -19.9970703125 -211.037109375 -11.03515625 -219.999023438 0.0029296875 -219.999023438 c 2
 1000.00195312 -219.999023438 l 2
 1011.04003906 -219.999023438 1020.00195312 -211.037109375 1020.00195312 -199.999023438 c 2
 1020.00195312 800 l 2
 1020.00195312 811.038085938 1011.04003906 820 1000.00195312 820 c 2
 0.0029296875 820 l 2
20.0029296875 780 m 1
 980.001953125 780 l 1
 980.001953125 -179.999023438 l 1
 20.0029296875 -179.999023438 l 1
 20.0029296875 780 l 1
EndSplineSet
EndChar

StartChar: Z
Encoding: 90 90 39
Width: 1000
Flags: H
LayerCount: 2
Fore
SplineSet
138.200195312 646.200195312 m 1
 865.799804688 646.200195312 l 1
 865.799804688 687 l 1
 138.200195312 687 l 1
 138.200195312 646.200195312 l 1
865.399414062 646.600585938 m 1
 138.600585938 646.600585938 l 1
 138.600585938 686.599609375 l 1
 865.399414062 686.599609375 l 1
 865.399414062 646.600585938 l 1
845.19921875 646.799804688 m 1
 845.19921875 686.799804688 l 1
 158.400390625 686.799804688 l 1
 158.400390625 646.799804688 l 1
 845.19921875 646.799804688 l 1
802.19921875 -77.3994140625 m 1
 843 -77.3994140625 l 1
 843 711.400390625 l 1
 802.19921875 711.400390625 l 1
 802.19921875 -77.3994140625 l 1
842.599609375 -76.9990234375 m 1
 802.599609375 -76.9990234375 l 1
 802.599609375 711 l 1
 842.599609375 711 l 1
 842.599609375 -76.9990234375 l 1
802.399414062 -56.798828125 m 1
 842.399414062 -56.798828125 l 1
 842.399414062 691.200195312 l 1
 802.399414062 691.200195312 l 1
 802.399414062 -56.798828125 l 1
161 -76.9990234375 m 1
 201.80078125 -76.9990234375 l 1
 201.80078125 711.80078125 l 1
 161 711.80078125 l 1
 161 -76.9990234375 l 1
201.400390625 -76.5986328125 m 1
 161.400390625 -76.5986328125 l 1
 161.400390625 711.400390625 l 1
 201.400390625 711.400390625 l 1
 201.400390625 -76.5986328125 l 1
161.200195312 -56.3994140625 m 1
 201.200195312 -56.3994140625 l 1
 201.200195312 691.600585938 l 1
 161.200195312 691.600585938 l 1
 161.200195312 -56.3994140625 l 1
261.799804688 -6.599609375 m 1
 783.399414062 -6.599609375 l 1
 783.399414062 584.200195312 l 1
 261.799804688 584.200195312 l 1
 261.799804688 -6.599609375 l 1
782.999023438 -6.19921875 m 1
 262.200195312 -6.19921875 l 1
 262.200195312 583.799804688 l 1
 782.999023438 583.799804688 l 1
 782.999023438 -6.19921875 l 1
522.399414062 543.600585938 m 0
 643.702148438 543.600585938 742.799804688 429.284179688 742.799804688 288.80078125 c 0
 742.799804688 221.7109375 720.09375 175.861328125 712.46484375 160.45703125 c 0
 693.143554688 121.442382812 665.051757812 89.4267578125 631.811523438 67.509765625 c 0
 598.068359375 45.50390625 560.264648438 34.0009765625 522.399414062 34.0009765625 c 0
 401.107421875 34.0009765625 302 148.306640625 302 288.80078125 c 0
 302 355.889648438 324.706054688 401.739257812 332.334960938 417.143554688 c 0
 351.65625 456.158203125 379.748046875 488.174804688 412.98828125 510.091796875 c 0
 446.732421875 532.09765625 484.53515625 543.600585938 522.399414062 543.600585938 c 0
522.399414062 583.600585938 m 0
 476.265625 583.600585938 430.868164062 569.50390625 391.01171875 543.509765625 c 0
 351.481445312 517.446289062 318.793945312 479.8984375 296.517578125 434.958984375 c 0
 273.87109375 390.482421875 262 340.2890625 262 288.80078125 c 0
 262 237.268554688 273.865234375 187.118164062 296.5 142.276367188 c 0
 318.77734375 97.720703125 351.40625 60.181640625 391.411132812 34.091796875 c 0
 430.935546875 8.03125 476.272460938 -5.9990234375 522.399414062 -5.9990234375 c 0
 568.534179688 -5.9990234375 613.931640625 8.09765625 653.788085938 34.091796875 c 0
 693.318359375 60.154296875 726.005859375 97.7021484375 748.282226562 142.641601562 c 0
 770.928710938 187.119140625 782.799804688 237.311523438 782.799804688 288.80078125 c 0
 782.799804688 340.33203125 770.934570312 390.483398438 748.299804688 435.325195312 c 0
 726.022460938 479.880859375 693.39453125 517.419921875 653.388671875 543.509765625 c 0
 613.864257812 569.5703125 568.52734375 583.600585938 522.399414062 583.600585938 c 0
-20.2001953125 -220.598632812 m 1
 1020.59960938 -220.598632812 l 1
 1020.59960938 820.200195312 l 1
 -20.2001953125 820.200195312 l 1
 -20.2001953125 -220.598632812 l 1
1020.19921875 -220.198242188 m 1
 -19.7998046875 -220.198242188 l 1
 -19.7998046875 819.799804688 l 1
 1020.19921875 819.799804688 l 1
 1020.19921875 -220.198242188 l 1
999.999023438 820 m 0
 0 820 0 820 0 820 c 2
 -11.0380859375 820 -20 811.038085938 -20 800 c 2
 -20 -199.999023438 l 2
 -20 -211.037109375 -11.0380859375 -219.999023438 0 -219.999023438 c 2
 999.999023438 -219.999023438 l 2
 1011.03710938 -219.999023438 1019.99902344 -211.037109375 1019.99902344 -199.999023438 c 2
 1019.99902344 800 l 2
 1019.99902344 811.038085938 1011.03710938 820 999.999023438 820 c 0
20 780 m 1
 979.999023438 780 l 1
 979.999023438 -179.999023438 l 1
 20 -179.999023438 l 1
 20 780 l 1
EndSplineSet
EndChar

StartChar: uniE013
Encoding: 57363 57363 40
Width: 1000
Flags: H
LayerCount: 2
Fore
SplineSet
138.200195312 646.200195312 m 1
 865.799804688 646.200195312 l 1
 865.799804688 687 l 1
 138.200195312 687 l 1
 138.200195312 646.200195312 l 1
865.399414062 646.600585938 m 1
 138.600585938 646.600585938 l 1
 138.600585938 686.599609375 l 1
 865.399414062 686.599609375 l 1
 865.399414062 646.600585938 l 1
845.19921875 646.799804688 m 1
 845.19921875 686.799804688 l 1
 158.400390625 686.799804688 l 1
 158.400390625 646.799804688 l 1
 845.19921875 646.799804688 l 1
802.19921875 -77.3994140625 m 1
 843 -77.3994140625 l 1
 843 711.400390625 l 1
 802.19921875 711.400390625 l 1
 802.19921875 -77.3994140625 l 1
842.599609375 -76.9990234375 m 1
 802.599609375 -76.9990234375 l 1
 802.599609375 711 l 1
 842.599609375 711 l 1
 842.599609375 -76.9990234375 l 1
802.399414062 -56.798828125 m 1
 842.399414062 -56.798828125 l 1
 842.399414062 691.200195312 l 1
 802.399414062 691.200195312 l 1
 802.399414062 -56.798828125 l 1
161 -76.9990234375 m 1
 201.80078125 -76.9990234375 l 1
 201.80078125 711.80078125 l 1
 161 711.80078125 l 1
 161 -76.9990234375 l 1
201.400390625 -76.5986328125 m 1
 161.400390625 -76.5986328125 l 1
 161.400390625 711.400390625 l 1
 201.400390625 711.400390625 l 1
 201.400390625 -76.5986328125 l 1
161.200195312 -56.3994140625 m 1
 201.200195312 -56.3994140625 l 1
 201.200195312 691.600585938 l 1
 161.200195312 691.600585938 l 1
 161.200195312 -56.3994140625 l 1
261.799804688 -6.599609375 m 1
 783.399414062 -6.599609375 l 1
 783.399414062 584.200195312 l 1
 261.799804688 584.200195312 l 1
 261.799804688 -6.599609375 l 1
782.999023438 -6.19921875 m 1
 262.200195312 -6.19921875 l 1
 262.200195312 583.799804688 l 1
 782.999023438 583.799804688 l 1
 782.999023438 -6.19921875 l 1
522.399414062 543.600585938 m 0
 643.702148438 543.600585938 742.799804688 429.284179688 742.799804688 288.80078125 c 0
 742.799804688 221.7109375 720.09375 175.861328125 712.46484375 160.45703125 c 0
 693.143554688 121.442382812 665.051757812 89.4267578125 631.811523438 67.509765625 c 0
 598.068359375 45.50390625 560.264648438 34.0009765625 522.399414062 34.0009765625 c 0
 401.107421875 34.0009765625 302 148.306640625 302 288.80078125 c 0
 302 355.889648438 324.706054688 401.739257812 332.334960938 417.143554688 c 0
 351.65625 456.158203125 379.748046875 488.174804688 412.98828125 510.091796875 c 0
 446.732421875 532.09765625 484.53515625 543.600585938 522.399414062 543.600585938 c 0
522.399414062 583.600585938 m 0
 476.265625 583.600585938 430.868164062 569.50390625 391.01171875 543.509765625 c 0
 351.481445312 517.446289062 318.793945312 479.8984375 296.517578125 434.958984375 c 0
 273.87109375 390.482421875 262 340.2890625 262 288.80078125 c 0
 262 237.268554688 273.865234375 187.118164062 296.5 142.276367188 c 0
 318.77734375 97.720703125 351.40625 60.181640625 391.411132812 34.091796875 c 0
 430.935546875 8.03125 476.272460938 -5.9990234375 522.399414062 -5.9990234375 c 0
 568.534179688 -5.9990234375 613.931640625 8.09765625 653.788085938 34.091796875 c 0
 693.318359375 60.154296875 726.005859375 97.7021484375 748.282226562 142.641601562 c 0
 770.928710938 187.119140625 782.799804688 237.311523438 782.799804688 288.80078125 c 0
 782.799804688 340.33203125 770.934570312 390.483398438 748.299804688 435.325195312 c 0
 726.022460938 479.880859375 693.39453125 517.419921875 653.388671875 543.509765625 c 0
 613.864257812 569.5703125 568.52734375 583.600585938 522.399414062 583.600585938 c 0
-20.2001953125 -220.598632812 m 1
 1020.59960938 -220.598632812 l 1
 1020.59960938 820.200195312 l 1
 -20.2001953125 820.200195312 l 1
 -20.2001953125 -220.598632812 l 1
1020.19921875 -220.198242188 m 1
 -19.7998046875 -220.198242188 l 1
 -19.7998046875 819.799804688 l 1
 1020.19921875 819.799804688 l 1
 1020.19921875 -220.198242188 l 1
999.999023438 820 m 0
 0 820 0 820 0 820 c 2
 -11.0380859375 820 -20 811.038085938 -20 800 c 2
 -20 -199.999023438 l 2
 -20 -211.037109375 -11.0380859375 -219.999023438 0 -219.999023438 c 2
 999.999023438 -219.999023438 l 2
 1011.03710938 -219.999023438 1019.99902344 -211.037109375 1019.99902344 -199.999023438 c 2
 1019.99902344 800 l 2
 1019.99902344 811.038085938 1011.03710938 820 999.999023438 820 c 0
20 780 m 1
 979.999023438 780 l 1
 979.999023438 -179.999023438 l 1
 20 -179.999023438 l 1
 20 780 l 1
EndSplineSet
EndChar

StartChar: J
Encoding: 74 74 41
Width: 1000
Flags: H
LayerCount: 2
Fore
SplineSet
802.999023438 -115.399414062 m 1
 843.799804688 -115.399414062 l 1
 843.799804688 726.600585938 l 1
 802.999023438 726.600585938 l 1
 802.999023438 -115.399414062 l 1
843.399414062 -114.999023438 m 1
 803.399414062 -114.999023438 l 1
 803.399414062 726.200195312 l 1
 843.399414062 726.200195312 l 1
 843.399414062 -114.999023438 l 1
803.19921875 -94.798828125 m 1
 843.19921875 -94.798828125 l 1
 843.19921875 706.400390625 l 1
 803.19921875 706.400390625 l 1
 803.19921875 -94.798828125 l 1
155 -115.399414062 m 1
 195.80078125 -115.399414062 l 1
 195.80078125 726.600585938 l 1
 155 726.600585938 l 1
 155 -115.399414062 l 1
195.400390625 -114.999023438 m 1
 155.400390625 -114.999023438 l 1
 155.400390625 726.200195312 l 1
 195.400390625 726.200195312 l 1
 195.400390625 -114.999023438 l 1
155.200195312 -94.798828125 m 1
 195.200195312 -94.798828125 l 1
 195.200195312 706.400390625 l 1
 155.200195312 706.400390625 l 1
 155.200195312 -94.798828125 l 1
155 -115.399414062 m 1
 844.599609375 -115.399414062 l 1
 844.599609375 727 l 1
 155 727 l 1
 155 -115.399414062 l 1
844.19921875 -114.999023438 m 1
 155.400390625 -114.999023438 l 1
 155.400390625 726.599609375 l 1
 844.19921875 726.599609375 l 1
 844.19921875 -114.999023438 l 1
159.650390625 -82.2255859375 m 1
 190.731445312 -107.39453125 l 1
 839.549804688 693.828125 l 1
 808.46875 718.997070312 l 1
 159.650390625 -82.2255859375 l 1
-20.2001953125 -220.598632812 m 1
 1020.59960938 -220.598632812 l 1
 1020.59960938 820.200195312 l 1
 -20.2001953125 820.200195312 l 1
 -20.2001953125 -220.598632812 l 1
1020.19921875 -220.198242188 m 1
 -19.7998046875 -220.198242188 l 1
 -19.7998046875 819.799804688 l 1
 1020.19921875 819.799804688 l 1
 1020.19921875 -220.198242188 l 1
1019.99902344 800 m 2
 1019.99902344 811.038085938 1011.03710938 820 999.999023438 820 c 2
 0 820 l 2
 -11.0380859375 820 -20 811.038085938 -20 800 c 2
 -20 -199.999023438 l 2
 -20 -211.037109375 -11.0380859375 -219.999023438 0 -219.999023438 c 2
 999.999023438 -219.999023438 l 2
 1011.03710938 -219.999023438 1019.99902344 -211.037109375 1019.99902344 -199.999023438 c 2
 1019.99902344 800 l 2
979.999023438 780 m 1
 979.999023438 -179.999023438 l 1
 20 -179.999023438 l 1
 20 780 l 1
 979.999023438 780 l 1
EndSplineSet
EndChar

StartChar: uniE014
Encoding: 57364 57364 42
Width: 1000
Flags: H
LayerCount: 2
Fore
SplineSet
802.999023438 -115.399414062 m 1
 843.799804688 -115.399414062 l 1
 843.799804688 726.600585938 l 1
 802.999023438 726.600585938 l 1
 802.999023438 -115.399414062 l 1
843.399414062 -114.999023438 m 1
 803.399414062 -114.999023438 l 1
 803.399414062 726.200195312 l 1
 843.399414062 726.200195312 l 1
 843.399414062 -114.999023438 l 1
803.19921875 -94.798828125 m 1
 843.19921875 -94.798828125 l 1
 843.19921875 706.400390625 l 1
 803.19921875 706.400390625 l 1
 803.19921875 -94.798828125 l 1
155 -115.399414062 m 1
 195.80078125 -115.399414062 l 1
 195.80078125 726.600585938 l 1
 155 726.600585938 l 1
 155 -115.399414062 l 1
195.400390625 -114.999023438 m 1
 155.400390625 -114.999023438 l 1
 155.400390625 726.200195312 l 1
 195.400390625 726.200195312 l 1
 195.400390625 -114.999023438 l 1
155.200195312 -94.798828125 m 1
 195.200195312 -94.798828125 l 1
 195.200195312 706.400390625 l 1
 155.200195312 706.400390625 l 1
 155.200195312 -94.798828125 l 1
155 -115.399414062 m 1
 844.599609375 -115.399414062 l 1
 844.599609375 727 l 1
 155 727 l 1
 155 -115.399414062 l 1
844.19921875 -114.999023438 m 1
 155.400390625 -114.999023438 l 1
 155.400390625 726.599609375 l 1
 844.19921875 726.599609375 l 1
 844.19921875 -114.999023438 l 1
159.650390625 -82.2255859375 m 1
 190.731445312 -107.39453125 l 1
 839.549804688 693.828125 l 1
 808.46875 718.997070312 l 1
 159.650390625 -82.2255859375 l 1
-20.2001953125 -220.598632812 m 1
 1020.59960938 -220.598632812 l 1
 1020.59960938 820.200195312 l 1
 -20.2001953125 820.200195312 l 1
 -20.2001953125 -220.598632812 l 1
1020.19921875 -220.198242188 m 1
 -19.7998046875 -220.198242188 l 1
 -19.7998046875 819.799804688 l 1
 1020.19921875 819.799804688 l 1
 1020.19921875 -220.198242188 l 1
1019.99902344 800 m 2
 1019.99902344 811.038085938 1011.03710938 820 999.999023438 820 c 2
 0 820 l 2
 -11.0380859375 820 -20 811.038085938 -20 800 c 2
 -20 -199.999023438 l 2
 -20 -211.037109375 -11.0380859375 -219.999023438 0 -219.999023438 c 2
 999.999023438 -219.999023438 l 2
 1011.03710938 -219.999023438 1019.99902344 -211.037109375 1019.99902344 -199.999023438 c 2
 1019.99902344 800 l 2
979.999023438 780 m 1
 979.999023438 -179.999023438 l 1
 20 -179.999023438 l 1
 20 780 l 1
 979.999023438 780 l 1
EndSplineSet
EndChar

StartChar: V
Encoding: 86 86 43
Width: 1000
Flags: H
LayerCount: 2
Fore
SplineSet
849.001953125 -141.399414062 m 1
 889.801757812 -141.399414062 l 1
 889.801757812 720.600585938 l 1
 849.001953125 720.600585938 l 1
 849.001953125 -141.399414062 l 1
889.401367188 -140.999023438 m 1
 849.40234375 -140.999023438 l 1
 849.40234375 720.200195312 l 1
 889.401367188 720.200195312 l 1
 889.401367188 -140.999023438 l 1
849.202148438 -120.798828125 m 1
 889.202148438 -120.798828125 l 1
 889.202148438 700.400390625 l 1
 849.202148438 700.400390625 l 1
 849.202148438 -120.798828125 l 1
84.6025390625 -114.599609375 m 1
 916.202148438 -114.599609375 l 1
 916.202148438 -73.798828125 l 1
 84.6025390625 -73.798828125 l 1
 84.6025390625 -114.599609375 l 1
915.801757812 -114.19921875 m 1
 85.0029296875 -114.19921875 l 1
 85.0029296875 -74.19921875 l 1
 915.801757812 -74.19921875 l 1
 915.801757812 -114.19921875 l 1
104.802734375 -73.9990234375 m 1
 104.802734375 -113.999023438 l 1
 895.6015625 -113.999023438 l 1
 895.6015625 -73.9990234375 l 1
 104.802734375 -73.9990234375 l 1
87.0029296875 -118.599609375 m 1
 919.001953125 -118.599609375 l 1
 919.001953125 743.80078125 l 1
 87.0029296875 743.80078125 l 1
 87.0029296875 -118.599609375 l 1
918.6015625 -118.19921875 m 1
 87.4033203125 -118.19921875 l 1
 87.4033203125 743.400390625 l 1
 918.6015625 743.400390625 l 1
 918.6015625 -118.19921875 l 1
121.608398438 737.46875 m 1
 92.7978515625 709.732421875 l 1
 883.997070312 -111.8671875 l 1
 912.807617188 -84.130859375 l 1
 121.608398438 737.46875 l 1
-20.197265625 -220.598632812 m 1
 1020.6015625 -220.598632812 l 1
 1020.6015625 820.200195312 l 1
 -20.197265625 820.200195312 l 1
 -20.197265625 -220.598632812 l 1
1020.20117188 -220.198242188 m 1
 -19.796875 -220.198242188 l 1
 -19.796875 819.799804688 l 1
 1020.20117188 819.799804688 l 1
 1020.20117188 -220.198242188 l 1
0.0029296875 -219.999023438 m 0
 1000.00195312 -219.999023438 1000.00195312 -219.999023438 1000.00195312 -219.999023438 c 2
 1011.04003906 -219.999023438 1020.00195312 -211.037109375 1020.00195312 -199.999023438 c 2
 1020.00195312 800 l 2
 1020.00195312 811.038085938 1011.04003906 820 1000.00195312 820 c 2
 0.0029296875 820 l 2
 -11.03515625 820 -19.9970703125 811.038085938 -19.9970703125 800 c 2
 -19.9970703125 -199.999023438 l 2
 -19.9970703125 -211.037109375 -11.03515625 -219.999023438 0.0029296875 -219.999023438 c 0
980.001953125 -179.999023438 m 1
 20.0029296875 -179.999023438 l 1
 20.0029296875 780 l 1
 980.001953125 780 l 1
 980.001953125 -179.999023438 l 1
EndSplineSet
EndChar

StartChar: uniE015
Encoding: 57365 57365 44
Width: 1000
Flags: H
LayerCount: 2
Fore
SplineSet
849.001953125 -141.399414062 m 1
 889.801757812 -141.399414062 l 1
 889.801757812 720.600585938 l 1
 849.001953125 720.600585938 l 1
 849.001953125 -141.399414062 l 1
889.401367188 -140.999023438 m 1
 849.40234375 -140.999023438 l 1
 849.40234375 720.200195312 l 1
 889.401367188 720.200195312 l 1
 889.401367188 -140.999023438 l 1
849.202148438 -120.798828125 m 1
 889.202148438 -120.798828125 l 1
 889.202148438 700.400390625 l 1
 849.202148438 700.400390625 l 1
 849.202148438 -120.798828125 l 1
84.6025390625 -114.599609375 m 1
 916.202148438 -114.599609375 l 1
 916.202148438 -73.798828125 l 1
 84.6025390625 -73.798828125 l 1
 84.6025390625 -114.599609375 l 1
915.801757812 -114.19921875 m 1
 85.0029296875 -114.19921875 l 1
 85.0029296875 -74.19921875 l 1
 915.801757812 -74.19921875 l 1
 915.801757812 -114.19921875 l 1
104.802734375 -73.9990234375 m 1
 104.802734375 -113.999023438 l 1
 895.6015625 -113.999023438 l 1
 895.6015625 -73.9990234375 l 1
 104.802734375 -73.9990234375 l 1
87.0029296875 -118.599609375 m 1
 919.001953125 -118.599609375 l 1
 919.001953125 743.80078125 l 1
 87.0029296875 743.80078125 l 1
 87.0029296875 -118.599609375 l 1
918.6015625 -118.19921875 m 1
 87.4033203125 -118.19921875 l 1
 87.4033203125 743.400390625 l 1
 918.6015625 743.400390625 l 1
 918.6015625 -118.19921875 l 1
121.608398438 737.46875 m 1
 92.7978515625 709.732421875 l 1
 883.997070312 -111.8671875 l 1
 912.807617188 -84.130859375 l 1
 121.608398438 737.46875 l 1
-20.197265625 -220.598632812 m 1
 1020.6015625 -220.598632812 l 1
 1020.6015625 820.200195312 l 1
 -20.197265625 820.200195312 l 1
 -20.197265625 -220.598632812 l 1
1020.20117188 -220.198242188 m 1
 -19.796875 -220.198242188 l 1
 -19.796875 819.799804688 l 1
 1020.20117188 819.799804688 l 1
 1020.20117188 -220.198242188 l 1
0.0029296875 -219.999023438 m 0
 1000.00195312 -219.999023438 1000.00195312 -219.999023438 1000.00195312 -219.999023438 c 2
 1011.04003906 -219.999023438 1020.00195312 -211.037109375 1020.00195312 -199.999023438 c 2
 1020.00195312 800 l 2
 1020.00195312 811.038085938 1011.04003906 820 1000.00195312 820 c 2
 0.0029296875 820 l 2
 -11.03515625 820 -19.9970703125 811.038085938 -19.9970703125 800 c 2
 -19.9970703125 -199.999023438 l 2
 -19.9970703125 -211.037109375 -11.03515625 -219.999023438 0.0029296875 -219.999023438 c 0
980.001953125 -179.999023438 m 1
 20.0029296875 -179.999023438 l 1
 20.0029296875 780 l 1
 980.001953125 780 l 1
 980.001953125 -179.999023438 l 1
EndSplineSet
EndChar

StartChar: x
Encoding: 120 120 45
Width: 1000
Flags: H
LayerCount: 2
Fore
SplineSet
801.40234375 -81 m 1
 842.202148438 -81 l 1
 842.202148438 707.400390625 l 1
 801.40234375 707.400390625 l 1
 801.40234375 -81 l 1
841.801757812 -80.599609375 m 1
 801.802734375 -80.599609375 l 1
 801.802734375 707 l 1
 841.801757812 707 l 1
 841.801757812 -80.599609375 l 1
841.602539062 687.200195312 m 1
 801.602539062 687.200195312 l 1
 801.602539062 -60.3994140625 l 1
 841.602539062 -60.3994140625 l 1
 841.602539062 687.200195312 l 1
137.40234375 642.599609375 m 1
 865.002929688 642.599609375 l 1
 865.002929688 683.400390625 l 1
 137.40234375 683.400390625 l 1
 137.40234375 642.599609375 l 1
864.602539062 643 m 1
 137.802734375 643 l 1
 137.802734375 683 l 1
 864.602539062 683 l 1
 864.602539062 643 l 1
157.602539062 683.200195312 m 1
 157.602539062 643.200195312 l 1
 844.40234375 643.200195312 l 1
 844.40234375 683.200195312 l 1
 157.602539062 683.200195312 l 1
137.40234375 -55.7998046875 m 1
 865.002929688 -55.7998046875 l 1
 865.002929688 -15 l 1
 137.40234375 -15 l 1
 137.40234375 -55.7998046875 l 1
864.602539062 -55.3994140625 m 1
 137.802734375 -55.3994140625 l 1
 137.802734375 -15.400390625 l 1
 864.602539062 -15.400390625 l 1
 864.602539062 -55.3994140625 l 1
157.602539062 -15.2001953125 m 1
 157.602539062 -55.2001953125 l 1
 844.40234375 -55.2001953125 l 1
 844.40234375 -15.2001953125 l 1
 157.602539062 -15.2001953125 l 1
261.801757812 -10.2001953125 m 1
 783.40234375 -10.2001953125 l 1
 783.40234375 579.400390625 l 1
 261.801757812 579.400390625 l 1
 261.801757812 -10.2001953125 l 1
783.001953125 -9.7998046875 m 1
 262.202148438 -9.7998046875 l 1
 262.202148438 579 l 1
 783.001953125 579 l 1
 783.001953125 -9.7998046875 l 1
522.40234375 539.200195312 m 0
 643.814453125 539.200195312 742.802734375 424.649414062 742.802734375 284.799804688 c 0
 742.802734375 146.256835938 645.209960938 30.400390625 522.40234375 30.400390625 c 0
 400.991210938 30.400390625 302.001953125 144.951171875 302.001953125 284.799804688 c 0
 302.001953125 423.344726562 399.594726562 539.200195312 522.40234375 539.200195312 c 0
522.40234375 -9.599609375 m 0
 666.873046875 -9.599609375 782.802734375 123.32421875 782.802734375 284.799804688 c 0
 782.802734375 335.91796875 770.9453125 386.46875 748.268554688 430.993164062 c 0
 725.991210938 475.51953125 693.375 513.033203125 653.390625 539.110351562 c 0
 613.866210938 565.169921875 568.530273438 579.200195312 522.40234375 579.200195312 c 0
 377.930664062 579.200195312 262.001953125 446.276367188 262.001953125 284.799804688 c 0
 262.001953125 233.681640625 273.859375 183.130859375 296.536132812 138.607421875 c 0
 318.813476562 94.0810546875 351.4296875 56.5673828125 391.4140625 30.4912109375 c 0
 430.938476562 4.4306640625 476.274414062 -9.599609375 522.40234375 -9.599609375 c 0
-20.1982421875 -220.599609375 m 1
 1020.60253906 -220.599609375 l 1
 1020.60253906 820.200195312 l 1
 -20.1982421875 820.200195312 l 1
 -20.1982421875 -220.599609375 l 1
1020.20214844 -220.19921875 m 1
 -19.7978515625 -220.19921875 l 1
 -19.7978515625 819.799804688 l 1
 1020.20214844 819.799804688 l 1
 1020.20214844 -220.19921875 l 1
1000.00195312 820 m 0
 0.001953125 820 0.001953125 820 0.001953125 820 c 2
 -11.0361328125 820 -19.998046875 811.038085938 -19.998046875 800 c 2
 -19.998046875 -200 l 2
 -19.998046875 -211.038085938 -11.0361328125 -220 0.001953125 -220 c 2
 1000.00195312 -220 l 2
 1011.04003906 -220 1020.00195312 -211.038085938 1020.00195312 -200 c 2
 1020.00195312 800 l 2
 1020.00195312 811.038085938 1011.04003906 820 1000.00195312 820 c 0
20.001953125 780 m 1
 980.001953125 780 l 1
 980.001953125 -180 l 1
 20.001953125 -180 l 1
 20.001953125 780 l 1
EndSplineSet
EndChar

StartChar: uniE016
Encoding: 57366 57366 46
Width: 1000
Flags: H
LayerCount: 2
Fore
SplineSet
801.40234375 -81 m 1
 842.202148438 -81 l 1
 842.202148438 707.400390625 l 1
 801.40234375 707.400390625 l 1
 801.40234375 -81 l 1
841.801757812 -80.599609375 m 1
 801.802734375 -80.599609375 l 1
 801.802734375 707 l 1
 841.801757812 707 l 1
 841.801757812 -80.599609375 l 1
841.602539062 687.200195312 m 1
 801.602539062 687.200195312 l 1
 801.602539062 -60.3994140625 l 1
 841.602539062 -60.3994140625 l 1
 841.602539062 687.200195312 l 1
137.40234375 642.599609375 m 1
 865.002929688 642.599609375 l 1
 865.002929688 683.400390625 l 1
 137.40234375 683.400390625 l 1
 137.40234375 642.599609375 l 1
864.602539062 643 m 1
 137.802734375 643 l 1
 137.802734375 683 l 1
 864.602539062 683 l 1
 864.602539062 643 l 1
157.602539062 683.200195312 m 1
 157.602539062 643.200195312 l 1
 844.40234375 643.200195312 l 1
 844.40234375 683.200195312 l 1
 157.602539062 683.200195312 l 1
137.40234375 -55.7998046875 m 1
 865.002929688 -55.7998046875 l 1
 865.002929688 -15 l 1
 137.40234375 -15 l 1
 137.40234375 -55.7998046875 l 1
864.602539062 -55.3994140625 m 1
 137.802734375 -55.3994140625 l 1
 137.802734375 -15.400390625 l 1
 864.602539062 -15.400390625 l 1
 864.602539062 -55.3994140625 l 1
157.602539062 -15.2001953125 m 1
 157.602539062 -55.2001953125 l 1
 844.40234375 -55.2001953125 l 1
 844.40234375 -15.2001953125 l 1
 157.602539062 -15.2001953125 l 1
261.801757812 -10.2001953125 m 1
 783.40234375 -10.2001953125 l 1
 783.40234375 579.400390625 l 1
 261.801757812 579.400390625 l 1
 261.801757812 -10.2001953125 l 1
783.001953125 -9.7998046875 m 1
 262.202148438 -9.7998046875 l 1
 262.202148438 579 l 1
 783.001953125 579 l 1
 783.001953125 -9.7998046875 l 1
522.40234375 539.200195312 m 0
 643.814453125 539.200195312 742.802734375 424.649414062 742.802734375 284.799804688 c 0
 742.802734375 146.256835938 645.209960938 30.400390625 522.40234375 30.400390625 c 0
 400.991210938 30.400390625 302.001953125 144.951171875 302.001953125 284.799804688 c 0
 302.001953125 423.344726562 399.594726562 539.200195312 522.40234375 539.200195312 c 0
522.40234375 -9.599609375 m 0
 666.873046875 -9.599609375 782.802734375 123.32421875 782.802734375 284.799804688 c 0
 782.802734375 335.91796875 770.9453125 386.46875 748.268554688 430.993164062 c 0
 725.991210938 475.51953125 693.375 513.033203125 653.390625 539.110351562 c 0
 613.866210938 565.169921875 568.530273438 579.200195312 522.40234375 579.200195312 c 0
 377.930664062 579.200195312 262.001953125 446.276367188 262.001953125 284.799804688 c 0
 262.001953125 233.681640625 273.859375 183.130859375 296.536132812 138.607421875 c 0
 318.813476562 94.0810546875 351.4296875 56.5673828125 391.4140625 30.4912109375 c 0
 430.938476562 4.4306640625 476.274414062 -9.599609375 522.40234375 -9.599609375 c 0
-20.1982421875 -220.599609375 m 1
 1020.60253906 -220.599609375 l 1
 1020.60253906 820.200195312 l 1
 -20.1982421875 820.200195312 l 1
 -20.1982421875 -220.599609375 l 1
1020.20214844 -220.19921875 m 1
 -19.7978515625 -220.19921875 l 1
 -19.7978515625 819.799804688 l 1
 1020.20214844 819.799804688 l 1
 1020.20214844 -220.19921875 l 1
1000.00195312 820 m 0
 0.001953125 820 0.001953125 820 0.001953125 820 c 2
 -11.0361328125 820 -19.998046875 811.038085938 -19.998046875 800 c 2
 -19.998046875 -200 l 2
 -19.998046875 -211.038085938 -11.0361328125 -220 0.001953125 -220 c 2
 1000.00195312 -220 l 2
 1011.04003906 -220 1020.00195312 -211.038085938 1020.00195312 -200 c 2
 1020.00195312 800 l 2
 1020.00195312 811.038085938 1011.04003906 820 1000.00195312 820 c 0
20.001953125 780 m 1
 980.001953125 780 l 1
 980.001953125 -180 l 1
 20.001953125 -180 l 1
 20.001953125 780 l 1
EndSplineSet
EndChar

StartChar: o
Encoding: 111 111 47
Width: 1000
Flags: H
LayerCount: 2
Fore
SplineSet
70.5986328125 -79.7998046875 m 1
 912.599609375 -79.7998046875 l 1
 912.599609375 709.799804688 l 1
 70.5986328125 709.799804688 l 1
 70.5986328125 -79.7998046875 l 1
912.19921875 -79.3994140625 m 1
 70.9990234375 -79.3994140625 l 1
 70.9990234375 709.399414062 l 1
 912.19921875 709.399414062 l 1
 912.19921875 -79.3994140625 l 1
891.999023438 -79.2001953125 m 2
 903.037109375 -79.2001953125 911.999023438 -70.23828125 911.999023438 -59.2001953125 c 2
 911.999023438 689.599609375 l 2
 911.999023438 700.637695312 903.037109375 709.599609375 891.999023438 709.599609375 c 2
 90.798828125 709.599609375 l 2
 79.7607421875 709.599609375 70.798828125 700.637695312 70.798828125 689.599609375 c 2
 70.798828125 -59.2001953125 l 2
 70.798828125 -70.23828125 79.7607421875 -79.2001953125 90.798828125 -79.2001953125 c 2
 891.999023438 -79.2001953125 l 2
871.999023438 -39.2001953125 m 1
 110.798828125 -39.2001953125 l 1
 110.798828125 669.599609375 l 1
 871.999023438 669.599609375 l 1
 871.999023438 -39.2001953125 l 1
73.3994140625 -53.7998046875 m 1
 916.19921875 -53.7998046875 l 1
 916.19921875 735.400390625 l 1
 73.3994140625 735.400390625 l 1
 73.3994140625 -53.7998046875 l 1
915.798828125 -53.3994140625 m 1
 73.7998046875 -53.3994140625 l 1
 73.7998046875 735 l 1
 915.798828125 735 l 1
 915.798828125 -53.3994140625 l 1
909.2421875 700.580078125 m 1
 881.95703125 729.819335938 l 1
 80.3564453125 -18.580078125 l 1
 107.641601562 -47.8203125 l 1
 909.2421875 700.580078125 l 1
-20.201171875 -220.599609375 m 1
 1020.59960938 -220.599609375 l 1
 1020.59960938 820.200195312 l 1
 -20.201171875 820.200195312 l 1
 -20.201171875 -220.599609375 l 1
1020.19921875 -220.19921875 m 1
 -19.80078125 -220.19921875 l 1
 -19.80078125 819.799804688 l 1
 1020.19921875 819.799804688 l 1
 1020.19921875 -220.19921875 l 1
999.999023438 820 m 0
 -0.0009765625 820 -0.0009765625 820 -0.0009765625 820 c 2
 -11.0390625 820 -20.0009765625 811.038085938 -20.0009765625 800 c 2
 -20.0009765625 -200 l 2
 -20.0009765625 -211.038085938 -11.0390625 -220 -0.0009765625 -220 c 2
 999.999023438 -220 l 2
 1011.03710938 -220 1019.99902344 -211.038085938 1019.99902344 -200 c 2
 1019.99902344 800 l 2
 1019.99902344 811.038085938 1011.03710938 820 999.999023438 820 c 0
19.9990234375 780 m 1
 979.999023438 780 l 1
 979.999023438 -180 l 1
 19.9990234375 -180 l 1
 19.9990234375 780 l 1
EndSplineSet
EndChar

StartChar: uniE017
Encoding: 57367 57367 48
Width: 1000
Flags: H
LayerCount: 2
Fore
SplineSet
70.5986328125 -79.7998046875 m 1
 912.599609375 -79.7998046875 l 1
 912.599609375 709.799804688 l 1
 70.5986328125 709.799804688 l 1
 70.5986328125 -79.7998046875 l 1
912.19921875 -79.3994140625 m 1
 70.9990234375 -79.3994140625 l 1
 70.9990234375 709.399414062 l 1
 912.19921875 709.399414062 l 1
 912.19921875 -79.3994140625 l 1
891.999023438 -79.2001953125 m 2
 903.037109375 -79.2001953125 911.999023438 -70.23828125 911.999023438 -59.2001953125 c 2
 911.999023438 689.599609375 l 2
 911.999023438 700.637695312 903.037109375 709.599609375 891.999023438 709.599609375 c 2
 90.798828125 709.599609375 l 2
 79.7607421875 709.599609375 70.798828125 700.637695312 70.798828125 689.599609375 c 2
 70.798828125 -59.2001953125 l 2
 70.798828125 -70.23828125 79.7607421875 -79.2001953125 90.798828125 -79.2001953125 c 2
 891.999023438 -79.2001953125 l 2
871.999023438 -39.2001953125 m 1
 110.798828125 -39.2001953125 l 1
 110.798828125 669.599609375 l 1
 871.999023438 669.599609375 l 1
 871.999023438 -39.2001953125 l 1
73.3994140625 -53.7998046875 m 1
 916.19921875 -53.7998046875 l 1
 916.19921875 735.400390625 l 1
 73.3994140625 735.400390625 l 1
 73.3994140625 -53.7998046875 l 1
915.798828125 -53.3994140625 m 1
 73.7998046875 -53.3994140625 l 1
 73.7998046875 735 l 1
 915.798828125 735 l 1
 915.798828125 -53.3994140625 l 1
909.2421875 700.580078125 m 1
 881.95703125 729.819335938 l 1
 80.3564453125 -18.580078125 l 1
 107.641601562 -47.8203125 l 1
 909.2421875 700.580078125 l 1
-20.201171875 -220.599609375 m 1
 1020.59960938 -220.599609375 l 1
 1020.59960938 820.200195312 l 1
 -20.201171875 820.200195312 l 1
 -20.201171875 -220.599609375 l 1
1020.19921875 -220.19921875 m 1
 -19.80078125 -220.19921875 l 1
 -19.80078125 819.799804688 l 1
 1020.19921875 819.799804688 l 1
 1020.19921875 -220.19921875 l 1
999.999023438 820 m 0
 -0.0009765625 820 -0.0009765625 820 -0.0009765625 820 c 2
 -11.0390625 820 -20.0009765625 811.038085938 -20.0009765625 800 c 2
 -20.0009765625 -200 l 2
 -20.0009765625 -211.038085938 -11.0390625 -220 -0.0009765625 -220 c 2
 999.999023438 -220 l 2
 1011.03710938 -220 1019.99902344 -211.038085938 1019.99902344 -200 c 2
 1019.99902344 800 l 2
 1019.99902344 811.038085938 1011.03710938 820 999.999023438 820 c 0
19.9990234375 780 m 1
 979.999023438 780 l 1
 979.999023438 -180 l 1
 19.9990234375 -180 l 1
 19.9990234375 780 l 1
EndSplineSet
EndChar

StartChar: h
Encoding: 104 104 49
Width: 1000
Flags: H
LayerCount: 2
Fore
SplineSet
79.0009765625 618.200195312 m 1
 921.000976562 618.200195312 l 1
 921.000976562 659 l 1
 79.0009765625 659 l 1
 79.0009765625 618.200195312 l 1
920.600585938 618.600585938 m 1
 79.4013671875 618.600585938 l 1
 79.4013671875 658.599609375 l 1
 920.600585938 658.599609375 l 1
 920.600585938 618.600585938 l 1
900.401367188 618.799804688 m 1
 900.401367188 658.799804688 l 1
 99.201171875 658.799804688 l 1
 99.201171875 618.799804688 l 1
 900.401367188 618.799804688 l 1
79.0009765625 -30.599609375 m 1
 921.000976562 -30.599609375 l 1
 921.000976562 10.2001953125 l 1
 79.0009765625 10.2001953125 l 1
 79.0009765625 -30.599609375 l 1
920.600585938 -30.19921875 m 1
 79.4013671875 -30.19921875 l 1
 79.4013671875 9.7998046875 l 1
 920.600585938 9.7998046875 l 1
 920.600585938 -30.19921875 l 1
900.401367188 -30 m 1
 900.401367188 10 l 1
 99.201171875 10 l 1
 99.201171875 -30 l 1
 900.401367188 -30 l 1
78.6005859375 -30.599609375 m 1
 921.000976562 -30.599609375 l 1
 921.000976562 659 l 1
 78.6005859375 659 l 1
 78.6005859375 -30.599609375 l 1
920.600585938 -30.19921875 m 1
 79.0009765625 -30.19921875 l 1
 79.0009765625 658.599609375 l 1
 920.600585938 658.599609375 l 1
 920.600585938 -30.19921875 l 1
887.829101562 -25.5498046875 m 1
 912.998046875 5.53125 l 1
 111.774414062 654.349609375 l 1
 86.60546875 623.268554688 l 1
 887.829101562 -25.5498046875 l 1
-20.19921875 -220.599609375 m 1
 1020.6015625 -220.599609375 l 1
 1020.6015625 820.200195312 l 1
 -20.19921875 820.200195312 l 1
 -20.19921875 -220.599609375 l 1
1020.20117188 -220.19921875 m 1
 -19.798828125 -220.19921875 l 1
 -19.798828125 819.799804688 l 1
 1020.20117188 819.799804688 l 1
 1020.20117188 -220.19921875 l 1
1000.00097656 820 m 0
 0.0009765625 820 0.0009765625 820 0.0009765625 820 c 2
 -11.037109375 820 -19.9990234375 811.038085938 -19.9990234375 800 c 2
 -19.9990234375 -200 l 2
 -19.9990234375 -211.038085938 -11.037109375 -220 0.0009765625 -220 c 2
 1000.00097656 -220 l 2
 1011.0390625 -220 1020.00097656 -211.038085938 1020.00097656 -200 c 2
 1020.00097656 800 l 2
 1020.00097656 811.038085938 1011.0390625 820 1000.00097656 820 c 0
20.0009765625 780 m 1
 980.000976562 780 l 1
 980.000976562 -180 l 1
 20.0009765625 -180 l 1
 20.0009765625 780 l 1
EndSplineSet
EndChar

StartChar: uniE018
Encoding: 57368 57368 50
Width: 1000
Flags: H
LayerCount: 2
Fore
SplineSet
79.0009765625 618.200195312 m 1
 921.000976562 618.200195312 l 1
 921.000976562 659 l 1
 79.0009765625 659 l 1
 79.0009765625 618.200195312 l 1
920.600585938 618.600585938 m 1
 79.4013671875 618.600585938 l 1
 79.4013671875 658.599609375 l 1
 920.600585938 658.599609375 l 1
 920.600585938 618.600585938 l 1
900.401367188 618.799804688 m 1
 900.401367188 658.799804688 l 1
 99.201171875 658.799804688 l 1
 99.201171875 618.799804688 l 1
 900.401367188 618.799804688 l 1
79.0009765625 -30.599609375 m 1
 921.000976562 -30.599609375 l 1
 921.000976562 10.2001953125 l 1
 79.0009765625 10.2001953125 l 1
 79.0009765625 -30.599609375 l 1
920.600585938 -30.19921875 m 1
 79.4013671875 -30.19921875 l 1
 79.4013671875 9.7998046875 l 1
 920.600585938 9.7998046875 l 1
 920.600585938 -30.19921875 l 1
900.401367188 -30 m 1
 900.401367188 10 l 1
 99.201171875 10 l 1
 99.201171875 -30 l 1
 900.401367188 -30 l 1
78.6005859375 -30.599609375 m 1
 921.000976562 -30.599609375 l 1
 921.000976562 659 l 1
 78.6005859375 659 l 1
 78.6005859375 -30.599609375 l 1
920.600585938 -30.19921875 m 1
 79.0009765625 -30.19921875 l 1
 79.0009765625 658.599609375 l 1
 920.600585938 658.599609375 l 1
 920.600585938 -30.19921875 l 1
887.829101562 -25.5498046875 m 1
 912.998046875 5.53125 l 1
 111.774414062 654.349609375 l 1
 86.60546875 623.268554688 l 1
 887.829101562 -25.5498046875 l 1
-20.19921875 -220.599609375 m 1
 1020.6015625 -220.599609375 l 1
 1020.6015625 820.200195312 l 1
 -20.19921875 820.200195312 l 1
 -20.19921875 -220.599609375 l 1
1020.20117188 -220.19921875 m 1
 -19.798828125 -220.19921875 l 1
 -19.798828125 819.799804688 l 1
 1020.20117188 819.799804688 l 1
 1020.20117188 -220.19921875 l 1
1000.00097656 820 m 0
 0.0009765625 820 0.0009765625 820 0.0009765625 820 c 2
 -11.037109375 820 -19.9990234375 811.038085938 -19.9990234375 800 c 2
 -19.9990234375 -200 l 2
 -19.9990234375 -211.038085938 -11.037109375 -220 0.0009765625 -220 c 2
 1000.00097656 -220 l 2
 1011.0390625 -220 1020.00097656 -211.038085938 1020.00097656 -200 c 2
 1020.00097656 800 l 2
 1020.00097656 811.038085938 1011.0390625 820 1000.00097656 820 c 0
20.0009765625 780 m 1
 980.000976562 780 l 1
 980.000976562 -180 l 1
 20.0009765625 -180 l 1
 20.0009765625 780 l 1
EndSplineSet
EndChar

StartChar: G
Encoding: 71 71 51
Width: 1000
Flags: H
LayerCount: 2
Fore
SplineSet
806.200195312 -112.599609375 m 1
 847.000976562 -112.599609375 l 1
 847.000976562 729.799804688 l 1
 806.200195312 729.799804688 l 1
 806.200195312 -112.599609375 l 1
846.600585938 -112.19921875 m 1
 806.600585938 -112.19921875 l 1
 806.600585938 729.399414062 l 1
 846.600585938 729.399414062 l 1
 846.600585938 -112.19921875 l 1
806.400390625 -92 m 1
 846.400390625 -92 l 1
 846.400390625 709.599609375 l 1
 806.400390625 709.599609375 l 1
 806.400390625 -92 l 1
157.80078125 -112.599609375 m 1
 198.600585938 -112.599609375 l 1
 198.600585938 729.799804688 l 1
 157.80078125 729.799804688 l 1
 157.80078125 -112.599609375 l 1
198.200195312 -112.19921875 m 1
 158.201171875 -112.19921875 l 1
 158.201171875 729.399414062 l 1
 198.200195312 729.399414062 l 1
 198.200195312 -112.19921875 l 1
158.000976562 -92 m 1
 198.000976562 -92 l 1
 198.000976562 709.599609375 l 1
 158.000976562 709.599609375 l 1
 158.000976562 -92 l 1
157.80078125 -112.599609375 m 1
 847.80078125 -112.599609375 l 1
 847.80078125 729.799804688 l 1
 157.80078125 729.799804688 l 1
 157.80078125 -112.599609375 l 1
847.400390625 -112.19921875 m 1
 158.201171875 -112.19921875 l 1
 158.201171875 729.399414062 l 1
 847.400390625 729.399414062 l 1
 847.400390625 -112.19921875 l 1
162.451171875 -79.42578125 m 1
 193.53125 -104.596679688 l 1
 842.75 697.026367188 l 1
 811.670898438 722.196289062 l 1
 162.451171875 -79.42578125 l 1
222.200195312 34.599609375 m 1
 787.000976562 34.599609375 l 1
 787.000976562 579.400390625 l 1
 222.200195312 579.400390625 l 1
 222.200195312 34.599609375 l 1
786.600585938 35 m 1
 222.600585938 35 l 1
 222.600585938 579 l 1
 786.600585938 579 l 1
 786.600585938 35 l 1
504.400390625 539.200195312 m 0
 638.28125 539.200195312 746.400390625 434.928710938 746.400390625 307.200195312 c 0
 746.400390625 180.403320312 639.474609375 75.2001953125 504.400390625 75.2001953125 c 0
 370.521484375 75.2001953125 262.400390625 179.471679688 262.400390625 307.200195312 c 0
 262.400390625 433.994140625 369.325195312 539.200195312 504.400390625 539.200195312 c 0
786.400390625 307.200195312 m 0
 786.400390625 456.782226562 660.59375 579.200195312 504.400390625 579.200195312 c 0
 347.026367188 579.200195312 222.400390625 455.87890625 222.400390625 307.200195312 c 0
 222.400390625 157.610351562 348.217773438 35.2001953125 504.400390625 35.2001953125 c 0
 661.776367188 35.2001953125 786.400390625 158.521484375 786.400390625 307.200195312 c 0
-20.19921875 -220.599609375 m 1
 1020.60058594 -220.599609375 l 1
 1020.60058594 820.200195312 l 1
 -20.19921875 820.200195312 l 1
 -20.19921875 -220.599609375 l 1
1020.20019531 -220.19921875 m 1
 -19.798828125 -220.19921875 l 1
 -19.798828125 819.799804688 l 1
 1020.20019531 819.799804688 l 1
 1020.20019531 -220.19921875 l 1
1020.00097656 -200 m 0
 1020.00097656 800 1020.00097656 800 1020.00097656 800 c 2
 1020.00097656 811.038085938 1011.0390625 820 1000.00097656 820 c 2
 0.0009765625 820 l 2
 -11.037109375 820 -19.9990234375 811.038085938 -19.9990234375 800 c 2
 -19.9990234375 -200 l 2
 -19.9990234375 -211.038085938 -11.037109375 -220 0.0009765625 -220 c 2
 1000.00097656 -220 l 2
 1011.0390625 -220 1020.00097656 -211.038085938 1020.00097656 -200 c 0
980.000976562 780 m 1
 980.000976562 -180 l 1
 20.0009765625 -180 l 1
 20.0009765625 780 l 1
 980.000976562 780 l 1
EndSplineSet
EndChar

StartChar: uniE019
Encoding: 57369 57369 52
Width: 1000
Flags: H
LayerCount: 2
Fore
SplineSet
806.200195312 -112.599609375 m 1
 847.000976562 -112.599609375 l 1
 847.000976562 729.799804688 l 1
 806.200195312 729.799804688 l 1
 806.200195312 -112.599609375 l 1
846.600585938 -112.19921875 m 1
 806.600585938 -112.19921875 l 1
 806.600585938 729.399414062 l 1
 846.600585938 729.399414062 l 1
 846.600585938 -112.19921875 l 1
806.400390625 -92 m 1
 846.400390625 -92 l 1
 846.400390625 709.599609375 l 1
 806.400390625 709.599609375 l 1
 806.400390625 -92 l 1
157.80078125 -112.599609375 m 1
 198.600585938 -112.599609375 l 1
 198.600585938 729.799804688 l 1
 157.80078125 729.799804688 l 1
 157.80078125 -112.599609375 l 1
198.200195312 -112.19921875 m 1
 158.201171875 -112.19921875 l 1
 158.201171875 729.399414062 l 1
 198.200195312 729.399414062 l 1
 198.200195312 -112.19921875 l 1
158.000976562 -92 m 1
 198.000976562 -92 l 1
 198.000976562 709.599609375 l 1
 158.000976562 709.599609375 l 1
 158.000976562 -92 l 1
157.80078125 -112.599609375 m 1
 847.80078125 -112.599609375 l 1
 847.80078125 729.799804688 l 1
 157.80078125 729.799804688 l 1
 157.80078125 -112.599609375 l 1
847.400390625 -112.19921875 m 1
 158.201171875 -112.19921875 l 1
 158.201171875 729.399414062 l 1
 847.400390625 729.399414062 l 1
 847.400390625 -112.19921875 l 1
162.451171875 -79.42578125 m 1
 193.53125 -104.596679688 l 1
 842.75 697.026367188 l 1
 811.670898438 722.196289062 l 1
 162.451171875 -79.42578125 l 1
222.200195312 34.599609375 m 1
 787.000976562 34.599609375 l 1
 787.000976562 579.400390625 l 1
 222.200195312 579.400390625 l 1
 222.200195312 34.599609375 l 1
786.600585938 35 m 1
 222.600585938 35 l 1
 222.600585938 579 l 1
 786.600585938 579 l 1
 786.600585938 35 l 1
504.400390625 539.200195312 m 0
 638.28125 539.200195312 746.400390625 434.928710938 746.400390625 307.200195312 c 0
 746.400390625 180.403320312 639.474609375 75.2001953125 504.400390625 75.2001953125 c 0
 370.521484375 75.2001953125 262.400390625 179.471679688 262.400390625 307.200195312 c 0
 262.400390625 433.994140625 369.325195312 539.200195312 504.400390625 539.200195312 c 0
786.400390625 307.200195312 m 0
 786.400390625 456.782226562 660.59375 579.200195312 504.400390625 579.200195312 c 0
 347.026367188 579.200195312 222.400390625 455.87890625 222.400390625 307.200195312 c 0
 222.400390625 157.610351562 348.217773438 35.2001953125 504.400390625 35.2001953125 c 0
 661.776367188 35.2001953125 786.400390625 158.521484375 786.400390625 307.200195312 c 0
-20.19921875 -220.599609375 m 1
 1020.60058594 -220.599609375 l 1
 1020.60058594 820.200195312 l 1
 -20.19921875 820.200195312 l 1
 -20.19921875 -220.599609375 l 1
1020.20019531 -220.19921875 m 1
 -19.798828125 -220.19921875 l 1
 -19.798828125 819.799804688 l 1
 1020.20019531 819.799804688 l 1
 1020.20019531 -220.19921875 l 1
1020.00097656 -200 m 0
 1020.00097656 800 1020.00097656 800 1020.00097656 800 c 2
 1020.00097656 811.038085938 1011.0390625 820 1000.00097656 820 c 2
 0.0009765625 820 l 2
 -11.037109375 820 -19.9990234375 811.038085938 -19.9990234375 800 c 2
 -19.9990234375 -200 l 2
 -19.9990234375 -211.038085938 -11.037109375 -220 0.0009765625 -220 c 2
 1000.00097656 -220 l 2
 1011.0390625 -220 1020.00097656 -211.038085938 1020.00097656 -200 c 0
980.000976562 780 m 1
 980.000976562 -180 l 1
 20.0009765625 -180 l 1
 20.0009765625 780 l 1
 980.000976562 780 l 1
EndSplineSet
EndChar

StartChar: K
Encoding: 75 75 53
Width: 1000
Flags: H
LayerCount: 2
Fore
SplineSet
73.7998046875 -102.200195312 m 1
 915.799804688 -102.200195312 l 1
 915.799804688 687 l 1
 73.7998046875 687 l 1
 73.7998046875 -102.200195312 l 1
915.399414062 -101.799804688 m 1
 74.2001953125 -101.799804688 l 1
 74.2001953125 686.599609375 l 1
 915.399414062 686.599609375 l 1
 915.399414062 -101.799804688 l 1
895.200195312 -101.599609375 m 2
 906.23828125 -101.599609375 915.200195312 -92.6376953125 915.200195312 -81.599609375 c 2
 915.200195312 666.799804688 l 2
 915.200195312 677.837890625 906.23828125 686.799804688 895.200195312 686.799804688 c 2
 94 686.799804688 l 2
 82.9619140625 686.799804688 74 677.837890625 74 666.799804688 c 2
 74 -81.599609375 l 2
 74 -92.6376953125 82.9619140625 -101.599609375 94 -101.599609375 c 2
 895.200195312 -101.599609375 l 2
875.200195312 -61.599609375 m 1
 114 -61.599609375 l 1
 114 646.799804688 l 1
 875.200195312 646.799804688 l 1
 875.200195312 -61.599609375 l 1
74.19921875 -77.7998046875 m 1
 916.599609375 -77.7998046875 l 1
 916.599609375 711.400390625 l 1
 74.19921875 711.400390625 l 1
 74.19921875 -77.7998046875 l 1
916.19921875 -77.3994140625 m 1
 74.599609375 -77.3994140625 l 1
 74.599609375 711 l 1
 916.19921875 711 l 1
 916.19921875 -77.3994140625 l 1
108.041992188 705.819335938 m 1
 80.7490234375 676.587890625 l 1
 882.357421875 -71.8203125 l 1
 909.650390625 -42.587890625 l 1
 108.041992188 705.819335938 l 1
-20.2001953125 -220.599609375 m 1
 1020.59960938 -220.599609375 l 1
 1020.59960938 820.200195312 l 1
 -20.2001953125 820.200195312 l 1
 -20.2001953125 -220.599609375 l 1
1020.19921875 -220.19921875 m 1
 -19.7998046875 -220.19921875 l 1
 -19.7998046875 819.799804688 l 1
 1020.19921875 819.799804688 l 1
 1020.19921875 -220.19921875 l 1
1000 820 m 0
 0 820 0 820 0 820 c 2
 -11.0380859375 820 -20 811.038085938 -20 800 c 2
 -20 -200 l 2
 -20 -211.038085938 -11.0380859375 -220 0 -220 c 2
 1000 -220 l 2
 1011.03808594 -220 1020 -211.038085938 1020 -200 c 2
 1020 800 l 2
 1020 811.038085938 1011.03808594 820 1000 820 c 0
20 780 m 1
 980 780 l 1
 980 -180 l 1
 20 -180 l 1
 20 780 l 1
EndSplineSet
EndChar

StartChar: uniE01A
Encoding: 57370 57370 54
Width: 1000
Flags: H
LayerCount: 2
Fore
SplineSet
73.7998046875 -102.200195312 m 1
 915.799804688 -102.200195312 l 1
 915.799804688 687 l 1
 73.7998046875 687 l 1
 73.7998046875 -102.200195312 l 1
915.399414062 -101.799804688 m 1
 74.2001953125 -101.799804688 l 1
 74.2001953125 686.599609375 l 1
 915.399414062 686.599609375 l 1
 915.399414062 -101.799804688 l 1
895.200195312 -101.599609375 m 2
 906.23828125 -101.599609375 915.200195312 -92.6376953125 915.200195312 -81.599609375 c 2
 915.200195312 666.799804688 l 2
 915.200195312 677.837890625 906.23828125 686.799804688 895.200195312 686.799804688 c 2
 94 686.799804688 l 2
 82.9619140625 686.799804688 74 677.837890625 74 666.799804688 c 2
 74 -81.599609375 l 2
 74 -92.6376953125 82.9619140625 -101.599609375 94 -101.599609375 c 2
 895.200195312 -101.599609375 l 2
875.200195312 -61.599609375 m 1
 114 -61.599609375 l 1
 114 646.799804688 l 1
 875.200195312 646.799804688 l 1
 875.200195312 -61.599609375 l 1
74.19921875 -77.7998046875 m 1
 916.599609375 -77.7998046875 l 1
 916.599609375 711.400390625 l 1
 74.19921875 711.400390625 l 1
 74.19921875 -77.7998046875 l 1
916.19921875 -77.3994140625 m 1
 74.599609375 -77.3994140625 l 1
 74.599609375 711 l 1
 916.19921875 711 l 1
 916.19921875 -77.3994140625 l 1
108.041992188 705.819335938 m 1
 80.7490234375 676.587890625 l 1
 882.357421875 -71.8203125 l 1
 909.650390625 -42.587890625 l 1
 108.041992188 705.819335938 l 1
-20.2001953125 -220.599609375 m 1
 1020.59960938 -220.599609375 l 1
 1020.59960938 820.200195312 l 1
 -20.2001953125 820.200195312 l 1
 -20.2001953125 -220.599609375 l 1
1020.19921875 -220.19921875 m 1
 -19.7998046875 -220.19921875 l 1
 -19.7998046875 819.799804688 l 1
 1020.19921875 819.799804688 l 1
 1020.19921875 -220.19921875 l 1
1000 820 m 0
 0 820 0 820 0 820 c 2
 -11.0380859375 820 -20 811.038085938 -20 800 c 2
 -20 -200 l 2
 -20 -211.038085938 -11.0380859375 -220 0 -220 c 2
 1000 -220 l 2
 1011.03808594 -220 1020 -211.038085938 1020 -200 c 2
 1020 800 l 2
 1020 811.038085938 1011.03808594 820 1000 820 c 0
20 780 m 1
 980 780 l 1
 980 -180 l 1
 20 -180 l 1
 20 780 l 1
EndSplineSet
EndChar

StartChar: m
Encoding: 109 109 55
Width: 1000
Flags: H
LayerCount: 2
Fore
SplineSet
81 601.799804688 m 1
 923.400390625 601.799804688 l 1
 923.400390625 642.600585938 l 1
 81 642.600585938 l 1
 81 601.799804688 l 1
923 602.200195312 m 1
 81.400390625 602.200195312 l 1
 81.400390625 642.200195312 l 1
 923 642.200195312 l 1
 923 602.200195312 l 1
902.799804688 602.400390625 m 1
 902.799804688 642.400390625 l 1
 101.200195312 642.400390625 l 1
 101.200195312 602.400390625 l 1
 902.799804688 602.400390625 l 1
81 -47.400390625 m 1
 923.400390625 -47.400390625 l 1
 923.400390625 -6.599609375 l 1
 81 -6.599609375 l 1
 81 -47.400390625 l 1
923 -47 m 1
 81.400390625 -47 l 1
 81.400390625 -7 l 1
 923 -7 l 1
 923 -47 l 1
902.799804688 -46.7998046875 m 1
 902.799804688 -6.7998046875 l 1
 101.200195312 -6.7998046875 l 1
 101.200195312 -46.7998046875 l 1
 902.799804688 -46.7998046875 l 1
80.599609375 -47.400390625 m 1
 923.400390625 -47.400390625 l 1
 923.400390625 642.600585938 l 1
 80.599609375 642.600585938 l 1
 80.599609375 -47.400390625 l 1
923 -47 m 1
 81 -47 l 1
 81 642.200195312 l 1
 923 642.200195312 l 1
 923 -47 l 1
890.225585938 -42.3486328125 m 1
 915.396484375 -11.26953125 l 1
 113.7734375 637.94921875 l 1
 88.603515625 606.870117188 l 1
 890.225585938 -42.3486328125 l 1
241.799804688 0.599609375 m 1
 765 0.599609375 l 1
 765 592.200195312 l 1
 241.799804688 592.200195312 l 1
 241.799804688 0.599609375 l 1
764.599609375 1 m 1
 242.200195312 1 l 1
 242.200195312 591.799804688 l 1
 764.599609375 591.799804688 l 1
 764.599609375 1 l 1
503.200195312 552 m 0
 625.470703125 552 724.400390625 436.8359375 724.400390625 296.799804688 c 0
 724.400390625 157.887695312 626.662109375 41.6005859375 503.200195312 41.6005859375 c 0
 380.930664062 41.6005859375 282 156.764648438 282 296.799804688 c 0
 282 435.724609375 379.747070312 552 503.200195312 552 c 0
503.200195312 1.6005859375 m 0
 648.806640625 1.6005859375 764.400390625 135.506835938 764.400390625 296.799804688 c 0
 764.400390625 459.16015625 647.618164062 592 503.200195312 592 c 0
 357.604492188 592 242 458.106445312 242 296.799804688 c 0
 242 134.440429688 358.782226562 1.6005859375 503.200195312 1.6005859375 c 0
-20.2001953125 -220.599609375 m 1
 1020.60058594 -220.599609375 l 1
 1020.60058594 820.200195312 l 1
 -20.2001953125 820.200195312 l 1
 -20.2001953125 -220.599609375 l 1
1020.20019531 -220.19921875 m 1
 -19.7998046875 -220.19921875 l 1
 -19.7998046875 819.799804688 l 1
 1020.20019531 819.799804688 l 1
 1020.20019531 -220.19921875 l 1
1000 820 m 0
 -0 820 -0 820 -0 820 c 2
 -11.0380859375 820 -20 811.038085938 -20 800 c 2
 -20 -200 l 2
 -20 -211.038085938 -11.0380859375 -220 -0 -220 c 2
 1000 -220 l 2
 1011.03808594 -220 1020 -211.038085938 1020 -200 c 2
 1020 800 l 2
 1020 811.038085938 1011.03808594 820 1000 820 c 0
20 780 m 1
 980 780 l 1
 980 -180 l 1
 20 -180 l 1
 20 780 l 1
EndSplineSet
EndChar

StartChar: uniE01B
Encoding: 57371 57371 56
Width: 1000
Flags: H
LayerCount: 2
Fore
SplineSet
81 601.799804688 m 1
 923.400390625 601.799804688 l 1
 923.400390625 642.600585938 l 1
 81 642.600585938 l 1
 81 601.799804688 l 1
923 602.200195312 m 1
 81.400390625 602.200195312 l 1
 81.400390625 642.200195312 l 1
 923 642.200195312 l 1
 923 602.200195312 l 1
902.799804688 602.400390625 m 1
 902.799804688 642.400390625 l 1
 101.200195312 642.400390625 l 1
 101.200195312 602.400390625 l 1
 902.799804688 602.400390625 l 1
81 -47.400390625 m 1
 923.400390625 -47.400390625 l 1
 923.400390625 -6.599609375 l 1
 81 -6.599609375 l 1
 81 -47.400390625 l 1
923 -47 m 1
 81.400390625 -47 l 1
 81.400390625 -7 l 1
 923 -7 l 1
 923 -47 l 1
902.799804688 -46.7998046875 m 1
 902.799804688 -6.7998046875 l 1
 101.200195312 -6.7998046875 l 1
 101.200195312 -46.7998046875 l 1
 902.799804688 -46.7998046875 l 1
80.599609375 -47.400390625 m 1
 923.400390625 -47.400390625 l 1
 923.400390625 642.600585938 l 1
 80.599609375 642.600585938 l 1
 80.599609375 -47.400390625 l 1
923 -47 m 1
 81 -47 l 1
 81 642.200195312 l 1
 923 642.200195312 l 1
 923 -47 l 1
890.225585938 -42.3486328125 m 1
 915.396484375 -11.26953125 l 1
 113.7734375 637.94921875 l 1
 88.603515625 606.870117188 l 1
 890.225585938 -42.3486328125 l 1
241.799804688 0.599609375 m 1
 765 0.599609375 l 1
 765 592.200195312 l 1
 241.799804688 592.200195312 l 1
 241.799804688 0.599609375 l 1
764.599609375 1 m 1
 242.200195312 1 l 1
 242.200195312 591.799804688 l 1
 764.599609375 591.799804688 l 1
 764.599609375 1 l 1
503.200195312 552 m 0
 625.470703125 552 724.400390625 436.8359375 724.400390625 296.799804688 c 0
 724.400390625 157.887695312 626.662109375 41.6005859375 503.200195312 41.6005859375 c 0
 380.930664062 41.6005859375 282 156.764648438 282 296.799804688 c 0
 282 435.724609375 379.747070312 552 503.200195312 552 c 0
503.200195312 1.6005859375 m 0
 648.806640625 1.6005859375 764.400390625 135.506835938 764.400390625 296.799804688 c 0
 764.400390625 459.16015625 647.618164062 592 503.200195312 592 c 0
 357.604492188 592 242 458.106445312 242 296.799804688 c 0
 242 134.440429688 358.782226562 1.6005859375 503.200195312 1.6005859375 c 0
-20.2001953125 -220.599609375 m 1
 1020.60058594 -220.599609375 l 1
 1020.60058594 820.200195312 l 1
 -20.2001953125 820.200195312 l 1
 -20.2001953125 -220.599609375 l 1
1020.20019531 -220.19921875 m 1
 -19.7998046875 -220.19921875 l 1
 -19.7998046875 819.799804688 l 1
 1020.20019531 819.799804688 l 1
 1020.20019531 -220.19921875 l 1
1000 820 m 0
 -0 820 -0 820 -0 820 c 2
 -11.0380859375 820 -20 811.038085938 -20 800 c 2
 -20 -200 l 2
 -20 -211.038085938 -11.0380859375 -220 -0 -220 c 2
 1000 -220 l 2
 1011.03808594 -220 1020 -211.038085938 1020 -200 c 2
 1020 800 l 2
 1020 811.038085938 1011.03808594 820 1000 820 c 0
20 780 m 1
 980 780 l 1
 980 -180 l 1
 20 -180 l 1
 20 780 l 1
EndSplineSet
EndChar

StartChar: n
Encoding: 110 110 57
Width: 1000
Flags: H
LayerCount: 2
Fore
SplineSet
70.2001953125 -33 m 1
 912.200195312 -33 l 1
 912.200195312 7.80078125 l 1
 70.2001953125 7.80078125 l 1
 70.2001953125 -33 l 1
911.799804688 -32.599609375 m 1
 70.6005859375 -32.599609375 l 1
 70.6005859375 7.400390625 l 1
 911.799804688 7.400390625 l 1
 911.799804688 -32.599609375 l 1
90.400390625 7.6005859375 m 1
 90.400390625 -32.3994140625 l 1
 891.600585938 -32.3994140625 l 1
 891.600585938 7.6005859375 l 1
 90.400390625 7.6005859375 l 1
70.2001953125 615.799804688 m 1
 912.200195312 615.799804688 l 1
 912.200195312 656.600585938 l 1
 70.2001953125 656.600585938 l 1
 70.2001953125 615.799804688 l 1
911.799804688 616.200195312 m 1
 70.6005859375 616.200195312 l 1
 70.6005859375 656.200195312 l 1
 911.799804688 656.200195312 l 1
 911.799804688 616.200195312 l 1
90.400390625 656.400390625 m 1
 90.400390625 616.400390625 l 1
 891.600585938 616.400390625 l 1
 891.600585938 656.400390625 l 1
 90.400390625 656.400390625 l 1
215.80078125 27 m 1
 761.000976562 27 l 1
 761.000976562 592.600585938 l 1
 215.80078125 592.600585938 l 1
 215.80078125 27 l 1
760.600585938 27.400390625 m 1
 216.201171875 27.400390625 l 1
 216.201171875 592.200195312 l 1
 760.600585938 592.200195312 l 1
 760.600585938 27.400390625 l 1
720.400390625 310 m 0
 720.400390625 175.364257812 615.78515625 67.6005859375 488.400390625 67.6005859375 c 0
 359.6328125 67.6005859375 256.000976562 176.188476562 256.000976562 310 c 0
 256.000976562 444.634765625 360.6171875 552.400390625 488.000976562 552.400390625 c 0
 616.766601562 552.400390625 720.400390625 443.8125 720.400390625 310 c 0
488.400390625 27.6005859375 m 0
 637.845703125 27.6005859375 760.400390625 153.229492188 760.400390625 310 c 0
 760.400390625 466.01953125 638.756835938 592.400390625 488.000976562 592.400390625 c 0
 338.557617188 592.400390625 216.000976562 466.771484375 216.000976562 310 c 0
 216.000976562 153.990234375 337.633789062 27.6005859375 488.400390625 27.6005859375 c 0
-20.19921875 -220.599609375 m 1
 1020.60058594 -220.599609375 l 1
 1020.60058594 820.200195312 l 1
 -20.19921875 820.200195312 l 1
 -20.19921875 -220.599609375 l 1
1020.20019531 -220.19921875 m 1
 -19.798828125 -220.19921875 l 1
 -19.798828125 819.799804688 l 1
 1020.20019531 819.799804688 l 1
 1020.20019531 -220.19921875 l 1
1000 820 m 0
 0.0009765625 820 0.0009765625 820 0.0009765625 820 c 2
 -11.037109375 820 -19.9990234375 811.038085938 -19.9990234375 800 c 2
 -19.9990234375 -200 l 2
 -19.9990234375 -211.038085938 -11.037109375 -220 0.0009765625 -220 c 2
 1000 -220 l 2
 1011.03808594 -220 1020 -211.038085938 1020 -200 c 2
 1020 800 l 2
 1020 811.038085938 1011.03808594 820 1000 820 c 0
20.0009765625 780 m 1
 980 780 l 1
 980 -180 l 1
 20.0009765625 -180 l 1
 20.0009765625 780 l 1
EndSplineSet
EndChar

StartChar: uniE01C
Encoding: 57372 57372 58
Width: 1000
Flags: H
LayerCount: 2
Fore
SplineSet
70.2001953125 -33 m 1
 912.200195312 -33 l 1
 912.200195312 7.80078125 l 1
 70.2001953125 7.80078125 l 1
 70.2001953125 -33 l 1
911.799804688 -32.599609375 m 1
 70.6005859375 -32.599609375 l 1
 70.6005859375 7.400390625 l 1
 911.799804688 7.400390625 l 1
 911.799804688 -32.599609375 l 1
90.400390625 7.6005859375 m 1
 90.400390625 -32.3994140625 l 1
 891.600585938 -32.3994140625 l 1
 891.600585938 7.6005859375 l 1
 90.400390625 7.6005859375 l 1
70.2001953125 615.799804688 m 1
 912.200195312 615.799804688 l 1
 912.200195312 656.600585938 l 1
 70.2001953125 656.600585938 l 1
 70.2001953125 615.799804688 l 1
911.799804688 616.200195312 m 1
 70.6005859375 616.200195312 l 1
 70.6005859375 656.200195312 l 1
 911.799804688 656.200195312 l 1
 911.799804688 616.200195312 l 1
90.400390625 656.400390625 m 1
 90.400390625 616.400390625 l 1
 891.600585938 616.400390625 l 1
 891.600585938 656.400390625 l 1
 90.400390625 656.400390625 l 1
215.80078125 27 m 1
 761.000976562 27 l 1
 761.000976562 592.600585938 l 1
 215.80078125 592.600585938 l 1
 215.80078125 27 l 1
760.600585938 27.400390625 m 1
 216.201171875 27.400390625 l 1
 216.201171875 592.200195312 l 1
 760.600585938 592.200195312 l 1
 760.600585938 27.400390625 l 1
720.400390625 310 m 0
 720.400390625 175.364257812 615.78515625 67.6005859375 488.400390625 67.6005859375 c 0
 359.6328125 67.6005859375 256.000976562 176.188476562 256.000976562 310 c 0
 256.000976562 444.634765625 360.6171875 552.400390625 488.000976562 552.400390625 c 0
 616.766601562 552.400390625 720.400390625 443.8125 720.400390625 310 c 0
488.400390625 27.6005859375 m 0
 637.845703125 27.6005859375 760.400390625 153.229492188 760.400390625 310 c 0
 760.400390625 466.01953125 638.756835938 592.400390625 488.000976562 592.400390625 c 0
 338.557617188 592.400390625 216.000976562 466.771484375 216.000976562 310 c 0
 216.000976562 153.990234375 337.633789062 27.6005859375 488.400390625 27.6005859375 c 0
-20.19921875 -220.599609375 m 1
 1020.60058594 -220.599609375 l 1
 1020.60058594 820.200195312 l 1
 -20.19921875 820.200195312 l 1
 -20.19921875 -220.599609375 l 1
1020.20019531 -220.19921875 m 1
 -19.798828125 -220.19921875 l 1
 -19.798828125 819.799804688 l 1
 1020.20019531 819.799804688 l 1
 1020.20019531 -220.19921875 l 1
1000 820 m 0
 0.0009765625 820 0.0009765625 820 0.0009765625 820 c 2
 -11.037109375 820 -19.9990234375 811.038085938 -19.9990234375 800 c 2
 -19.9990234375 -200 l 2
 -19.9990234375 -211.038085938 -11.037109375 -220 0.0009765625 -220 c 2
 1000 -220 l 2
 1011.03808594 -220 1020 -211.038085938 1020 -200 c 2
 1020 800 l 2
 1020 811.038085938 1011.03808594 820 1000 820 c 0
20.0009765625 780 m 1
 980 780 l 1
 980 -180 l 1
 20.0009765625 -180 l 1
 20.0009765625 780 l 1
EndSplineSet
EndChar

StartChar: X
Encoding: 88 88 59
Width: 1000
Flags: H
LayerCount: 2
Fore
SplineSet
124.600585938 660.200195312 m 1
 956.201171875 660.200195312 l 1
 956.201171875 701 l 1
 124.600585938 701 l 1
 124.600585938 660.200195312 l 1
955.80078125 660.600585938 m 1
 125.000976562 660.600585938 l 1
 125.000976562 700.599609375 l 1
 955.80078125 700.599609375 l 1
 955.80078125 660.600585938 l 1
935.600585938 660.799804688 m 1
 935.600585938 700.799804688 l 1
 144.80078125 700.799804688 l 1
 144.80078125 660.799804688 l 1
 935.600585938 660.799804688 l 1
889.000976562 -133.799804688 m 1
 929.80078125 -133.799804688 l 1
 929.80078125 728.200195312 l 1
 889.000976562 728.200195312 l 1
 889.000976562 -133.799804688 l 1
929.400390625 -133.399414062 m 1
 889.401367188 -133.399414062 l 1
 889.401367188 727.799804688 l 1
 929.400390625 727.799804688 l 1
 929.400390625 -133.399414062 l 1
889.201171875 -113.200195312 m 1
 929.201171875 -113.200195312 l 1
 929.201171875 708 l 1
 889.201171875 708 l 1
 889.201171875 -113.200195312 l 1
71.80078125 -161.400390625 m 1
 903.80078125 -161.400390625 l 1
 903.80078125 701 l 1
 71.80078125 701 l 1
 71.80078125 -161.400390625 l 1
903.400390625 -161 m 1
 72.201171875 -161 l 1
 72.201171875 700.599609375 l 1
 903.400390625 700.599609375 l 1
 903.400390625 -161 l 1
897.606445312 666.931640625 m 1
 868.799804688 694.671875 l 1
 77.595703125 -126.931640625 l 1
 106.40234375 -154.671875 l 1
 897.606445312 666.931640625 l 1
-20.19921875 -220.599609375 m 1
 1020.60058594 -220.599609375 l 1
 1020.60058594 820.200195312 l 1
 -20.19921875 820.200195312 l 1
 -20.19921875 -220.599609375 l 1
1020.20019531 -220.19921875 m 1
 -19.798828125 -220.19921875 l 1
 -19.798828125 819.799804688 l 1
 1020.20019531 819.799804688 l 1
 1020.20019531 -220.19921875 l 1
1000.00097656 -220 m 2
 1011.0390625 -220 1020.00097656 -211.038085938 1020.00097656 -200 c 2
 1020.00097656 800 l 2
 1020.00097656 811.038085938 1011.0390625 820 1000.00097656 820 c 2
 0.0009765625 820 l 2
 -11.037109375 820 -19.9990234375 811.038085938 -19.9990234375 800 c 2
 -19.9990234375 -200 l 2
 -19.9990234375 -211.038085938 -11.037109375 -220 0.0009765625 -220 c 2
 1000.00097656 -220 l 2
980.000976562 -180 m 1
 20.0009765625 -180 l 1
 20.0009765625 780 l 1
 980.000976562 780 l 1
 980.000976562 -180 l 1
EndSplineSet
EndChar

StartChar: uniE01D
Encoding: 57373 57373 60
Width: 1000
Flags: H
LayerCount: 2
Fore
SplineSet
124.600585938 660.200195312 m 1
 956.201171875 660.200195312 l 1
 956.201171875 701 l 1
 124.600585938 701 l 1
 124.600585938 660.200195312 l 1
955.80078125 660.600585938 m 1
 125.000976562 660.600585938 l 1
 125.000976562 700.599609375 l 1
 955.80078125 700.599609375 l 1
 955.80078125 660.600585938 l 1
935.600585938 660.799804688 m 1
 935.600585938 700.799804688 l 1
 144.80078125 700.799804688 l 1
 144.80078125 660.799804688 l 1
 935.600585938 660.799804688 l 1
889.000976562 -133.799804688 m 1
 929.80078125 -133.799804688 l 1
 929.80078125 728.200195312 l 1
 889.000976562 728.200195312 l 1
 889.000976562 -133.799804688 l 1
929.400390625 -133.399414062 m 1
 889.401367188 -133.399414062 l 1
 889.401367188 727.799804688 l 1
 929.400390625 727.799804688 l 1
 929.400390625 -133.399414062 l 1
889.201171875 -113.200195312 m 1
 929.201171875 -113.200195312 l 1
 929.201171875 708 l 1
 889.201171875 708 l 1
 889.201171875 -113.200195312 l 1
71.80078125 -161.400390625 m 1
 903.80078125 -161.400390625 l 1
 903.80078125 701 l 1
 71.80078125 701 l 1
 71.80078125 -161.400390625 l 1
903.400390625 -161 m 1
 72.201171875 -161 l 1
 72.201171875 700.599609375 l 1
 903.400390625 700.599609375 l 1
 903.400390625 -161 l 1
897.606445312 666.931640625 m 1
 868.799804688 694.671875 l 1
 77.595703125 -126.931640625 l 1
 106.40234375 -154.671875 l 1
 897.606445312 666.931640625 l 1
-20.19921875 -220.599609375 m 1
 1020.60058594 -220.599609375 l 1
 1020.60058594 820.200195312 l 1
 -20.19921875 820.200195312 l 1
 -20.19921875 -220.599609375 l 1
1020.20019531 -220.19921875 m 1
 -19.798828125 -220.19921875 l 1
 -19.798828125 819.799804688 l 1
 1020.20019531 819.799804688 l 1
 1020.20019531 -220.19921875 l 1
1000.00097656 -220 m 2
 1011.0390625 -220 1020.00097656 -211.038085938 1020.00097656 -200 c 2
 1020.00097656 800 l 2
 1020.00097656 811.038085938 1011.0390625 820 1000.00097656 820 c 2
 0.0009765625 820 l 2
 -11.037109375 820 -19.9990234375 811.038085938 -19.9990234375 800 c 2
 -19.9990234375 -200 l 2
 -19.9990234375 -211.038085938 -11.037109375 -220 0.0009765625 -220 c 2
 1000.00097656 -220 l 2
980.000976562 -180 m 1
 20.0009765625 -180 l 1
 20.0009765625 780 l 1
 980.000976562 780 l 1
 980.000976562 -180 l 1
EndSplineSet
EndChar

StartChar: a
Encoding: 97 97 61
Width: 1000
Flags: H
LayerCount: 2
Fore
SplineSet
124.999023438 626.200195312 m 1
 850.999023438 626.200195312 l 1
 850.999023438 667 l 1
 124.999023438 667 l 1
 124.999023438 626.200195312 l 1
850.598632812 626.600585938 m 1
 125.399414062 626.600585938 l 1
 125.399414062 666.599609375 l 1
 850.598632812 666.599609375 l 1
 850.598632812 626.600585938 l 1
830.3984375 626.799804688 m 1
 830.3984375 666.799804688 l 1
 145.19921875 666.799804688 l 1
 145.19921875 626.799804688 l 1
 830.3984375 626.799804688 l 1
788.198242188 -96.9990234375 m 1
 828.999023438 -96.9990234375 l 1
 828.999023438 691.400390625 l 1
 788.198242188 691.400390625 l 1
 788.198242188 -96.9990234375 l 1
828.598632812 -96.5986328125 m 1
 788.598632812 -96.5986328125 l 1
 788.598632812 691 l 1
 828.598632812 691 l 1
 828.598632812 -96.5986328125 l 1
788.3984375 -76.3994140625 m 1
 828.3984375 -76.3994140625 l 1
 828.3984375 671.200195312 l 1
 788.3984375 671.200195312 l 1
 788.3984375 -76.3994140625 l 1
147.3984375 -96.9990234375 m 1
 188.19921875 -96.9990234375 l 1
 188.19921875 691.400390625 l 1
 147.3984375 691.400390625 l 1
 147.3984375 -96.9990234375 l 1
187.798828125 -96.5986328125 m 1
 147.798828125 -96.5986328125 l 1
 147.798828125 691 l 1
 187.798828125 691 l 1
 187.798828125 -96.5986328125 l 1
147.598632812 -76.3994140625 m 1
 187.598632812 -76.3994140625 l 1
 187.598632812 671.200195312 l 1
 147.598632812 671.200195312 l 1
 147.598632812 -76.3994140625 l 1
-20.201171875 -220.598632812 m 1
 1020.59863281 -220.598632812 l 1
 1020.59863281 820.200195312 l 1
 -20.201171875 820.200195312 l 1
 -20.201171875 -220.598632812 l 1
1020.19824219 -220.198242188 m 1
 -19.80078125 -220.198242188 l 1
 -19.80078125 819.799804688 l 1
 1020.19824219 819.799804688 l 1
 1020.19824219 -220.198242188 l 1
999.998046875 820 m 0
 -0.0009765625 820 -0.0009765625 820 -0.0009765625 820 c 2
 -11.0390625 820 -20.0009765625 811.038085938 -20.0009765625 800 c 2
 -20.0009765625 -199.999023438 l 2
 -20.0009765625 -211.037109375 -11.0390625 -219.999023438 -0.0009765625 -219.999023438 c 2
 999.998046875 -219.999023438 l 2
 1011.03613281 -219.999023438 1019.99804688 -211.037109375 1019.99804688 -199.999023438 c 2
 1019.99804688 800 l 2
 1019.99804688 811.038085938 1011.03613281 820 999.998046875 820 c 0
19.9990234375 780 m 1
 979.998046875 780 l 1
 979.998046875 -179.999023438 l 1
 19.9990234375 -179.999023438 l 1
 19.9990234375 780 l 1
EndSplineSet
EndChar

StartChar: uniE01E
Encoding: 57374 57374 62
Width: 1000
Flags: H
LayerCount: 2
Fore
SplineSet
124.999023438 626.200195312 m 1
 850.999023438 626.200195312 l 1
 850.999023438 667 l 1
 124.999023438 667 l 1
 124.999023438 626.200195312 l 1
850.598632812 626.600585938 m 1
 125.399414062 626.600585938 l 1
 125.399414062 666.599609375 l 1
 850.598632812 666.599609375 l 1
 850.598632812 626.600585938 l 1
830.3984375 626.799804688 m 1
 830.3984375 666.799804688 l 1
 145.19921875 666.799804688 l 1
 145.19921875 626.799804688 l 1
 830.3984375 626.799804688 l 1
788.198242188 -96.9990234375 m 1
 828.999023438 -96.9990234375 l 1
 828.999023438 691.400390625 l 1
 788.198242188 691.400390625 l 1
 788.198242188 -96.9990234375 l 1
828.598632812 -96.5986328125 m 1
 788.598632812 -96.5986328125 l 1
 788.598632812 691 l 1
 828.598632812 691 l 1
 828.598632812 -96.5986328125 l 1
788.3984375 -76.3994140625 m 1
 828.3984375 -76.3994140625 l 1
 828.3984375 671.200195312 l 1
 788.3984375 671.200195312 l 1
 788.3984375 -76.3994140625 l 1
147.3984375 -96.9990234375 m 1
 188.19921875 -96.9990234375 l 1
 188.19921875 691.400390625 l 1
 147.3984375 691.400390625 l 1
 147.3984375 -96.9990234375 l 1
187.798828125 -96.5986328125 m 1
 147.798828125 -96.5986328125 l 1
 147.798828125 691 l 1
 187.798828125 691 l 1
 187.798828125 -96.5986328125 l 1
147.598632812 -76.3994140625 m 1
 187.598632812 -76.3994140625 l 1
 187.598632812 671.200195312 l 1
 147.598632812 671.200195312 l 1
 147.598632812 -76.3994140625 l 1
-20.201171875 -220.598632812 m 1
 1020.59863281 -220.598632812 l 1
 1020.59863281 820.200195312 l 1
 -20.201171875 820.200195312 l 1
 -20.201171875 -220.598632812 l 1
1020.19824219 -220.198242188 m 1
 -19.80078125 -220.198242188 l 1
 -19.80078125 819.799804688 l 1
 1020.19824219 819.799804688 l 1
 1020.19824219 -220.198242188 l 1
999.998046875 820 m 0
 -0.0009765625 820 -0.0009765625 820 -0.0009765625 820 c 2
 -11.0390625 820 -20.0009765625 811.038085938 -20.0009765625 800 c 2
 -20.0009765625 -199.999023438 l 2
 -20.0009765625 -211.037109375 -11.0390625 -219.999023438 -0.0009765625 -219.999023438 c 2
 999.998046875 -219.999023438 l 2
 1011.03613281 -219.999023438 1019.99804688 -211.037109375 1019.99804688 -199.999023438 c 2
 1019.99804688 800 l 2
 1019.99804688 811.038085938 1011.03613281 820 999.998046875 820 c 0
19.9990234375 780 m 1
 979.998046875 780 l 1
 979.998046875 -179.999023438 l 1
 19.9990234375 -179.999023438 l 1
 19.9990234375 780 l 1
EndSplineSet
EndChar

StartChar: uniE01F
Encoding: 57375 57375 63
Width: 1000
Flags: H
LayerCount: 2
Fore
SplineSet
125 307.1875 m 1
 851.014648438 307.1875 l 1
 851.014648438 266.329101562 l 1
 125 266.329101562 l 1
 125 307.1875 l 1
125.390625 306.795898438 m 1
 125.390625 266.795898438 l 1
 850.624023438 266.795898438 l 1
 850.624023438 306.795898438 l 1
 125.390625 306.795898438 l 1
145.234375 306.953125 m 1
 830.389648438 306.953125 l 1
 830.389648438 266.954101562 l 1
 145.234375 266.954101562 l 1
 145.234375 306.953125 l 1
788.202148438 691.40625 m 1
 828.983398438 691.40625 l 1
 828.983398438 -97.0302734375 l 1
 788.202148438 -97.0302734375 l 1
 788.202148438 691.40625 l 1
788.594726562 691.015625 m 1
 788.594726562 -96.5615234375 l 1
 828.594726562 -96.5615234375 l 1
 828.594726562 691.015625 l 1
 788.594726562 691.015625 l 1
788.436523438 671.171875 m 1
 828.436523438 671.171875 l 1
 828.436523438 -76.4052734375 l 1
 788.436523438 -76.4052734375 l 1
 788.436523438 671.171875 l 1
147.421875 691.40625 m 1
 188.203125 691.40625 l 1
 188.203125 -97.0302734375 l 1
 147.421875 -97.0302734375 l 1
 147.421875 691.40625 l 1
147.8125 691.015625 m 1
 147.8125 -96.5615234375 l 1
 187.8125 -96.5615234375 l 1
 187.8125 691.015625 l 1
 147.8125 691.015625 l 1
147.578125 671.171875 m 1
 187.578125 671.171875 l 1
 187.578125 -76.4052734375 l 1
 147.578125 -76.4052734375 l 1
 147.578125 671.171875 l 1
-20.234375 820.234375 m 1
 1020.62402344 820.234375 l 1
 1020.62402344 -220.624023438 l 1
 -20.234375 -220.624023438 l 1
 -20.234375 820.234375 l 1
-19.765625 819.765625 m 1
 -19.765625 -220.233398438 l 1
 1020.23339844 -220.233398438 l 1
 1020.23339844 819.765625 l 1
 -19.765625 819.765625 l 1
0 820 m 2
 499.999023438 820 l 1
 999.999023438 820 l 1
 1011.03710938 819.999023438 1019.99804688 811.038085938 1019.99902344 800 c 2
 1019.99902344 -199.999023438 l 1
 1019.99804688 -211.037109375 1011.03710938 -219.998046875 999.999023438 -219.999023438 c 2
 0 -219.999023438 l 1
 -11.0380859375 -219.998046875 -19.9990234375 -211.037109375 -20 -199.999023438 c 2
 -20 800 l 1
 -19.9990234375 811.038085938 -11.0380859375 819.999023438 0 820 c 2
20 780 m 1
 20 -179.999023438 l 1
 979.999023438 -179.999023438 l 1
 979.999023438 780 l 1
 499.999023438 780 l 1
 20 780 l 1
EndSplineSet
EndChar

StartChar: i
Encoding: 105 105 64
Width: 1000
Flags: H
LayerCount: 2
Fore
SplineSet
115.40234375 -136.999023438 m 1
 156.203125 -136.999023438 l 1
 156.203125 725.80078125 l 1
 115.40234375 725.80078125 l 1
 115.40234375 -136.999023438 l 1
155.802734375 -136.598632812 m 1
 115.802734375 -136.598632812 l 1
 115.802734375 725.400390625 l 1
 155.802734375 725.400390625 l 1
 155.802734375 -136.598632812 l 1
115.602539062 -116.399414062 m 1
 155.602539062 -116.399414062 l 1
 155.602539062 705.600585938 l 1
 115.602539062 705.600585938 l 1
 115.602539062 -116.399414062 l 1
90.2021484375 -109.798828125 m 1
 921.801757812 -109.798828125 l 1
 921.801757812 -68.9990234375 l 1
 90.2021484375 -68.9990234375 l 1
 90.2021484375 -109.798828125 l 1
921.401367188 -109.3984375 m 1
 90.6025390625 -109.3984375 l 1
 90.6025390625 -69.3994140625 l 1
 921.401367188 -69.3994140625 l 1
 921.401367188 -109.3984375 l 1
901.202148438 -109.19921875 m 1
 901.202148438 -69.19921875 l 1
 110.40234375 -69.19921875 l 1
 110.40234375 -109.19921875 l 1
 901.202148438 -109.19921875 l 1
89.0029296875 657.799804688 m 1
 920.602539062 657.799804688 l 1
 920.602539062 698.600585938 l 1
 89.0029296875 698.600585938 l 1
 89.0029296875 657.799804688 l 1
920.202148438 658.200195312 m 1
 89.4033203125 658.200195312 l 1
 89.4033203125 698.200195312 l 1
 920.202148438 698.200195312 l 1
 920.202148438 658.200195312 l 1
900.001953125 658.400390625 m 1
 900.001953125 698.400390625 l 1
 109.203125 698.400390625 l 1
 109.203125 658.400390625 l 1
 900.001953125 658.400390625 l 1
-20.197265625 -220.598632812 m 1
 1020.6015625 -220.598632812 l 1
 1020.6015625 820.200195312 l 1
 -20.197265625 820.200195312 l 1
 -20.197265625 -220.598632812 l 1
1020.20117188 -220.198242188 m 1
 -19.796875 -220.198242188 l 1
 -19.796875 819.799804688 l 1
 1020.20117188 819.799804688 l 1
 1020.20117188 -220.198242188 l 1
0.0029296875 -219.999023438 m 0
 1000.00195312 -219.999023438 1000.00195312 -219.999023438 1000.00195312 -219.999023438 c 2
 1011.04003906 -219.999023438 1020.00195312 -211.037109375 1020.00195312 -199.999023438 c 2
 1020.00195312 800 l 2
 1020.00195312 811.038085938 1011.04003906 820 1000.00195312 820 c 2
 0.0029296875 820 l 2
 -11.03515625 820 -19.9970703125 811.038085938 -19.9970703125 800 c 2
 -19.9970703125 -199.999023438 l 2
 -19.9970703125 -211.037109375 -11.03515625 -219.999023438 0.0029296875 -219.999023438 c 0
980.001953125 -179.999023438 m 1
 20.0029296875 -179.999023438 l 1
 20.0029296875 780 l 1
 980.001953125 780 l 1
 980.001953125 -179.999023438 l 1
EndSplineSet
EndChar

StartChar: uniE020
Encoding: 57376 57376 65
Width: 1000
Flags: H
LayerCount: 2
Fore
SplineSet
115.40234375 -136.999023438 m 1
 156.203125 -136.999023438 l 1
 156.203125 725.80078125 l 1
 115.40234375 725.80078125 l 1
 115.40234375 -136.999023438 l 1
155.802734375 -136.598632812 m 1
 115.802734375 -136.598632812 l 1
 115.802734375 725.400390625 l 1
 155.802734375 725.400390625 l 1
 155.802734375 -136.598632812 l 1
115.602539062 -116.399414062 m 1
 155.602539062 -116.399414062 l 1
 155.602539062 705.600585938 l 1
 115.602539062 705.600585938 l 1
 115.602539062 -116.399414062 l 1
90.2021484375 -109.798828125 m 1
 921.801757812 -109.798828125 l 1
 921.801757812 -68.9990234375 l 1
 90.2021484375 -68.9990234375 l 1
 90.2021484375 -109.798828125 l 1
921.401367188 -109.3984375 m 1
 90.6025390625 -109.3984375 l 1
 90.6025390625 -69.3994140625 l 1
 921.401367188 -69.3994140625 l 1
 921.401367188 -109.3984375 l 1
901.202148438 -109.19921875 m 1
 901.202148438 -69.19921875 l 1
 110.40234375 -69.19921875 l 1
 110.40234375 -109.19921875 l 1
 901.202148438 -109.19921875 l 1
89.0029296875 657.799804688 m 1
 920.602539062 657.799804688 l 1
 920.602539062 698.600585938 l 1
 89.0029296875 698.600585938 l 1
 89.0029296875 657.799804688 l 1
920.202148438 658.200195312 m 1
 89.4033203125 658.200195312 l 1
 89.4033203125 698.200195312 l 1
 920.202148438 698.200195312 l 1
 920.202148438 658.200195312 l 1
900.001953125 658.400390625 m 1
 900.001953125 698.400390625 l 1
 109.203125 698.400390625 l 1
 109.203125 658.400390625 l 1
 900.001953125 658.400390625 l 1
-20.197265625 -220.598632812 m 1
 1020.6015625 -220.598632812 l 1
 1020.6015625 820.200195312 l 1
 -20.197265625 820.200195312 l 1
 -20.197265625 -220.598632812 l 1
1020.20117188 -220.198242188 m 1
 -19.796875 -220.198242188 l 1
 -19.796875 819.799804688 l 1
 1020.20117188 819.799804688 l 1
 1020.20117188 -220.198242188 l 1
0.0029296875 -219.999023438 m 0
 1000.00195312 -219.999023438 1000.00195312 -219.999023438 1000.00195312 -219.999023438 c 2
 1011.04003906 -219.999023438 1020.00195312 -211.037109375 1020.00195312 -199.999023438 c 2
 1020.00195312 800 l 2
 1020.00195312 811.038085938 1011.04003906 820 1000.00195312 820 c 2
 0.0029296875 820 l 2
 -11.03515625 820 -19.9970703125 811.038085938 -19.9970703125 800 c 2
 -19.9970703125 -199.999023438 l 2
 -19.9970703125 -211.037109375 -11.03515625 -219.999023438 0.0029296875 -219.999023438 c 0
980.001953125 -179.999023438 m 1
 20.0029296875 -179.999023438 l 1
 20.0029296875 780 l 1
 980.001953125 780 l 1
 980.001953125 -179.999023438 l 1
EndSplineSet
EndChar

StartChar: y
Encoding: 121 121 66
Width: 1000
Flags: H
LayerCount: 2
Fore
SplineSet
-19.3994140625 -220.598632812 m 1
 1020.59960938 -220.598632812 l 1
 1020.59960938 820.200195312 l 1
 -19.3994140625 820.200195312 l 1
 -19.3994140625 -220.598632812 l 1
1020.19921875 -220.198242188 m 1
 -18.9990234375 -220.198242188 l 1
 -18.9990234375 819.799804688 l 1
 1020.19921875 819.799804688 l 1
 1020.19921875 -220.198242188 l 1
0.80078125 -219.999023438 m 0
 999.999023438 -219.999023438 999.999023438 -219.999023438 999.999023438 -219.999023438 c 2
 1011.03710938 -219.999023438 1019.99902344 -211.037109375 1019.99902344 -199.999023438 c 2
 1019.99902344 800 l 2
 1019.99902344 811.038085938 1011.03710938 820 999.999023438 820 c 2
 0.80078125 820 l 2
 -10.2373046875 820 -19.19921875 811.038085938 -19.19921875 800 c 2
 -19.19921875 -199.999023438 l 2
 -19.19921875 -211.037109375 -10.2373046875 -219.999023438 0.80078125 -219.999023438 c 0
979.999023438 -179.999023438 m 1
 20.80078125 -179.999023438 l 1
 20.80078125 780 l 1
 979.999023438 780 l 1
 979.999023438 -179.999023438 l 1
-20.2001953125 279 m 1
 1020.19921875 279 l 1
 1020.19921875 319.80078125 l 1
 -20.2001953125 319.80078125 l 1
 -20.2001953125 279 l 1
1019.79882812 279.400390625 m 1
 -19.7998046875 279.400390625 l 1
 -19.7998046875 319.400390625 l 1
 1019.79882812 319.400390625 l 1
 1019.79882812 279.400390625 l 1
999.599609375 279.600585938 m 1
 999.599609375 319.600585938 l 1
 0 319.600585938 l 1
 0 279.600585938 l 1
 999.599609375 279.600585938 l 1
479.799804688 -220.598632812 m 1
 520.599609375 -220.598632812 l 1
 520.599609375 820.200195312 l 1
 479.799804688 820.200195312 l 1
 479.799804688 -220.598632812 l 1
520.19921875 -220.198242188 m 1
 480.200195312 -220.198242188 l 1
 480.200195312 819.799804688 l 1
 520.19921875 819.799804688 l 1
 520.19921875 -220.198242188 l 1
480 -199.999023438 m 1
 520 -199.999023438 l 1
 520 800 l 1
 480 800 l 1
 480 -199.999023438 l 1
EndSplineSet
EndChar

StartChar: uniE021
Encoding: 57377 57377 67
Width: 1000
Flags: H
LayerCount: 2
Fore
SplineSet
-19.3994140625 -220.598632812 m 1
 1020.59960938 -220.598632812 l 1
 1020.59960938 820.200195312 l 1
 -19.3994140625 820.200195312 l 1
 -19.3994140625 -220.598632812 l 1
1020.19921875 -220.198242188 m 1
 -18.9990234375 -220.198242188 l 1
 -18.9990234375 819.799804688 l 1
 1020.19921875 819.799804688 l 1
 1020.19921875 -220.198242188 l 1
0.80078125 -219.999023438 m 0
 999.999023438 -219.999023438 999.999023438 -219.999023438 999.999023438 -219.999023438 c 2
 1011.03710938 -219.999023438 1019.99902344 -211.037109375 1019.99902344 -199.999023438 c 2
 1019.99902344 800 l 2
 1019.99902344 811.038085938 1011.03710938 820 999.999023438 820 c 2
 0.80078125 820 l 2
 -10.2373046875 820 -19.19921875 811.038085938 -19.19921875 800 c 2
 -19.19921875 -199.999023438 l 2
 -19.19921875 -211.037109375 -10.2373046875 -219.999023438 0.80078125 -219.999023438 c 0
979.999023438 -179.999023438 m 1
 20.80078125 -179.999023438 l 1
 20.80078125 780 l 1
 979.999023438 780 l 1
 979.999023438 -179.999023438 l 1
-20.2001953125 279 m 1
 1020.19921875 279 l 1
 1020.19921875 319.80078125 l 1
 -20.2001953125 319.80078125 l 1
 -20.2001953125 279 l 1
1019.79882812 279.400390625 m 1
 -19.7998046875 279.400390625 l 1
 -19.7998046875 319.400390625 l 1
 1019.79882812 319.400390625 l 1
 1019.79882812 279.400390625 l 1
999.599609375 279.600585938 m 1
 999.599609375 319.600585938 l 1
 0 319.600585938 l 1
 0 279.600585938 l 1
 999.599609375 279.600585938 l 1
479.799804688 -220.598632812 m 1
 520.599609375 -220.598632812 l 1
 520.599609375 820.200195312 l 1
 479.799804688 820.200195312 l 1
 479.799804688 -220.598632812 l 1
520.19921875 -220.198242188 m 1
 480.200195312 -220.198242188 l 1
 480.200195312 819.799804688 l 1
 520.19921875 819.799804688 l 1
 520.19921875 -220.198242188 l 1
480 -199.999023438 m 1
 520 -199.999023438 l 1
 520 800 l 1
 480 800 l 1
 480 -199.999023438 l 1
EndSplineSet
EndChar

StartChar: w
Encoding: 119 119 68
Width: 1000
Flags: H
LayerCount: 2
Fore
SplineSet
91.3994140625 613 m 1
 933.399414062 613 l 1
 933.399414062 653.799804688 l 1
 91.3994140625 653.799804688 l 1
 91.3994140625 613 l 1
932.999023438 613.400390625 m 1
 91.7998046875 613.400390625 l 1
 91.7998046875 653.399414062 l 1
 932.999023438 653.399414062 l 1
 932.999023438 613.400390625 l 1
912.799804688 613.599609375 m 1
 912.799804688 653.599609375 l 1
 111.599609375 653.599609375 l 1
 111.599609375 613.599609375 l 1
 912.799804688 613.599609375 l 1
91.3994140625 -35.7998046875 m 1
 933.399414062 -35.7998046875 l 1
 933.399414062 5 l 1
 91.3994140625 5 l 1
 91.3994140625 -35.7998046875 l 1
932.999023438 -35.3994140625 m 1
 91.7998046875 -35.3994140625 l 1
 91.7998046875 4.599609375 l 1
 932.999023438 4.599609375 l 1
 932.999023438 -35.3994140625 l 1
912.799804688 -35.2001953125 m 1
 912.799804688 4.7998046875 l 1
 111.599609375 4.7998046875 l 1
 111.599609375 -35.2001953125 l 1
 912.799804688 -35.2001953125 l 1
91.3994140625 -36.2001953125 m 1
 933.399414062 -36.2001953125 l 1
 933.399414062 654.200195312 l 1
 91.3994140625 654.200195312 l 1
 91.3994140625 -36.2001953125 l 1
932.999023438 -35.7998046875 m 1
 91.7998046875 -35.7998046875 l 1
 91.7998046875 653.799804688 l 1
 932.999023438 653.799804688 l 1
 932.999023438 -35.7998046875 l 1
900.22265625 -31.1455078125 m 1
 925.400390625 -0.072265625 l 1
 124.176757812 649.145507812 l 1
 98.9990234375 618.072265625 l 1
 900.22265625 -31.1455078125 l 1
91.3994140625 -36.2001953125 m 1
 933.399414062 -36.2001953125 l 1
 933.399414062 653.799804688 l 1
 91.3994140625 653.799804688 l 1
 91.3994140625 -36.2001953125 l 1
932.999023438 -35.7998046875 m 1
 91.7998046875 -35.7998046875 l 1
 91.7998046875 653.399414062 l 1
 932.999023438 653.399414062 l 1
 932.999023438 -35.7998046875 l 1
99.0224609375 -0.0537109375 m 1
 124.176757812 -31.1455078125 l 1
 925.376953125 618.053710938 l 1
 900.22265625 649.145507812 l 1
 99.0224609375 -0.0537109375 l 1
-20.2001953125 -220.599609375 m 1
 1020.59960938 -220.599609375 l 1
 1020.59960938 820.200195312 l 1
 -20.2001953125 820.200195312 l 1
 -20.2001953125 -220.599609375 l 1
1020.19921875 -220.19921875 m 1
 -19.7998046875 -220.19921875 l 1
 -19.7998046875 819.799804688 l 1
 1020.19921875 819.799804688 l 1
 1020.19921875 -220.19921875 l 1
1000 820 m 0
 -0 820 -0 820 -0 820 c 2
 -11.0380859375 820 -20 811.038085938 -20 800 c 2
 -20 -200 l 2
 -20 -211.038085938 -11.0380859375 -220 -0 -220 c 2
 1000 -220 l 2
 1011.03808594 -220 1020 -211.038085938 1020 -200 c 2
 1020 800 l 2
 1020 811.038085938 1011.03808594 820 1000 820 c 0
20 780 m 1
 980 780 l 1
 980 -180 l 1
 20 -180 l 1
 20 780 l 1
EndSplineSet
EndChar

StartChar: uniE022
Encoding: 57378 57378 69
Width: 1000
Flags: H
LayerCount: 2
Fore
SplineSet
91.3994140625 613 m 1
 933.399414062 613 l 1
 933.399414062 653.799804688 l 1
 91.3994140625 653.799804688 l 1
 91.3994140625 613 l 1
932.999023438 613.400390625 m 1
 91.7998046875 613.400390625 l 1
 91.7998046875 653.399414062 l 1
 932.999023438 653.399414062 l 1
 932.999023438 613.400390625 l 1
912.799804688 613.599609375 m 1
 912.799804688 653.599609375 l 1
 111.599609375 653.599609375 l 1
 111.599609375 613.599609375 l 1
 912.799804688 613.599609375 l 1
91.3994140625 -35.7998046875 m 1
 933.399414062 -35.7998046875 l 1
 933.399414062 5 l 1
 91.3994140625 5 l 1
 91.3994140625 -35.7998046875 l 1
932.999023438 -35.3994140625 m 1
 91.7998046875 -35.3994140625 l 1
 91.7998046875 4.599609375 l 1
 932.999023438 4.599609375 l 1
 932.999023438 -35.3994140625 l 1
912.799804688 -35.2001953125 m 1
 912.799804688 4.7998046875 l 1
 111.599609375 4.7998046875 l 1
 111.599609375 -35.2001953125 l 1
 912.799804688 -35.2001953125 l 1
91.3994140625 -36.2001953125 m 1
 933.399414062 -36.2001953125 l 1
 933.399414062 654.200195312 l 1
 91.3994140625 654.200195312 l 1
 91.3994140625 -36.2001953125 l 1
932.999023438 -35.7998046875 m 1
 91.7998046875 -35.7998046875 l 1
 91.7998046875 653.799804688 l 1
 932.999023438 653.799804688 l 1
 932.999023438 -35.7998046875 l 1
900.22265625 -31.1455078125 m 1
 925.400390625 -0.072265625 l 1
 124.176757812 649.145507812 l 1
 98.9990234375 618.072265625 l 1
 900.22265625 -31.1455078125 l 1
91.3994140625 -36.2001953125 m 1
 933.399414062 -36.2001953125 l 1
 933.399414062 653.799804688 l 1
 91.3994140625 653.799804688 l 1
 91.3994140625 -36.2001953125 l 1
932.999023438 -35.7998046875 m 1
 91.7998046875 -35.7998046875 l 1
 91.7998046875 653.399414062 l 1
 932.999023438 653.399414062 l 1
 932.999023438 -35.7998046875 l 1
99.0224609375 -0.0537109375 m 1
 124.176757812 -31.1455078125 l 1
 925.376953125 618.053710938 l 1
 900.22265625 649.145507812 l 1
 99.0224609375 -0.0537109375 l 1
-20.2001953125 -220.599609375 m 1
 1020.59960938 -220.599609375 l 1
 1020.59960938 820.200195312 l 1
 -20.2001953125 820.200195312 l 1
 -20.2001953125 -220.599609375 l 1
1020.19921875 -220.19921875 m 1
 -19.7998046875 -220.19921875 l 1
 -19.7998046875 819.799804688 l 1
 1020.19921875 819.799804688 l 1
 1020.19921875 -220.19921875 l 1
1000 820 m 0
 -0 820 -0 820 -0 820 c 2
 -11.0380859375 820 -20 811.038085938 -20 800 c 2
 -20 -200 l 2
 -20 -211.038085938 -11.0380859375 -220 -0 -220 c 2
 1000 -220 l 2
 1011.03808594 -220 1020 -211.038085938 1020 -200 c 2
 1020 800 l 2
 1020 811.038085938 1011.03808594 820 1000 820 c 0
20 780 m 1
 980 780 l 1
 980 -180 l 1
 20 -180 l 1
 20 780 l 1
EndSplineSet
EndChar

StartChar: e
Encoding: 101 101 70
Width: 1000
Flags: H
LayerCount: 2
Fore
SplineSet
88.9990234375 -98.19921875 m 1
 920.598632812 -98.19921875 l 1
 920.598632812 -57.3984375 l 1
 88.9990234375 -57.3984375 l 1
 88.9990234375 -98.19921875 l 1
920.198242188 -97.798828125 m 1
 89.3994140625 -97.798828125 l 1
 89.3994140625 -57.798828125 l 1
 920.198242188 -57.798828125 l 1
 920.198242188 -97.798828125 l 1
899.998046875 -97.5986328125 m 1
 899.998046875 -57.5986328125 l 1
 109.19921875 -57.5986328125 l 1
 109.19921875 -97.5986328125 l 1
 899.998046875 -97.5986328125 l 1
853.3984375 -125.399414062 m 1
 894.198242188 -125.399414062 l 1
 894.198242188 736.600585938 l 1
 853.3984375 736.600585938 l 1
 853.3984375 -125.399414062 l 1
893.797851562 -124.999023438 m 1
 853.798828125 -124.999023438 l 1
 853.798828125 736.200195312 l 1
 893.797851562 736.200195312 l 1
 893.797851562 -124.999023438 l 1
893.598632812 716.400390625 m 1
 853.598632812 716.400390625 l 1
 853.598632812 -104.798828125 l 1
 893.598632812 -104.798828125 l 1
 893.598632812 716.400390625 l 1
-20.201171875 -220.598632812 m 1
 1020.59863281 -220.598632812 l 1
 1020.59863281 820.200195312 l 1
 -20.201171875 820.200195312 l 1
 -20.201171875 -220.598632812 l 1
1020.19824219 -220.198242188 m 1
 -19.80078125 -220.198242188 l 1
 -19.80078125 819.799804688 l 1
 1020.19824219 819.799804688 l 1
 1020.19824219 -220.198242188 l 1
999.998046875 -219.999023438 m 2
 1011.03613281 -219.999023438 1019.99804688 -211.037109375 1019.99804688 -199.999023438 c 2
 1019.99804688 800 l 2
 1019.99804688 811.038085938 1011.03613281 820 999.998046875 820 c 2
 -0.0009765625 820 l 2
 -11.0390625 820 -20.0009765625 811.038085938 -20.0009765625 800 c 2
 -20.0009765625 -199.999023438 l 2
 -20.0009765625 -211.037109375 -11.0390625 -219.999023438 -0.0009765625 -219.999023438 c 2
 999.998046875 -219.999023438 l 2
979.998046875 -179.999023438 m 1
 19.9990234375 -179.999023438 l 1
 19.9990234375 780 l 1
 979.998046875 780 l 1
 979.998046875 -179.999023438 l 1
EndSplineSet
EndChar

StartChar: uniE025
Encoding: 57381 57381 71
Width: 1000
Flags: H
LayerCount: 2
Fore
SplineSet
88.9990234375 -98.19921875 m 1
 920.598632812 -98.19921875 l 1
 920.598632812 -57.3984375 l 1
 88.9990234375 -57.3984375 l 1
 88.9990234375 -98.19921875 l 1
920.198242188 -97.798828125 m 1
 89.3994140625 -97.798828125 l 1
 89.3994140625 -57.798828125 l 1
 920.198242188 -57.798828125 l 1
 920.198242188 -97.798828125 l 1
899.998046875 -97.5986328125 m 1
 899.998046875 -57.5986328125 l 1
 109.19921875 -57.5986328125 l 1
 109.19921875 -97.5986328125 l 1
 899.998046875 -97.5986328125 l 1
853.3984375 -125.399414062 m 1
 894.198242188 -125.399414062 l 1
 894.198242188 736.600585938 l 1
 853.3984375 736.600585938 l 1
 853.3984375 -125.399414062 l 1
893.797851562 -124.999023438 m 1
 853.798828125 -124.999023438 l 1
 853.798828125 736.200195312 l 1
 893.797851562 736.200195312 l 1
 893.797851562 -124.999023438 l 1
893.598632812 716.400390625 m 1
 853.598632812 716.400390625 l 1
 853.598632812 -104.798828125 l 1
 893.598632812 -104.798828125 l 1
 893.598632812 716.400390625 l 1
-20.201171875 -220.598632812 m 1
 1020.59863281 -220.598632812 l 1
 1020.59863281 820.200195312 l 1
 -20.201171875 820.200195312 l 1
 -20.201171875 -220.598632812 l 1
1020.19824219 -220.198242188 m 1
 -19.80078125 -220.198242188 l 1
 -19.80078125 819.799804688 l 1
 1020.19824219 819.799804688 l 1
 1020.19824219 -220.198242188 l 1
999.998046875 -219.999023438 m 2
 1011.03613281 -219.999023438 1019.99804688 -211.037109375 1019.99804688 -199.999023438 c 2
 1019.99804688 800 l 2
 1019.99804688 811.038085938 1011.03613281 820 999.998046875 820 c 2
 -0.0009765625 820 l 2
 -11.0390625 820 -20.0009765625 811.038085938 -20.0009765625 800 c 2
 -20.0009765625 -199.999023438 l 2
 -20.0009765625 -211.037109375 -11.0390625 -219.999023438 -0.0009765625 -219.999023438 c 2
 999.998046875 -219.999023438 l 2
979.998046875 -179.999023438 m 1
 19.9990234375 -179.999023438 l 1
 19.9990234375 780 l 1
 979.998046875 780 l 1
 979.998046875 -179.999023438 l 1
EndSplineSet
EndChar

StartChar: u
Encoding: 117 117 72
Width: 1000
Flags: H
LayerCount: 2
Fore
SplineSet
73.0009765625 -119.799804688 m 1
 904.6015625 -119.799804688 l 1
 904.6015625 -79 l 1
 73.0009765625 -79 l 1
 73.0009765625 -119.799804688 l 1
904.201171875 -119.399414062 m 1
 73.4013671875 -119.399414062 l 1
 73.4013671875 -79.400390625 l 1
 904.201171875 -79.400390625 l 1
 904.201171875 -119.399414062 l 1
884.000976562 -119.200195312 m 1
 884.000976562 -79.2001953125 l 1
 93.201171875 -79.2001953125 l 1
 93.201171875 -119.200195312 l 1
 884.000976562 -119.200195312 l 1
837.401367188 -147 m 1
 878.201171875 -147 l 1
 878.201171875 715.799804688 l 1
 837.401367188 715.799804688 l 1
 837.401367188 -147 l 1
877.80078125 -146.599609375 m 1
 837.801757812 -146.599609375 l 1
 837.801757812 715.399414062 l 1
 877.80078125 715.399414062 l 1
 877.80078125 -146.599609375 l 1
877.6015625 695.599609375 m 1
 837.6015625 695.599609375 l 1
 837.6015625 -126.399414062 l 1
 877.6015625 -126.399414062 l 1
 877.6015625 695.599609375 l 1
99.0009765625 -147.400390625 m 1
 139.801757812 -147.400390625 l 1
 139.801757812 715.400390625 l 1
 99.0009765625 715.400390625 l 1
 99.0009765625 -147.400390625 l 1
139.401367188 -147 m 1
 99.4013671875 -147 l 1
 99.4013671875 715 l 1
 139.401367188 715 l 1
 139.401367188 -147 l 1
139.201171875 695.200195312 m 1
 99.201171875 695.200195312 l 1
 99.201171875 -126.799804688 l 1
 139.201171875 -126.799804688 l 1
 139.201171875 695.200195312 l 1
214.600585938 -13.7998046875 m 1
 809.801757812 -13.7998046875 l 1
 809.801757812 630.200195312 l 1
 214.600585938 630.200195312 l 1
 214.600585938 -13.7998046875 l 1
809.401367188 -13.3994140625 m 1
 215.000976562 -13.3994140625 l 1
 215.000976562 629.799804688 l 1
 809.401367188 629.799804688 l 1
 809.401367188 -13.3994140625 l 1
512.000976562 590 m 0
 653.942382812 590 769.201171875 463.452148438 769.201171875 308.400390625 c 0
 769.201171875 154.549804688 655.299804688 26.7998046875 512.000976562 26.7998046875 c 0
 370.0625 26.7998046875 254.80078125 153.348632812 254.80078125 308.400390625 c 0
 254.80078125 462.23828125 368.690429688 590 512.000976562 590 c 0
512.000976562 -13.2001953125 m 0
 676.919921875 -13.2001953125 809.201171875 131.848632812 809.201171875 308.400390625 c 0
 809.201171875 485.810546875 675.919921875 630 512.000976562 630 c 0
 347.081054688 630 214.80078125 484.951171875 214.80078125 308.400390625 c 0
 214.80078125 130.993164062 348.08203125 -13.2001953125 512.000976562 -13.2001953125 c 0
-20.19921875 -220.599609375 m 1
 1020.6015625 -220.599609375 l 1
 1020.6015625 820.200195312 l 1
 -20.19921875 820.200195312 l 1
 -20.19921875 -220.599609375 l 1
1020.20117188 -220.19921875 m 1
 -19.798828125 -220.19921875 l 1
 -19.798828125 819.799804688 l 1
 1020.20117188 819.799804688 l 1
 1020.20117188 -220.19921875 l 1
1000.00097656 -220 m 2
 1011.0390625 -220 1020.00097656 -211.038085938 1020.00097656 -200 c 2
 1020.00097656 800 l 2
 1020.00097656 811.038085938 1011.0390625 820 1000.00097656 820 c 2
 0.0009765625 820 l 2
 -11.037109375 820 -19.9990234375 811.038085938 -19.9990234375 800 c 2
 -19.9990234375 -200 l 2
 -19.9990234375 -211.038085938 -11.037109375 -220 0.0009765625 -220 c 2
 1000.00097656 -220 l 2
980.000976562 -180 m 1
 20.0009765625 -180 l 1
 20.0009765625 780 l 1
 980.000976562 780 l 1
 980.000976562 -180 l 1
EndSplineSet
EndChar

StartChar: uniE026
Encoding: 57382 57382 73
Width: 1000
Flags: H
LayerCount: 2
Fore
SplineSet
73.0009765625 -119.799804688 m 1
 904.6015625 -119.799804688 l 1
 904.6015625 -79 l 1
 73.0009765625 -79 l 1
 73.0009765625 -119.799804688 l 1
904.201171875 -119.399414062 m 1
 73.4013671875 -119.399414062 l 1
 73.4013671875 -79.400390625 l 1
 904.201171875 -79.400390625 l 1
 904.201171875 -119.399414062 l 1
884.000976562 -119.200195312 m 1
 884.000976562 -79.2001953125 l 1
 93.201171875 -79.2001953125 l 1
 93.201171875 -119.200195312 l 1
 884.000976562 -119.200195312 l 1
837.401367188 -147 m 1
 878.201171875 -147 l 1
 878.201171875 715.799804688 l 1
 837.401367188 715.799804688 l 1
 837.401367188 -147 l 1
877.80078125 -146.599609375 m 1
 837.801757812 -146.599609375 l 1
 837.801757812 715.399414062 l 1
 877.80078125 715.399414062 l 1
 877.80078125 -146.599609375 l 1
877.6015625 695.599609375 m 1
 837.6015625 695.599609375 l 1
 837.6015625 -126.399414062 l 1
 877.6015625 -126.399414062 l 1
 877.6015625 695.599609375 l 1
99.0009765625 -147.400390625 m 1
 139.801757812 -147.400390625 l 1
 139.801757812 715.400390625 l 1
 99.0009765625 715.400390625 l 1
 99.0009765625 -147.400390625 l 1
139.401367188 -147 m 1
 99.4013671875 -147 l 1
 99.4013671875 715 l 1
 139.401367188 715 l 1
 139.401367188 -147 l 1
139.201171875 695.200195312 m 1
 99.201171875 695.200195312 l 1
 99.201171875 -126.799804688 l 1
 139.201171875 -126.799804688 l 1
 139.201171875 695.200195312 l 1
214.600585938 -13.7998046875 m 1
 809.801757812 -13.7998046875 l 1
 809.801757812 630.200195312 l 1
 214.600585938 630.200195312 l 1
 214.600585938 -13.7998046875 l 1
809.401367188 -13.3994140625 m 1
 215.000976562 -13.3994140625 l 1
 215.000976562 629.799804688 l 1
 809.401367188 629.799804688 l 1
 809.401367188 -13.3994140625 l 1
512.000976562 590 m 0
 653.942382812 590 769.201171875 463.452148438 769.201171875 308.400390625 c 0
 769.201171875 154.549804688 655.299804688 26.7998046875 512.000976562 26.7998046875 c 0
 370.0625 26.7998046875 254.80078125 153.348632812 254.80078125 308.400390625 c 0
 254.80078125 462.23828125 368.690429688 590 512.000976562 590 c 0
512.000976562 -13.2001953125 m 0
 676.919921875 -13.2001953125 809.201171875 131.848632812 809.201171875 308.400390625 c 0
 809.201171875 485.810546875 675.919921875 630 512.000976562 630 c 0
 347.081054688 630 214.80078125 484.951171875 214.80078125 308.400390625 c 0
 214.80078125 130.993164062 348.08203125 -13.2001953125 512.000976562 -13.2001953125 c 0
-20.19921875 -220.599609375 m 1
 1020.6015625 -220.599609375 l 1
 1020.6015625 820.200195312 l 1
 -20.19921875 820.200195312 l 1
 -20.19921875 -220.599609375 l 1
1020.20117188 -220.19921875 m 1
 -19.798828125 -220.19921875 l 1
 -19.798828125 819.799804688 l 1
 1020.20117188 819.799804688 l 1
 1020.20117188 -220.19921875 l 1
1000.00097656 -220 m 2
 1011.0390625 -220 1020.00097656 -211.038085938 1020.00097656 -200 c 2
 1020.00097656 800 l 2
 1020.00097656 811.038085938 1011.0390625 820 1000.00097656 820 c 2
 0.0009765625 820 l 2
 -11.037109375 820 -19.9990234375 811.038085938 -19.9990234375 800 c 2
 -19.9990234375 -200 l 2
 -19.9990234375 -211.038085938 -11.037109375 -220 0.0009765625 -220 c 2
 1000.00097656 -220 l 2
980.000976562 -180 m 1
 20.0009765625 -180 l 1
 20.0009765625 780 l 1
 980.000976562 780 l 1
 980.000976562 -180 l 1
EndSplineSet
EndChar

